<?xml version="1.0" standalone="no"?>
<!DOCTYPE svg PUBLIC "-//W3C//DTD SVG 1.1//EN" "http://www.w3.org/Graphics/SVG/1.1/DTD/svg11.dtd" >
<svg xmlns="http://www.w3.org/2000/svg" xmlns:xlink="http://www.w3.org/1999/xlink" version="1.1">
<metadata>
Created by FontForge 20170910 at Tue Feb  3 17:34:56 2015
 By Jimmy Wärting
Copyright (c) 2015 by Grilli Type. All rights reserved.
</metadata>
<defs>
<font id="GTCinetypeRegular" horiz-adv-x="640" >
  <font-face 
    font-family="GTCinetypeRegular"
    font-weight="400"
    font-stretch="normal"
    units-per-em="1000"
    panose-1="2 0 5 3 2 0 0 2 0 4"
    ascent="770"
    descent="-230"
    x-height="527"
    cap-height="711"
    bbox="-200 -208 1440 962"
    underline-thickness="0"
    underline-position="0"
    unicode-range="U+000D-FB04"
  />
<missing-glyph horiz-adv-x="1370" 
 />
    <glyph glyph-name="IJ" unicode="IJ" horiz-adv-x="615" 
d="M178 0h-83v711h83v-711zM273 74h78l39 16l38 42l14 63v516h83v-527l-20 -91l-69 -73l-70 -28h-93v82z" />
    <glyph glyph-name="ij" unicode="ij" horiz-adv-x="550" 
d="M349 754h119v-123h-119v123zM399 -133l-84 -29h-44l-54 14l21 79l39 -10h27l39 13l24 39v554h83v-579zM90 527h83v-527h-83v527zM72 754h119v-123h-119v123z" />
    <glyph glyph-name="napostrophe" unicode="&#x22;n" horiz-adv-x="586" 
d="M36 701v107h109v-111l-74 -146l-50 29l48 108zM173 475l25 22l66 38h92l89 -24l61 -82v-429h-83v397l-25 39l-59 17h-64l-72 -46l-30 -43v-364h-83v527h83v-52z" />
    <glyph glyph-name="fi" unicode="fi" horiz-adv-x="660" 
d="M259 762h40l89 -20l-21 -81l-74 19h-27l-38 -13l-25 -37v-116h367v-514h-83v432h-284v-432h-83v432h-95v82h95v140l55 82zM588 754v-123h-119v123h119z" />
    <glyph glyph-name="fl" unicode="fl" horiz-adv-x="660" 
d="M570 754v-754h-83v432h-284v-432h-83v432h-95v82h95v140l55 82l84 26h40l89 -20l-21 -81l-74 19h-27l-38 -13l-25 -37v-116h284v240h83z" />
    <glyph glyph-name=".notdef" horiz-adv-x="1370" 
 />
    <glyph glyph-name=".null" horiz-adv-x="0" 
 />
    <glyph glyph-name=".null" horiz-adv-x="0" 
 />
    <glyph glyph-name="nonmarkingreturn" unicode="&#xd;" horiz-adv-x="282" 
 />
    <glyph glyph-name="space" unicode=" " horiz-adv-x="295" 
 />
    <glyph glyph-name="exclam" unicode="!" horiz-adv-x="279" 
d="M98 211v500h83v-500h-83zM80 123h119v-123h-119v123z" />
    <glyph glyph-name="quotedbl" unicode="&#x22;" horiz-adv-x="345" 
d="M212 711h83v-263h-83v263zM50 711h83v-263h-83v263z" />
    <glyph glyph-name="numbersign" unicode="#" horiz-adv-x="768" 
d="M590 514h118v-72h-140l-54 -173h134v-72h-156l-64 -208l-70 21l58 187h-162l-64 -208l-70 21l58 187h-118v72h140l54 173h-134v72h156l64 208l70 -21l-58 -187h162l64 208l70 -21zM277 269h161l53 173h-161z" />
    <glyph glyph-name="dollar" unicode="$" 
d="M536 649l-44 -71l-57 36l-82 23h-71l-61 -19l-36 -38l-15 -51l8 -44l14 -23l52 -36l204 -58l77 -53l32 -77v-97l-25 -54l-48 -55l-109 -40h-13v-103h-83v103h-18l-95 33l-60 42l-23 28l66 51l16 -19l41 -30l69 -23h88l74 28l24 30l13 28v62l-17 38l-44 31l-209 60l-72 51
l-33 53l-14 82l27 85l64 67l92 30h11v107h83v-107h3l106 -30z" />
    <glyph glyph-name="percent" unicode="%" horiz-adv-x="894" 
d="M170 22l503 704l51 -37l-503 -704zM199 306l-49 21l-38 40l-19 44l-9 43v75l9 43l19 43l38 39l49 22h56l48 -22l38 -39l19 -43l9 -43v-75l-9 -43l-19 -44l-38 -40l-48 -21h-56zM263 383l20 19l9 26l8 32v63l-7 30l-8 24l-23 21l-23 12h-23l-25 -12l-22 -21l-9 -24l-7 -30
v-63l8 -32l9 -26l21 -19l25 -11h23zM640 36l-49 21l-38 40l-19 44l-9 43v75l9 43l19 43l38 39l49 22h56l48 -22l38 -39l19 -43l9 -43v-75l-9 -43l-19 -44l-38 -40l-48 -21h-56zM704 113l20 19l9 26l8 32v63l-7 30l-8 24l-23 21l-23 12h-23l-25 -12l-22 -21l-9 -24l-7 -30
v-63l8 -32l9 -26l21 -19l25 -11h23z" />
    <glyph glyph-name="ampersand" unicode="&#x26;" horiz-adv-x="658" 
d="M419 129l7 9l-163 192l-94 -57l-26 -42v-56l13 -46l47 -44l41 -11h68l48 11l25 12zM221 504l59 -69l65 39l35 35l15 34v33l-12 29l-33 25l-29 7h-36l-38 -9l-30 -25l-10 -32v-32zM618 39l-61 -54l-76 89l-45 -43l-49 -24l-63 -15h-92l-71 21l-77 71l-24 80v91l52 79
l98 59l-62 72l-24 60v59l24 69l65 53l63 13h52l57 -13l67 -50l26 -67v-62l-28 -67l-58 -52l-59 -35l138 -163l5 9l17 86v34h83v-39l-22 -109l-25 -49z" />
    <glyph glyph-name="quotesingle" unicode="'" horiz-adv-x="183" 
d="M50 711h83v-263h-83v263z" />
    <glyph glyph-name="parenleft" unicode="(" horiz-adv-x="348" 
d="M143 232l32 -160l44 -111l59 -86l-67 -46l-65 93l-51 123l-35 179v155l35 179l51 123l65 93l67 -46l-59 -86l-44 -111l-32 -160v-139z" />
    <glyph glyph-name="parenright" unicode=")" horiz-adv-x="348" 
d="M205 371l-32 160l-44 111l-59 86l67 46l65 -93l51 -123l35 -179v-155l-35 -179l-51 -123l-65 -93l-67 46l59 86l44 111l32 160v139z" />
    <glyph glyph-name="asterisk" unicode="*" horiz-adv-x="514" 
d="M336 338l-78 105l-77 -105l-62 46l76 104l-125 42l24 74l125 -42v133h78v-133l123 42l24 -74l-123 -42l77 -104z" />
    <glyph glyph-name="plus" unicode="+" horiz-adv-x="580" 
d="M251 109v191h-181v78h181v191h78v-191h181v-78h-181v-191h-78z" />
    <glyph glyph-name="comma" unicode="," horiz-adv-x="279" 
d="M80 16v107h119v-111l-84 -146l-50 29l56 105z" />
    <glyph glyph-name="hyphen" unicode="-" horiz-adv-x="480" 
d="M70 348h340v-78h-340v78z" />
    <glyph glyph-name="period" unicode="." horiz-adv-x="279" 
d="M80 123h119v-123h-119v123z" />
    <glyph glyph-name="slash" unicode="/" horiz-adv-x="441" 
d="M148 -13l-78 25l223 712l78 -25z" />
    <glyph glyph-name="zero" unicode="0" horiz-adv-x="643" 
d="M274 -8l-91 43l-70 71l-36 86l-17 91v145l17 91l36 86l70 71l91 43h95l91 -43l70 -71l36 -86l17 -91v-145l-17 -91l-36 -86l-70 -71l-91 -43h-95zM411 102l50 53l24 58l15 77v132l-14 73l-24 62l-50 51l-60 29h-61l-60 -29l-50 -51l-24 -62l-14 -73v-132l15 -77l24 -58
l50 -53l58 -28h63z" />
    <glyph glyph-name="one" unicode="1" horiz-adv-x="395" 
d="M10 587l245 124h45v-711h-83v601l-170 -88z" />
    <glyph glyph-name="two" unicode="2" horiz-adv-x="505" 
d="M35 626l44 46l105 47h108l104 -51l66 -104v-96l-44 -90l-268 -296h320v-82h-433v74l311 349l31 62v55l-40 65l-67 32h-72l-71 -34l-35 -36z" />
    <glyph glyph-name="three" unicode="3" horiz-adv-x="541" 
d="M190 372v66l139 191h-251v82h361v-65l-148 -204l96 -36l70 -70l29 -77v-73l-29 -78l-65 -69l-106 -47h-106l-101 42l-49 47l59 59l38 -38l68 -28h74l75 34l40 42l19 47v50l-18 44l-44 46l-87 35h-64z" />
    <glyph glyph-name="four" unicode="4" horiz-adv-x="551" 
d="M521 266v-82h-107v-184h-83v184h-321v63l326 464h78v-445h107zM331 563l-215 -297h215v297z" />
    <glyph glyph-name="five" unicode="5" horiz-adv-x="566" 
d="M145 349l-68 49l43 313h336v-82h-264l-30 -191l32 14h121l92 -36l70 -70l29 -77v-83l-29 -78l-65 -69l-106 -47h-106l-101 42l-49 47l59 59l38 -38l68 -28h74l75 34l40 43l19 47v58l-18 44l-46 47l-61 23h-91z" />
    <glyph glyph-name="six" unicode="6" horiz-adv-x="580" 
d="M148 287v-82l14 -51l34 -48l64 -32h80l64 32l27 39l16 53v63l-13 44l-29 42l-65 34h-62l-67 -28l-47 -38zM180 428l84 35h94l104 -52l49 -72l19 -69v-83l-20 -73l-50 -71l-102 -51h-117l-103 51l-52 75l-21 75v300l24 86l68 91l104 49h99l100 -47l44 -42l-59 -59l-33 32
l-70 34h-63l-67 -32l-47 -62l-17 -64v-79z" />
    <glyph glyph-name="seven" unicode="7" horiz-adv-x="467" 
d="M70 0l285 629h-325v82h422v-60l-289 -651h-93z" />
    <glyph glyph-name="eight" unicode="8" horiz-adv-x="583" 
d="M380 440l31 31l13 39v44l-14 40l-31 27l-58 16h-59l-58 -16l-31 -27l-14 -40v-44l13 -39l31 -31l43 -15h91zM243 345l-46 -17l-41 -42l-13 -43v-67l11 -43l42 -40l60 -19h71l60 19l42 40l11 43v67l-13 43l-41 42l-46 17h-97zM523 162l-21 -73l-71 -69l-93 -28h-93l-93 28
l-71 69l-21 73v93l24 74l63 59l-44 38l-27 69v72l25 74l61 51l91 27h77l91 -27l61 -51l25 -74v-72l-27 -69l-44 -38l63 -59l24 -74v-93z" />
    <glyph glyph-name="nine" unicode="9" horiz-adv-x="580" 
d="M432 427v79l-14 51l-34 48l-64 32h-80l-64 -32l-27 -39l-16 -53v-60l13 -44l29 -42l65 -34h65l67 28l46 38zM400 286l-83 -35h-95l-104 52l-49 72l-19 69v80l20 73l50 71l102 51h117l103 -51l52 -75l21 -75v-305l-24 -85l-68 -89l-104 -47h-99l-100 47l-44 42l59 59
l33 -32l70 -34h63l67 30l47 60l17 63v87z" />
    <glyph glyph-name="colon" unicode=":" horiz-adv-x="309" 
d="M95 123h119v-123h-119v123zM95 514h119v-123h-119v123z" />
    <glyph glyph-name="semicolon" unicode=";" horiz-adv-x="309" 
d="M95 514h119v-123h-119v123zM95 16v107h119v-111l-84 -146l-50 29l56 105z" />
    <glyph glyph-name="less" unicode="&#x3c;" horiz-adv-x="500" 
d="M129 270l301 -178l-37 -63l-347 206v71l347 206l37 -63z" />
    <glyph glyph-name="equal" unicode="=" horiz-adv-x="580" 
d="M70 460h440v-78h-440v78zM70 296h440v-78h-440v78z" />
    <glyph glyph-name="greater" unicode="&#x3e;" horiz-adv-x="500" 
d="M371 271l-301 178l37 63l347 -206v-71l-347 -206l-37 63z" />
    <glyph glyph-name="question" unicode="?" horiz-adv-x="547" 
d="M359 468l16 34l8 44l-11 45l-24 27l-52 19h-52l-50 -14l-30 -25l-9 -17l-9 -53l-81 14l11 62l21 46l59 47l75 22h80l82 -32l55 -53l19 -86l-13 -72l-28 -56l-81 -66l-43 -68v-75h-83v102l58 89zM201 123h119v-123h-119v123z" />
    <glyph glyph-name="at" unicode="@" horiz-adv-x="840" 
d="M650 88l38 33l36 79v100l-25 99l-54 76l-73 50l-90 21h-102l-90 -31l-81 -56l-60 -82l-31 -92v-85l31 -92l60 -82l81 -56l90 -31h82l87 32l30 -62l-104 -38h-108l-107 37l-98 67l-75 103l-37 109v111l37 109l75 103l98 67l107 37h128l107 -27l90 -61l69 -97l31 -116v-126
l-51 -109l-75 -58h-58l-53 31l-26 39l-17 -21l-70 -34h-49l-52 16l-36 21l-43 62v48l11 48l57 56l74 21h49l51 -18l15 -11v54l-8 21l-29 21l-34 9h-56l-28 -9l-28 -17l-13 -13l-47 48l21 20l38 24l47 14h70l58 -14l56 -38l21 -52v-218l28 -40h35zM519 204l-12 11l-27 15
l-36 10h-31l-48 -13l-31 -33l-4 -19v-19l22 -33l17 -9l32 -11h31l42 19l37 33l8 14v35z" />
    <glyph glyph-name="A" unicode="A" horiz-adv-x="624" 
d="M345 711l259 -711h-88l-76 214h-256l-76 -214h-88l259 711h66zM412 295l-100 291l-100 -291h200z" />
    <glyph glyph-name="B" unicode="B" horiz-adv-x="639" 
d="M454 104l30 35l15 60l-15 64l-25 42l-53 32h-228v-255h227zM95 711h297l92 -25l66 -72l21 -96l-20 -79l-32 -46l-30 -16l30 -19l43 -62l22 -97l-23 -97l-52 -63l-83 -39h-331v711zM178 629v-210h232l50 34l14 20l12 45l-12 56l-35 39l-55 16h-206z" />
    <glyph glyph-name="C" unicode="C" 
d="M292 -8l-107 47l-67 68l-44 89l-19 86v147l19 88l44 89l69 67l105 46h110l104 -41l45 -35l39 -46l-59 -56l-35 39l-31 25l-75 32h-84l-71 -32l-48 -48l-34 -67l-15 -67v-134l15 -67l34 -66l47 -48l72 -34h84l76 32l31 25l34 39l59 -56l-39 -46l-45 -35l-104 -41h-110z
" />
    <glyph glyph-name="D" unicode="D" horiz-adv-x="663" 
d="M340 82l82 34l46 47l33 65l19 72v111l-18 72l-34 65l-47 48l-80 33h-163v-547h162zM95 711h261l112 -44l69 -70l44 -88l22 -88v-131l-22 -88l-44 -88l-69 -70l-112 -44h-261v711z" />
    <glyph glyph-name="E" unicode="E" horiz-adv-x="581" 
d="M178 629v-210h251v-82h-251v-255h363v-82h-446v711h446v-82h-363z" />
    <glyph glyph-name="F" unicode="F" horiz-adv-x="537" 
d="M178 629v-210h241v-82h-241v-337h-83v711h422v-82h-339z" />
    <glyph glyph-name="G" unicode="G" horiz-adv-x="677" 
d="M503 585l-33 25l-77 27h-82l-71 -32l-48 -48l-34 -67l-15 -67v-134l15 -67l34 -66l47 -48l72 -34h84l57 25l47 41l33 53l7 36v49h-174v82h257v-135l-11 -59l-44 -74l-68 -61l-90 -39h-112l-107 47l-67 68l-44 89l-19 86v147l19 88l44 89l69 67l105 46h110l104 -38l47 -36
l39 -47l-61 -53z" />
    <glyph glyph-name="H" unicode="H" horiz-adv-x="679" 
d="M501 419v292h83v-711h-83v337h-323v-337h-83v711h83v-292h323z" />
    <glyph glyph-name="I" unicode="I" horiz-adv-x="273" 
d="M178 0h-83v711h83v-711z" />
    <glyph glyph-name="J" unicode="J" horiz-adv-x="503" 
d="M113 19l-72 70l-21 90l80 22l15 -68l46 -46l35 -13h38l35 14l46 45l15 62v516h83v-527l-24 -94l-70 -71l-68 -27h-70z" />
    <glyph glyph-name="K" unicode="K" horiz-adv-x="665" 
d="M650 0h-103l-240 360l-129 -136v-224h-83v711h83v-369l344 369h118l-275 -292z" />
    <glyph glyph-name="L" unicode="L" horiz-adv-x="522" 
d="M178 82h324v-82h-407v711h83v-629z" />
    <glyph glyph-name="M" unicode="M" horiz-adv-x="840" 
d="M663 711h82v-711h-83v521l-200 -442h-84l-200 442v-521h-83v711h82l243 -534z" />
    <glyph glyph-name="N" unicode="N" horiz-adv-x="738" 
d="M95 711h71l394 -576v576h83v-711h-89l-376 552v-552h-83v711z" />
    <glyph glyph-name="O" unicode="O" horiz-adv-x="704" 
d="M297 -8l-107 47l-67 68l-44 89l-19 86v147l19 88l44 89l69 67l105 46h110l105 -46l69 -67l44 -89l19 -88v-147l-19 -86l-44 -89l-67 -68l-107 -47h-110zM313 74h80l72 34l47 48l34 66l15 67v134l-15 67l-34 67l-48 48l-71 32h-82l-71 -32l-48 -48l-34 -67l-15 -68v-134
l15 -65l34 -67l47 -48z" />
    <glyph glyph-name="P" unicode="P" horiz-adv-x="612" 
d="M178 296v-296h-83v711h296l93 -24l74 -74l29 -101l-27 -98l-49 -72l-92 -46h-241zM178 378h217l60 29l29 43l17 59l-17 60l-43 43l-59 17h-204v-251z" />
    <glyph glyph-name="Q" unicode="Q" horiz-adv-x="704" 
d="M297 -8l-107 47l-67 68l-44 89l-19 86v147l19 88l44 89l69 67l105 46h110l105 -46l69 -67l44 -89l19 -88v-147l-19 -86l-44 -89l-41 -41l48 -56l-62 -54l-55 65l-64 -29h-110zM416 85l-67 78l62 53l76 -87l25 27l34 67l15 65v134l-16 69l-33 66l-48 48l-71 32h-82
l-71 -32l-48 -48l-34 -67l-15 -67v-134l15 -67l34 -66l47 -48l72 -34h81z" />
    <glyph glyph-name="R" unicode="R" horiz-adv-x="635" 
d="M391 711l93 -24l74 -74l29 -101l-27 -98l-49 -72l-59 -31l138 -311h-92l-129 296h-191v-296h-83v711h296zM178 378h217l60 29l29 43l17 59l-17 60l-43 43l-59 17h-204v-251z" />
    <glyph glyph-name="S" unicode="S" horiz-adv-x="602" 
d="M76 67l-23 28l60 58l19 -24l41 -28l90 -27h86l75 29l24 28l14 29v60l-23 46l-47 27l-204 56l-75 53l-33 53l-14 82l27 85l64 67l92 30h105l116 -30l65 -40l-45 -70l-57 34l-90 24h-79l-60 -19l-37 -37l-15 -52l9 -44l13 -22l51 -37l211 -58l77 -53l32 -77v-97l-25 -54
l-48 -55l-109 -40h-118l-109 33z" />
    <glyph glyph-name="T" unicode="T" horiz-adv-x="515" 
d="M297 0h-83v629h-189v82h465v-82h-193v-629z" />
    <glyph glyph-name="U" unicode="U" horiz-adv-x="709" 
d="M310 -8l-128 47l-70 93l-22 71v508h83v-497l13 -45l48 -63l89 -32h63l89 32l48 63l13 45v497h83v-508l-22 -71l-70 -93l-128 -47h-89z" />
    <glyph glyph-name="V" unicode="V" horiz-adv-x="636" 
d="M279 0l-269 711h88l220 -585l220 585h88l-269 -711h-78z" />
    <glyph glyph-name="W" unicode="W" horiz-adv-x="870" 
d="M630 148l140 563h85l-182 -711h-79l-159 514l-159 -514h-79l-182 711h85l140 -563l164 534h62z" />
    <glyph glyph-name="X" unicode="X" horiz-adv-x="656" 
d="M328 422l211 289h102l-262 -357l260 -354h-102l-209 288l-209 -288h-102l260 354l-262 357h102z" />
    <glyph glyph-name="Y" unicode="Y" horiz-adv-x="566" 
d="M458 711h98l-232 -353v-358h-82v358l-232 353h98l175 -269z" />
    <glyph glyph-name="Z" unicode="Z" horiz-adv-x="558" 
d="M519 711v-64l-379 -565h388v-82h-498v64l380 565h-360v82h469z" />
    <glyph glyph-name="bracketleft" unicode="[" horiz-adv-x="346" 
d="M276 -122v-80h-216v983h216v-80h-134v-823h134z" />
    <glyph glyph-name="backslash" unicode="\" horiz-adv-x="441" 
d="M70 699l78 25l223 -712l-78 -25z" />
    <glyph glyph-name="bracketright" unicode="]" horiz-adv-x="346" 
d="M204 -122v823h-134v80h216v-983h-216v80h134z" />
    <glyph glyph-name="asciicircum" unicode="^" horiz-adv-x="540" 
d="M270 669l-165 -358l-75 36l197 407h86l197 -407l-75 -36z" />
    <glyph glyph-name="underscore" unicode="_" horiz-adv-x="580" 
d="M530 -45v-72h-480v72h480z" />
    <glyph glyph-name="grave" unicode="`" horiz-adv-x="302" 
d="M219 599l-179 127l43 61l179 -127z" />
    <glyph glyph-name="a" unicode="a" horiz-adv-x="565" 
d="M387 145l10 31v37l-21 22l-31 16l-49 14h-45l-66 -18l-39 -39l-8 -35v-27l31 -44l23 -14l47 -14h32l75 28zM74 459l28 26l48 31l64 19h93l72 -18l74 -50l27 -68v-303l39 -56l-67 -48l-48 72l-23 -26l-92 -46h-62l-68 21l-48 28l-56 81v58l14 68l74 74l99 25h64l67 -22
l24 -17v76l-11 30l-42 27l-49 12h-71l-43 -14l-31 -20l-19 -19z" />
    <glyph glyph-name="b" unicode="b" horiz-adv-x="594" 
d="M195 497l61 38h90l104 -48l68 -92l21 -71v-119l-21 -73l-68 -92l-100 -48h-89l-60 22l-28 18v-32h-83v754h83v-280zM194 111l38 -25l41 -13h64l59 32l48 64l12 47v97l-12 45l-48 65l-63 30h-66l-65 -46l-29 -43v-227z" />
    <glyph glyph-name="c" unicode="c" horiz-adv-x="513" 
d="M364 439l-45 14h-62l-60 -31l-47 -64l-12 -47v-96l13 -46l48 -65l61 -30h59l43 15l52 49l58 -57l-65 -64l-78 -25h-85l-100 48l-68 92l-21 71v119l21 73l68 92l100 48h85l78 -25l66 -66l-59 -55z" />
    <glyph glyph-name="d" unicode="d" horiz-adv-x="594" 
d="M400 30l-62 -38h-90l-104 48l-68 92l-21 71v119l21 73l68 92l100 48h89l60 -22l28 -18v259h83v-754h-82v53zM400 416l-38 25l-41 13h-64l-59 -32l-48 -64l-12 -47v-97l12 -45l48 -65l63 -30h66l65 46l29 43v227z" />
    <glyph glyph-name="e" unicode="e" horiz-adv-x="574" 
d="M138 213l13 -44l48 -65l61 -30h60l68 17l52 33l44 -66l-65 -43l-92 -23h-83l-100 48l-68 92l-21 71v119l21 73l68 92l100 48h89l101 -48l67 -92l23 -67v-105h-386v-10zM441 305v13l-13 38l-48 65l-61 32h-62l-60 -31l-47 -64l-12 -44v-9h303z" />
    <glyph glyph-name="f" unicode="f" horiz-adv-x="403" 
d="M120 432h-95v82h95v140l55 82l84 26h40l89 -20l-21 -81l-74 19h-27l-38 -13l-25 -37v-116h134v-82h-134v-432h-83v432z" />
    <glyph glyph-name="g" unicode="g" horiz-adv-x="594" 
d="M400 416l-38 25l-41 13h-64l-59 -32l-48 -64l-12 -47v-73l12 -43l46 -63l65 -26h66l65 46l29 47v191zM241 -168l-71 19l-49 32l-28 27l58 59l25 -25l25 -17l48 -13h71l46 17l43 29l12 30v92l-21 -20l-62 -38h-90l-102 40l-70 92l-21 71v95l21 73l68 92l100 48h89l60 -22
l28 -18v32h83v-546l-25 -73l-76 -51l-74 -25h-88z" />
    <glyph glyph-name="h" unicode="h" horiz-adv-x="581" 
d="M90 754h83v-277l24 20l67 38h92l84 -24l61 -82v-429h-83v397l-25 39l-54 17h-64l-70 -46l-32 -47v-360h-83v754z" />
    <glyph glyph-name="i" unicode="i" horiz-adv-x="263" 
d="M90 527h83v-527h-83v527zM72 754h119v-123h-119v123z" />
    <glyph glyph-name="j" unicode="j" horiz-adv-x="273" 
d="M132 -133l-84 -29h-44l-54 14l21 79l39 -10h27l39 13l24 39v554h83v-579zM82 754h119v-123h-119v123z" />
    <glyph glyph-name="k" unicode="k" horiz-adv-x="552" 
d="M396 527h116l-216 -211l226 -316h-101l-182 259l-66 -64v-195h-83v754h83v-450z" />
    <glyph glyph-name="l" unicode="l" horiz-adv-x="263" 
d="M90 0v754h83v-754h-83z" />
    <glyph glyph-name="m" unicode="m" horiz-adv-x="903" 
d="M415 393l-25 41l-51 19h-64l-72 -46l-30 -43v-364h-83v527h83v-52l25 22l66 38h92l81 -24l38 -52l44 38l70 38h92l81 -24l61 -82v-429h-83v397l-25 39l-51 17h-64l-70 -46l-32 -47v-360h-83v393z" />
    <glyph glyph-name="n" unicode="n" horiz-adv-x="586" 
d="M173 475l25 22l66 38h92l89 -24l61 -82v-429h-83v397l-25 39l-59 17h-64l-72 -46l-30 -43v-364h-83v527h83v-52z" />
    <glyph glyph-name="o" unicode="o" horiz-adv-x="558" 
d="M318 73l59 29l30 45l13 67v100l-13 65l-31 44l-58 30h-78l-60 -30l-29 -44l-13 -65v-100l13 -67l30 -45l59 -29h78zM226 -8l-101 48l-50 74l-20 90v118l20 90l50 74l101 49h106l101 -49l50 -74l20 -90v-118l-20 -90l-50 -74l-101 -48h-106z" />
    <glyph glyph-name="p" unicode="p" horiz-adv-x="594" 
d="M194 497l62 38h90l104 -48l68 -92l21 -71v-119l-21 -73l-68 -92l-100 -48h-89l-60 22l-28 18v-194h-83v689h82v-53zM194 111l38 -25l41 -13h64l59 32l48 64l12 47v97l-12 45l-48 65l-63 30h-66l-65 -46l-29 -43v-227z" />
    <glyph glyph-name="q" unicode="q" horiz-adv-x="594" 
d="M399 30l-61 -38h-90l-104 48l-68 92l-21 71v119l21 73l68 92l100 48h89l60 -22l28 -18v32h83v-689h-83v215zM400 416l-38 25l-41 13h-64l-59 -32l-48 -64l-12 -47v-97l12 -45l48 -65l63 -30h66l65 46l29 43v227z" />
    <glyph glyph-name="r" unicode="r" horiz-adv-x="404" 
d="M329 453h-43l-55 -26l-41 -46l-22 -48v-333h-83v527h83v-61l38 37l68 32h65l50 -14l-20 -79z" />
    <glyph glyph-name="s" unicode="s" horiz-adv-x="498" 
d="M171 335l28 -14l153 -30l57 -38l39 -64v-85l-38 -58l-48 -34l-68 -20h-89l-85 22l-47 37l-23 26l58 56l19 -23l27 -21l62 -16h67l42 12l25 18l16 25v38l-17 29l-30 21l-144 29l-64 34l-42 58v89l33 57l45 35l62 17h85l82 -22l60 -41l-45 -67l-48 33l-56 17h-67l-38 -11
l-17 -14l-14 -24v-44z" />
    <glyph glyph-name="t" unicode="t" horiz-adv-x="414" 
d="M203 514h138v-82h-138v-308l25 -36l36 -14h28l71 18l21 -79l-93 -21h-46l-70 26l-55 79v335h-95v82h95v184h83v-184z" />
    <glyph glyph-name="u" unicode="u" horiz-adv-x="581" 
d="M306 73l71 47l31 43v364h83v-527h-82v53l-26 -23l-66 -38h-81l-91 24l-65 84v427h83v-397l29 -42l57 -15h57z" />
    <glyph glyph-name="v" unicode="v" horiz-adv-x="534" 
d="M20 527h88l159 -408l159 408h88l-209 -527h-76z" />
    <glyph glyph-name="w" unicode="w" horiz-adv-x="768" 
d="M350 507h68l130 -369l108 389h87l-153 -527h-78l-128 368l-128 -368h-78l-153 527h87l108 -389z" />
    <glyph glyph-name="x" unicode="x" horiz-adv-x="552" 
d="M130 0h-105l200 264l-198 263h104l145 -196l145 196h104l-198 -263l200 -264h-105l-146 198z" />
    <glyph glyph-name="y" unicode="y" horiz-adv-x="552" 
d="M277 168l158 359h92l-311 -689h-89l105 232l-207 457h94z" />
    <glyph glyph-name="z" unicode="z" horiz-adv-x="503" 
d="M50 0v66l287 380h-272v81h383v-66l-285 -379h290v-82h-403z" />
    <glyph glyph-name="braceleft" unicode="{" horiz-adv-x="413" 
d="M353 701h-98l-24 -14l-12 -26v-267l-86 -86l86 -86v-304l12 -26l24 -14h98v-80h-125l-59 32l-32 61v298l-97 99v36l97 99v265l32 61l59 32h125v-80z" />
    <glyph glyph-name="bar" unicode="|" horiz-adv-x="313" 
d="M193 -182h-73v956h73v-956z" />
    <glyph glyph-name="braceright" unicode="}" horiz-adv-x="413" 
d="M60 781h125l59 -32l32 -61v-265l97 -99v-36l-97 -99v-298l-32 -61l-59 -32h-125v80h98l24 14l12 26v304l86 86l-86 86v267l-12 26l-24 14h-98v80z" />
    <glyph glyph-name="asciitilde" unicode="~" horiz-adv-x="665" 
d="M595 337l-62 -33l-69 -17h-52l-62 14l-63 21l-50 8h-26l-52 -13l-51 -27l-38 72l63 33l67 17h43l65 -10l67 -23l42 -10h40l43 11l55 29z" />
    <glyph glyph-name="exclamdown" unicode="&#xa1;" horiz-adv-x="279" 
d="M181 316v-500h-83v500h83zM80 527h119v-123h-119v123z" />
    <glyph glyph-name="cent" unicode="&#xa2;" 
d="M489 387l-51 52l-45 14h-82l-56 -30q-11 -16 -22 -30t-24 -32l-15 -50v-96l16 -50l45 -62l63 -29h76l44 14l51 52l59 -59l-64 -64l-78 -25h-12v-99h-83v99h-13l-100 48l-65 90l-22 73v119l22 75l65 90l100 48h13v103h83v-103h12l78 -25l65 -66z" />
    <glyph glyph-name="sterling" unicode="&#xa3;" 
d="M133 -6l-18 78l41 11l56 40l34 65v59l-27 73h-112v72h85l-20 52l-14 86l17 96l63 64l88 29h97l79 -48l47 -66l-69 -46l-37 52l-43 26h-63l-54 -19l-31 -32l-10 -57l11 -65l27 -72h187v-72h-160l22 -58v-95l-34 -63l57 -30h73l69 14l53 26l38 -74l-67 -32l-86 -16h-101
l-93 51l-51 -36z" />
    <glyph glyph-name="currency" unicode="&#xa4;" 
d="M543 261l-29 -39l73 -73l-58 -58l-73 73l-36 -26l-71 -22h-58l-71 22l-36 26l-73 -73l-58 58l73 73l-29 39l-21 68v58l21 68l29 39l-73 73l58 58l73 -73l36 26l71 22h58l71 -22l36 -26l73 73l58 -58l-73 -73l29 -39l21 -68v-58zM481 377l-15 49l-37 47l-44 30l-49 15h-32
l-49 -15l-44 -30l-37 -47l-15 -49v-38l15 -49l37 -47l44 -30l49 -15h32l49 15l44 30l37 47l15 49v38z" />
    <glyph glyph-name="yen" unicode="&#xa5;" 
d="M382 390l-21 -32v-36h169v-68h-169v-254h-82v254h-169v68h169v36l-21 32h-148v68h103l-166 253h98l175 -269l175 269h98l-167 -253h104v-68h-148z" />
    <glyph glyph-name="brokenbar" unicode="&#xa6;" horiz-adv-x="313" 
d="M193 384h-73v390h73v-390zM193 -182h-73v390h73v-390z" />
    <glyph glyph-name="section" unicode="&#xa7;" horiz-adv-x="549" 
d="M95 545l25 78l61 66l82 30h58l85 -27l64 -53l-49 -60l-54 45l-58 18h-32l-51 -18l-36 -41l-15 -42l11 -36l233 -168l57 -56l23 -65v-91l-25 -49l-24 -23l13 -67l-26 -65l-59 -68l-82 -30h-68l-85 27l-64 53l49 60l54 -45l58 -18h42l51 18l35 35l15 39l-8 33l-240 178
l-55 59l-20 60v65l29 51l30 23zM183 412l-36 -25l-9 -16v-37l11 -32l38 -41l207 -153l15 10l12 26v60l-12 34l-41 39z" />
    <glyph glyph-name="dieresis" unicode="&#xa8;" horiz-adv-x="415" 
d="M40 754h110v-115h-110v115zM265 754h110v-115h-110v115z" />
    <glyph glyph-name="copyright" unicode="&#xa9;" horiz-adv-x="842" 
d="M544 191l-27 -19l-58 -24h-63l-60 26l-38 40l-25 51l-11 49v83l11 50l25 51l39 39l59 26h63l58 -24l27 -19l21 -27l-53 -51l-18 24l-13 11l-36 14h-35l-30 -14l-22 -23l-14 -29l-9 -34v-71l9 -34l14 -29l22 -23l30 -14h35l36 14l13 11l18 24l53 -51zM724 398l-31 92
l-60 82l-81 56l-90 31h-82l-90 -31l-81 -56l-60 -82l-31 -92v-85l31 -92l60 -82l81 -56l90 -31h82l90 31l81 56l60 82l31 92v85zM792 300l-37 -109l-75 -103l-98 -67l-107 -37h-108l-107 37l-98 67l-75 103l-37 109v111l37 109l75 103l98 67l107 37h108l107 -37l98 -67
l75 -103l37 -109v-111z" />
    <glyph glyph-name="ordfeminine" unicode="&#xaa;" horiz-adv-x="390" 
d="M253 468l-21 15l-35 11h-22l-33 -9l-23 -22l-6 -19v-12l11 -18l10 -7l31 -9h20l45 22l23 24v24zM261 372l-7 -8l-55 -28h-42l-42 13l-33 17l-32 49v36l12 44l47 46l60 15h38l40 -14l6 -3v38l-5 11l-17 12l-26 7h-35l-33 -7l-12 -7l-16 -13l-43 41l18 20l28 15l54 13h44
l41 -10l49 -32l16 -42v-183l24 -35l-51 -36z" />
    <glyph glyph-name="guillemotleft" unicode="&#xab;" horiz-adv-x="538" 
d="M128 311l127 -172l-64 -52l-146 198v52l146 198l64 -52zM341 311l127 -172l-64 -52l-146 198v52l146 198l64 -52z" />
    <glyph glyph-name="logicalnot" unicode="&#xac;" horiz-adv-x="600" 
d="M510 378v-300h-78v222h-362v78h440z" />
    <glyph glyph-name="softhyphen" unicode="&#xad;" horiz-adv-x="480" 
d="M70 348h340v-78h-340v78z" />
    <glyph glyph-name="registered" unicode="&#xae;" horiz-adv-x="842" 
d="M792 300l-37 -109l-75 -103l-98 -67l-107 -37h-108l-107 37l-98 67l-75 103l-37 109v111l37 109l75 103l98 67l107 37h108l107 -37l98 -67l75 -103l37 -109v-111zM724 398l-31 92l-60 82l-81 56l-90 31h-82l-90 -31l-81 -56l-60 -82l-31 -92v-85l31 -92l60 -82l81 -56
l90 -31h82l90 31l81 56l60 82l31 92v85zM298 150v411h171l54 -13l43 -44l16 -60l-15 -59l-28 -41l-35 -18l80 -176h-81l-74 165h-58v-165h-73zM371 387h96l23 14l9 14l7 28l-7 22l-15 17l-22 7h-91v-102z" />
    <glyph glyph-name="macron" unicode="&#xaf;" horiz-adv-x="428" 
d="M388 722v-77h-348v77h348z" />
    <glyph glyph-name="degree" unicode="&#xb0;" horiz-adv-x="454" 
d="M377 517l-14 -33l-19 -27l-41 -33l-33 -14l-26 -6h-34l-26 6l-33 14l-41 33l-19 27l-14 33l-7 28v33l7 28l14 33l19 27l41 33l33 14l26 6h34l26 -6l33 -14l41 -33l19 -27l14 -33l7 -28v-33zM312 590l-8 17l-13 16l-24 19l-17 7l-15 3h-16l-15 -3l-17 -7l-24 -19l-13 -16
l-8 -17l-4 -18v-21l4 -18l8 -17l13 -16l24 -19l17 -7l15 -3h16l15 3l17 7l24 19l13 16l8 17l4 18v21z" />
    <glyph glyph-name="plusminus" unicode="&#xb1;" horiz-adv-x="580" 
d="M251 139v161h-181v78h181v181h78v-181h181v-78h-181v-161h-78zM70 78h440v-78h-440v78z" />
    <glyph glyph-name="twosuperior" unicode="&#xb2;" horiz-adv-x="335" 
d="M50 699l35 36l57 24h61l59 -28l38 -57v-55l-24 -47l-111 -110h140v-68h-248v56l159 156l14 28v19l-17 26l-26 12h-31l-28 -12l-28 -29z" />
    <glyph glyph-name="threesuperior" unicode="&#xb3;" horiz-adv-x="337" 
d="M114 567v49l55 72h-110v66h205v-47l-64 -86l34 -13l36 -35l17 -42v-37l-17 -46l-33 -34l-58 -25h-58l-55 21l-36 36l50 49l28 -28l26 -12h30l31 13l15 16l8 19v17l-6 15l-19 19l-37 13h-42z" />
    <glyph glyph-name="acute" unicode="&#xb4;" horiz-adv-x="302" 
d="M40 660l179 127l43 -61l-179 -127z" />
    <glyph glyph-name="uni00B5" unicode="&#xb5;" horiz-adv-x="585" 
d="M175 -162h-83v689h83v-397l29 -42l57 -15h57l71 47l31 43v364h83v-527h-82v53l-26 -23l-66 -38h-81l-73 21v-175z" />
    <glyph glyph-name="paragraph" unicode="&#xb6;" horiz-adv-x="580" 
d="M209 -162v483h-33l-74 27l-62 71l-23 64v66l23 64l62 71l74 27h367v-72h-85v-801h-73v801h-103v-801h-73zM209 639h-20l-44 -15l-40 -48l-15 -38v-45l14 -37l42 -48l44 -15h19v246z" />
    <glyph glyph-name="periodcentered" unicode="&#xb7;" horiz-adv-x="279" 
d="M80 401h119v-123h-119v123z" />
    <glyph glyph-name="cedilla" unicode="&#xb8;" horiz-adv-x="249" 
d="M94 16l53 -14l-10 -37l50 -8l22 -52l-29 -60l-61 -26h-44l-35 17l25 53l22 -8h29l17 9l8 23l-77 17z" />
    <glyph glyph-name="onesuperior" unicode="&#xb9;" horiz-adv-x="241" 
d="M10 685l145 69h36v-360h-71v271l-80 -37z" />
    <glyph glyph-name="ordmasculine" unicode="&#xba;" horiz-adv-x="376" 
d="M154 336l-60 28l-32 49l-12 53v73l12 53l33 48l59 29h68l59 -29l33 -48l12 -53v-73l-12 -53l-32 -49l-60 -28h-68zM210 398l29 14l16 23l8 36v60l-6 32l-19 29l-31 15h-39l-30 -15l-18 -26l-7 -35v-58l8 -38l16 -23l30 -14h43z" />
    <glyph glyph-name="guillemotright" unicode="&#xbb;" horiz-adv-x="538" 
d="M283 483l64 52l146 -198v-52l-146 -198l-64 52l127 172zM70 483l64 52l146 -198v-52l-146 -198l-64 52l127 172z" />
    <glyph glyph-name="onequarter" unicode="&#xbc;" horiz-adv-x="700" 
d="M81 22l503 704l51 -37l-503 -704zM27 647l145 69h36v-360h-71v271l-80 -37zM673 152v-65h-51v-87h-69v87h-154v47l164 226h59v-208h51zM553 236l-59 -84h59v84z" />
    <glyph glyph-name="onehalf" unicode="&#xbd;" horiz-adv-x="700" 
d="M27 647l145 69h36v-360h-71v271l-80 -37zM80 22l503 704l51 -37l-503 -704zM428 305l35 36l57 24h61l59 -28l38 -57v-55l-24 -47l-111 -110h140v-68h-248v56l159 156l14 28v19l-17 26l-26 12h-31l-28 -12l-28 -29z" />
    <glyph glyph-name="threequarters" unicode="&#xbe;" horiz-adv-x="700" 
d="M109 524v49l55 72h-110v66h205v-47l-64 -86l34 -13l36 -35l17 -42v-37l-17 -46l-33 -34l-58 -25h-58l-55 21l-36 36l50 49l28 -28l26 -12h30l31 13l15 16l8 19v17l-6 15l-19 19l-37 13h-42zM132 22l503 704l51 -37l-503 -704zM678 152v-65h-51v-87h-69v87h-154v47
l164 226h59v-208h51zM558 236l-59 -84h59v84z" />
    <glyph glyph-name="questiondown" unicode="&#xbf;" horiz-adv-x="562" 
d="M188 59l-16 -34l-8 -44l11 -45l24 -27l52 -19h52l50 14l30 25l9 17l9 53l81 -14l-11 -62l-21 -46l-59 -47l-75 -22h-80l-82 32l-55 53l-19 86l13 72l28 56l81 66l43 68v75h83v-102l-58 -89zM346 404h-119v123h119v-123z" />
    <glyph glyph-name="Agrave" unicode="&#xc0;" horiz-adv-x="624" 
d="M345 711l259 -711h-88l-76 214h-256l-76 -214h-88l259 711h66zM412 295l-100 291l-100 -291h200zM177 863l36 65l194 -107l-36 -65z" />
    <glyph glyph-name="Aacute" unicode="&#xc1;" horiz-adv-x="624" 
d="M345 711l259 -711h-88l-76 214h-256l-76 -214h-88l259 711h66zM412 295l-100 291l-100 -291h200zM253 756l-36 65l194 107l36 -65z" />
    <glyph glyph-name="Acircumflex" unicode="&#xc2;" horiz-adv-x="624" 
d="M345 711l259 -711h-88l-76 214h-256l-76 -214h-88l259 711h66zM412 295l-100 291l-100 -291h200zM338 931l149 -120l-47 -57l-128 105l-128 -105l-47 57l149 120h52z" />
    <glyph glyph-name="Atilde" unicode="&#xc3;" horiz-adv-x="624" 
d="M345 711l259 -711h-88l-76 214h-256l-76 -214h-88l259 711h66zM412 295l-100 291l-100 -291h200zM259 811h-17l-25 -9l-17 -18l-6 -20l-65 22l10 32l15 26l25 18l50 23h42l44 -18l39 -23l12 -5h17l24 11l18 15l6 20l65 -22l-10 -32l-15 -26l-25 -19l-51 -22h-37l-39 15
l-44 27z" />
    <glyph glyph-name="Adieresis" unicode="&#xc4;" horiz-adv-x="624" 
d="M345 711l259 -711h-88l-76 214h-256l-76 -214h-88l259 711h66zM412 295l-100 291l-100 -291h200zM147 915h106v-109h-106v109zM372 915h106v-109h-106v109z" />
    <glyph glyph-name="Aring" unicode="&#xc5;" horiz-adv-x="624" 
d="M345 711l259 -711h-88l-76 214h-256l-76 -214h-88l259 711h66zM412 295l-100 291l-100 -291h200zM369 864l-7 21l-17 18l-22 8h-21l-22 -8l-17 -18l-7 -21v-22l7 -21l17 -18l22 -8h21l22 8l17 18l7 21v22zM420 834l-13 -35l-35 -40l-41 -15h-37l-41 15l-36 40l-12 35v38
l12 35l36 40l41 15h37l41 -15l35 -40l13 -35v-38z" />
    <glyph glyph-name="AE" unicode="&#xc6;" horiz-adv-x="835" 
d="M404 296v335l-160 -335h160zM404 214h-198l-101 -214h-90l345 711h435v-82h-308v-210h196v-82h-196v-255h308v-82h-391v214z" />
    <glyph glyph-name="Ccedilla" unicode="&#xc7;" 
d="M289 -6l-104 45l-67 68l-44 89l-19 86v147l19 88l44 89l69 67l105 46h110l104 -41l45 -35l39 -46l-59 -56l-35 39l-31 25l-75 32h-84l-71 -32l-48 -48l-34 -67l-15 -67v-134l15 -67l34 -66l47 -48l72 -34h84l76 32l31 25l34 39l59 -56l-39 -46l-45 -35l-104 -41h-55
l-7 -27l50 -8l22 -52l-29 -60l-61 -26h-44l-35 17l25 53l22 -8h29l17 9l8 23l-77 17z" />
    <glyph glyph-name="Egrave" unicode="&#xc8;" horiz-adv-x="581" 
d="M178 629v-210h251v-82h-251v-255h363v-82h-446v711h446v-82h-363zM183 863l36 65l194 -107l-36 -65z" />
    <glyph glyph-name="Eacute" unicode="&#xc9;" horiz-adv-x="581" 
d="M178 629v-210h251v-82h-251v-255h363v-82h-446v711h446v-82h-363zM259 756l-36 65l194 107l36 -65z" />
    <glyph glyph-name="Ecircumflex" unicode="&#xca;" horiz-adv-x="581" 
d="M178 629v-210h251v-82h-251v-255h363v-82h-446v711h446v-82h-363zM344 931l149 -120l-47 -57l-128 105l-128 -105l-47 57l149 120h52z" />
    <glyph glyph-name="Edieresis" unicode="&#xcb;" horiz-adv-x="581" 
d="M178 629v-210h251v-82h-251v-255h363v-82h-446v711h446v-82h-363zM153 915h106v-109h-106v109zM378 915h106v-109h-106v109z" />
    <glyph glyph-name="Igrave" unicode="&#xcc;" horiz-adv-x="273" 
d="M178 0h-83v711h83v-711zM1 863l36 65l194 -107l-36 -65z" />
    <glyph glyph-name="Iacute" unicode="&#xcd;" horiz-adv-x="273" 
d="M178 0h-83v711h83v-711zM77 756l-36 65l194 107l36 -65z" />
    <glyph glyph-name="Icircumflex" unicode="&#xce;" horiz-adv-x="273" 
d="M178 0h-83v711h83v-711zM162 931l149 -120l-47 -57l-128 105l-128 -105l-47 57l149 120h52z" />
    <glyph glyph-name="Idieresis" unicode="&#xcf;" horiz-adv-x="273" 
d="M178 0h-83v711h83v-711zM-29 915h106v-109h-106v109zM196 915h106v-109h-106v109z" />
    <glyph glyph-name="Eth" unicode="&#xd0;" horiz-adv-x="683" 
d="M115 324h-72v73h72v314h261l112 -44l69 -70l44 -88l22 -88v-131l-22 -88l-44 -88l-69 -70l-112 -44h-261v324zM198 324v-242h162l82 34l46 47l33 65l19 72v111l-18 72l-34 65l-47 48l-80 33h-163v-232h168v-73h-168z" />
    <glyph glyph-name="Ntilde" unicode="&#xd1;" horiz-adv-x="738" 
d="M95 711h71l394 -576v576h83v-711h-89l-376 552v-552h-83v711zM316 811h-17l-25 -9l-17 -18l-6 -20l-65 22l10 32l15 26l25 18l50 23h42l44 -18l39 -23l12 -5h17l24 11l18 15l6 20l65 -22l-10 -32l-15 -26l-25 -19l-51 -22h-37l-39 15l-44 27z" />
    <glyph glyph-name="Ograve" unicode="&#xd2;" horiz-adv-x="704" 
d="M297 -8l-107 47l-67 68l-44 89l-19 86v147l19 88l44 89l69 67l105 46h110l105 -46l69 -67l44 -89l19 -88v-147l-19 -86l-44 -89l-67 -68l-107 -47h-110zM313 74h80l72 34l47 48l34 66l15 67v134l-15 67l-34 67l-48 48l-71 32h-82l-71 -32l-48 -48l-34 -67l-15 -68v-134
l15 -65l34 -67l47 -48zM217 863l36 65l194 -107l-36 -65z" />
    <glyph glyph-name="Oacute" unicode="&#xd3;" horiz-adv-x="704" 
d="M297 -8l-107 47l-67 68l-44 89l-19 86v147l19 88l44 89l69 67l105 46h110l105 -46l69 -67l44 -89l19 -88v-147l-19 -86l-44 -89l-67 -68l-107 -47h-110zM313 74h80l72 34l47 48l34 66l15 67v134l-15 67l-34 67l-48 48l-71 32h-82l-71 -32l-48 -48l-34 -67l-15 -68v-134
l15 -65l34 -67l47 -48zM293 756l-36 65l194 107l36 -65z" />
    <glyph glyph-name="Ocircumflex" unicode="&#xd4;" horiz-adv-x="704" 
d="M297 -8l-107 47l-67 68l-44 89l-19 86v147l19 88l44 89l69 67l105 46h110l105 -46l69 -67l44 -89l19 -88v-147l-19 -86l-44 -89l-67 -68l-107 -47h-110zM313 74h80l72 34l47 48l34 66l15 67v134l-15 67l-34 67l-48 48l-71 32h-82l-71 -32l-48 -48l-34 -67l-15 -68v-134
l15 -65l34 -67l47 -48zM383 931l149 -120l-47 -57l-128 105l-128 -105l-47 57l149 120h52z" />
    <glyph glyph-name="Otilde" unicode="&#xd5;" horiz-adv-x="704" 
d="M297 -8l-107 47l-67 68l-44 89l-19 86v147l19 88l44 89l69 67l105 46h110l105 -46l69 -67l44 -89l19 -88v-147l-19 -86l-44 -89l-67 -68l-107 -47h-110zM313 74h80l72 34l47 48l34 66l15 67v134l-15 67l-34 67l-48 48l-71 32h-82l-71 -32l-48 -48l-34 -67l-15 -68v-134
l15 -65l34 -67l47 -48zM304 811h-17l-25 -9l-17 -18l-6 -20l-65 22l10 32l15 26l25 18l50 23h42l44 -18l39 -23l12 -5h17l24 11l18 15l6 20l65 -22l-10 -32l-15 -26l-25 -19l-51 -22h-37l-39 15l-44 27z" />
    <glyph glyph-name="Odieresis" unicode="&#xd6;" horiz-adv-x="704" 
d="M297 -8l-107 47l-67 68l-44 89l-19 86v147l19 88l44 89l69 67l105 46h110l105 -46l69 -67l44 -89l19 -88v-147l-19 -86l-44 -89l-67 -68l-107 -47h-110zM313 74h80l72 34l47 48l34 66l15 67v134l-15 67l-34 67l-48 48l-71 32h-82l-71 -32l-48 -48l-34 -67l-15 -68v-134
l15 -65l34 -67l47 -48zM187 915h106v-109h-106v109zM412 915h106v-109h-106v109z" />
    <glyph glyph-name="multiply" unicode="&#xd7;" horiz-adv-x="580" 
d="M75 179l160 160l-160 160l55 55l160 -160l160 160l55 -55l-160 -160l160 -160l-55 -55l-160 160l-160 -160z" />
    <glyph glyph-name="Oslash" unicode="&#xd8;" horiz-adv-x="704" 
d="M297 -8l-107 47l-4 4l-65 -102l-58 38l73 114l-13 14l-44 89l-19 86v147l19 88l44 89l69 67l105 46h110l101 -45l61 96l58 -38l-68 -106l22 -20l44 -89l19 -88v-147l-19 -86l-44 -89l-67 -68l-107 -47h-110zM313 74h80l72 34l47 48l34 66l15 67v134l-15 67l-33 64
l-281 -439l7 -7zM158 223l27 -54l278 436l-70 32h-82l-71 -32l-48 -48l-34 -67l-15 -68v-134z" />
    <glyph glyph-name="Ugrave" unicode="&#xd9;" horiz-adv-x="709" 
d="M310 -8l-128 47l-70 93l-22 71v508h83v-497l13 -45l48 -63l89 -32h63l89 32l48 63l13 45v497h83v-508l-22 -71l-70 -93l-128 -47h-89zM219 863l36 65l194 -107l-36 -65z" />
    <glyph glyph-name="Uacute" unicode="&#xda;" horiz-adv-x="709" 
d="M310 -8l-128 47l-70 93l-22 71v508h83v-497l13 -45l48 -63l89 -32h63l89 32l48 63l13 45v497h83v-508l-22 -71l-70 -93l-128 -47h-89zM295 756l-36 65l194 107l36 -65z" />
    <glyph glyph-name="Ucircumflex" unicode="&#xdb;" horiz-adv-x="709" 
d="M310 -8l-128 47l-70 93l-22 71v508h83v-497l13 -45l48 -63l89 -32h63l89 32l48 63l13 45v497h83v-508l-22 -71l-70 -93l-128 -47h-89zM380 931l149 -120l-47 -57l-128 105l-128 -105l-47 57l149 120h52z" />
    <glyph glyph-name="Udieresis" unicode="&#xdc;" horiz-adv-x="709" 
d="M310 -8l-128 47l-70 93l-22 71v508h83v-497l13 -45l48 -63l89 -32h63l89 32l48 63l13 45v497h83v-508l-22 -71l-70 -93l-128 -47h-89zM189 915h106v-109h-106v109zM414 915h106v-109h-106v109z" />
    <glyph glyph-name="Yacute" unicode="&#xdd;" horiz-adv-x="566" 
d="M458 711h98l-232 -353v-358h-82v358l-232 353h98l175 -269zM224 756l-36 65l194 107l36 -65z" />
    <glyph glyph-name="Thorn" unicode="&#xde;" horiz-adv-x="607" 
d="M391 589l93 -24l74 -74l29 -101l-27 -98l-49 -72l-92 -46h-241v-174h-83v711h83v-122h213zM178 256h217l60 29l29 43l17 59l-17 60l-43 43l-59 17h-204v-251z" />
    <glyph glyph-name="germandbls" unicode="&#xdf;" horiz-adv-x="600" 
d="M376 0h-107v82h86l58 29l29 30l22 83l-14 51l-28 37l-70 43h-83v82h35l56 35l23 25l14 42l-13 58l-29 32l-70 19l-49 -7l-40 -36l-23 -52v-605h-83v622l36 83l75 66l94 12l107 -30l58 -66l24 -101l-24 -74l-19 -23l-30 -21l68 -43l48 -63l23 -86l-33 -123l-53 -56z" />
    <glyph glyph-name="agrave" unicode="&#xe0;" horiz-adv-x="565" 
d="M387 145l10 31v37l-21 22l-31 16l-49 14h-45l-66 -18l-39 -39l-8 -35v-27l31 -44l23 -14l47 -14h32l75 28zM74 459l28 26l48 31l64 19h93l72 -18l74 -50l27 -68v-303l39 -56l-67 -48l-48 72l-23 -26l-92 -46h-62l-68 21l-48 28l-56 81v58l14 68l74 74l99 25h64l67 -22
l24 -17v76l-11 30l-42 27l-49 12h-71l-43 -14l-31 -20l-19 -19zM333 599l-179 127l43 61l179 -127z" />
    <glyph glyph-name="aacute" unicode="&#xe1;" horiz-adv-x="565" 
d="M387 145l10 31v37l-21 22l-31 16l-49 14h-45l-66 -18l-39 -39l-8 -35v-27l31 -44l23 -14l47 -14h32l75 28zM74 459l28 26l48 31l64 19h93l72 -18l74 -50l27 -68v-303l39 -56l-67 -48l-48 72l-23 -26l-92 -46h-62l-68 21l-48 28l-56 81v58l14 68l74 74l99 25h64l67 -22
l24 -17v76l-11 30l-42 27l-49 12h-71l-43 -14l-31 -20l-19 -19zM194 660l179 127l43 -61l-179 -127z" />
    <glyph glyph-name="acircumflex" unicode="&#xe2;" horiz-adv-x="565" 
d="M387 145l10 31v37l-21 22l-31 16l-49 14h-45l-66 -18l-39 -39l-8 -35v-27l31 -44l23 -14l47 -14h32l75 28zM74 459l28 26l48 31l64 19h93l72 -18l74 -50l27 -68v-303l39 -56l-67 -48l-48 72l-23 -26l-92 -46h-62l-68 21l-48 28l-56 81v58l14 68l74 74l99 25h64l67 -22
l24 -17v76l-11 30l-42 27l-49 12h-71l-43 -14l-31 -20l-19 -19zM408 614l-123 101l-123 -101l-47 57l144 116h52l144 -116z" />
    <glyph glyph-name="atilde" unicode="&#xe3;" horiz-adv-x="565" 
d="M387 145l10 31v37l-21 22l-31 16l-49 14h-45l-66 -18l-39 -39l-8 -35v-27l31 -44l23 -14l47 -14h32l75 28zM74 459l28 26l48 31l64 19h93l72 -18l74 -50l27 -68v-303l39 -56l-67 -48l-48 72l-23 -26l-92 -46h-62l-68 21l-48 28l-56 81v58l14 68l74 74l99 25h64l67 -22
l24 -17v76l-11 30l-42 27l-49 12h-71l-43 -14l-31 -20l-19 -19zM92 648l14 32l42 38l52 21h49l39 -15l39 -24l23 -8h17l19 7l12 11l10 27l70 -19l-9 -35l-14 -25l-31 -26l-40 -16l-46 -2l-43 15l-53 33h-28l-26 -11l-18 -16l-6 -15z" />
    <glyph glyph-name="adieresis" unicode="&#xe4;" horiz-adv-x="565" 
d="M387 145l10 31v37l-21 22l-31 16l-49 14h-45l-66 -18l-39 -39l-8 -35v-27l31 -44l23 -14l47 -14h32l75 28zM74 459l28 26l48 31l64 19h93l72 -18l74 -50l27 -68v-303l39 -56l-67 -48l-48 72l-23 -26l-92 -46h-62l-68 21l-48 28l-56 81v58l14 68l74 74l99 25h64l67 -22
l24 -17v76l-11 30l-42 27l-49 12h-71l-43 -14l-31 -20l-19 -19zM118 754h110v-115h-110v115zM343 754h110v-115h-110v115z" />
    <glyph glyph-name="aring" unicode="&#xe5;" horiz-adv-x="565" 
d="M387 145l10 31v37l-21 22l-31 16l-49 14h-45l-66 -18l-39 -39l-8 -35v-27l31 -44l23 -14l47 -14h32l75 28zM74 459l28 26l48 31l64 19h93l72 -18l74 -50l27 -68v-303l39 -56l-67 -48l-48 72l-23 -26l-92 -46h-62l-68 21l-48 28l-56 81v58l14 68l74 74l99 25h64l67 -22
l24 -17v76l-11 30l-42 27l-49 12h-71l-43 -14l-31 -20l-19 -19zM405 704l-14 -39l-37 -43l-48 -18h-41l-48 18l-37 43l-14 39v42l14 39l37 43l48 18h41l48 -18l37 -43l14 -39v-42zM320 672l19 21l6 18v28l-6 18l-19 21l-22 9h-25l-22 -9l-19 -21l-6 -18v-28l6 -18l19 -21
l22 -9h25z" />
    <glyph glyph-name="ae" unicode="&#xe6;" horiz-adv-x="886" 
d="M381 38l-92 -46h-62l-68 21l-48 28l-56 81v58l14 68l74 74l99 25h64l58 -19l19 67l7 10l-4 9l-42 27l-49 12h-71l-43 -14l-31 -20l-19 -19l-57 59l28 26l48 31l64 19h93l72 -18l62 -42l10 12l100 48h89l101 -48l67 -92l23 -67v-105h-386v-10l13 -44l48 -65l61 -30h60
l68 17l52 33l44 -66l-65 -43l-92 -23h-83l-100 48l-31 42zM748 305v13l-13 38l-48 65l-61 32h-62l-60 -31l-47 -64l-12 -44v-9h303zM362 203v40l-17 8l-49 14h-45l-66 -18l-39 -39l-8 -35v-27l31 -44l23 -14l47 -14h32l75 28l35 37z" />
    <glyph glyph-name="ccedilla" unicode="&#xe7;" horiz-adv-x="513" 
d="M228 0l-84 40l-68 92l-21 71v119l21 73l68 92l100 48h85l78 -25l66 -66l-59 -55l-50 50l-45 14h-62l-60 -31l-47 -64l-12 -47v-96l13 -46l48 -65l61 -30h59l43 15l52 49l58 -57l-65 -64l-78 -25h-45l-7 -27l50 -8l22 -52l-29 -60l-61 -26h-44l-35 17l25 53l22 -8h29l17 9
l8 23l-77 17z" />
    <glyph glyph-name="egrave" unicode="&#xe8;" horiz-adv-x="574" 
d="M138 213l13 -44l48 -65l61 -30h60l68 17l52 33l44 -66l-65 -43l-92 -23h-83l-100 48l-68 92l-21 71v119l21 73l68 92l100 48h89l101 -48l67 -92l23 -67v-105h-386v-10zM441 305v13l-13 38l-48 65l-61 32h-62l-60 -31l-47 -64l-12 -44v-9h303zM337 599l-179 127l43 61
l179 -127z" />
    <glyph glyph-name="eacute" unicode="&#xe9;" horiz-adv-x="574" 
d="M138 213l13 -44l48 -65l61 -30h60l68 17l52 33l44 -66l-65 -43l-92 -23h-83l-100 48l-68 92l-21 71v119l21 73l68 92l100 48h89l101 -48l67 -92l23 -67v-105h-386v-10zM441 305v13l-13 38l-48 65l-61 32h-62l-60 -31l-47 -64l-12 -44v-9h303zM198 660l179 127l43 -61
l-179 -127z" />
    <glyph glyph-name="ecircumflex" unicode="&#xea;" horiz-adv-x="574" 
d="M138 213l13 -44l48 -65l61 -30h60l68 17l52 33l44 -66l-65 -43l-92 -23h-83l-100 48l-68 92l-21 71v119l21 73l68 92l100 48h89l101 -48l67 -92l23 -67v-105h-386v-10zM441 305v13l-13 38l-48 65l-61 32h-62l-60 -31l-47 -64l-12 -44v-9h303zM422 614l-123 101l-123 -101
l-47 57l144 116h52l144 -116z" />
    <glyph glyph-name="edieresis" unicode="&#xeb;" horiz-adv-x="574" 
d="M138 213l13 -44l48 -65l61 -30h60l68 17l52 33l44 -66l-65 -43l-92 -23h-83l-100 48l-68 92l-21 71v119l21 73l68 92l100 48h89l101 -48l67 -92l23 -67v-105h-386v-10zM441 305v13l-13 38l-48 65l-61 32h-62l-60 -31l-47 -64l-12 -44v-9h303zM122 754h110v-115h-110v115z
M347 754h110v-115h-110v115z" />
    <glyph glyph-name="igrave" unicode="&#xec;" horiz-adv-x="263" 
d="M90 527h83v-527h-83v527zM179 599l-179 127l43 61l179 -127z" />
    <glyph glyph-name="iacute" unicode="&#xed;" horiz-adv-x="263" 
d="M90 527h83v-527h-83v527zM40 660l179 127l43 -61l-179 -127z" />
    <glyph glyph-name="icircumflex" unicode="&#xee;" horiz-adv-x="263" 
d="M90 527h83v-527h-83v527zM254 614l-123 101l-123 -101l-47 57l144 116h52l144 -116z" />
    <glyph glyph-name="idieresis" unicode="&#xef;" horiz-adv-x="263" 
d="M90 527h83v-527h-83v527zM-36 754h110v-115h-110v115zM189 754h110v-115h-110v115z" />
    <glyph glyph-name="eth" unicode="&#xf0;" horiz-adv-x="563" 
d="M464 678l-105 -59l126 -228l23 -105v-113l-26 -64l-48 -69l-96 -48h-115l-94 48l-48 69l-26 64v109l26 64l48 69l94 50h112l36 -21l-80 136l-109 -61l-30 53l108 61l-52 88l72 41l49 -90l105 59zM319 383h-76l-58 -33l-28 -39l-19 -46v-75l20 -47l27 -38l59 -31h74l60 30
l28 41l19 44v86l-20 53l-34 36z" />
    <glyph glyph-name="ntilde" unicode="&#xf1;" horiz-adv-x="586" 
d="M173 475l25 22l66 38h92l89 -24l61 -82v-429h-83v397l-25 39l-59 17h-64l-72 -46l-30 -43v-364h-83v527h83v-52zM105 648l14 32l42 38l52 21h49l39 -15l39 -24l23 -8h17l19 7l12 11l10 27l70 -19l-9 -35l-14 -25l-31 -26l-40 -16l-46 -2l-43 15l-53 33h-28l-26 -11
l-18 -16l-6 -15z" />
    <glyph glyph-name="ograve" unicode="&#xf2;" horiz-adv-x="558" 
d="M318 73l59 29l30 45l13 67v100l-13 65l-31 44l-58 30h-78l-60 -30l-29 -44l-13 -65v-100l13 -67l30 -45l59 -29h78zM226 -8l-101 48l-50 74l-20 90v118l20 90l50 74l101 49h106l101 -49l50 -74l20 -90v-118l-20 -90l-50 -74l-101 -48h-106zM339 599l-179 127l43 61
l179 -127z" />
    <glyph glyph-name="oacute" unicode="&#xf3;" horiz-adv-x="558" 
d="M318 73l59 29l30 45l13 67v100l-13 65l-31 44l-58 30h-78l-60 -30l-29 -44l-13 -65v-100l13 -67l30 -45l59 -29h78zM226 -8l-101 48l-50 74l-20 90v118l20 90l50 74l101 49h106l101 -49l50 -74l20 -90v-118l-20 -90l-50 -74l-101 -48h-106zM170 660l179 127l43 -61
l-179 -127z" />
    <glyph glyph-name="ocircumflex" unicode="&#xf4;" horiz-adv-x="582" 
d="M342 73l59 29l30 45l13 67v100l-13 65l-31 44l-58 30h-78l-60 -30l-29 -44l-13 -65v-100l13 -67l30 -45l59 -29h78zM250 -8l-101 48l-50 74l-20 90v118l20 90l50 74l101 49h106l101 -49l50 -74l20 -90v-118l-20 -90l-50 -74l-101 -48h-106zM426 614l-123 101l-123 -101
l-47 57l144 116h52l144 -116z" />
    <glyph glyph-name="otilde" unicode="&#xf5;" horiz-adv-x="605" 
d="M365 73l59 29l30 45l13 67v100l-13 65l-31 44l-58 30h-78l-60 -30l-29 -44l-13 -65v-100l13 -67l30 -45l59 -29h78zM273 -8l-101 48l-50 74l-20 90v118l20 90l50 74l101 49h106l101 -49l50 -74l20 -90v-118l-20 -90l-50 -74l-101 -48h-106zM133 648l14 32l42 38l52 21h49
l39 -15l39 -24l23 -8h17l19 7l12 11l10 27l70 -19l-9 -35l-14 -25l-31 -26l-40 -16l-46 -2l-43 15l-53 33h-28l-26 -11l-18 -16l-6 -15z" />
    <glyph glyph-name="odieresis" unicode="&#xf6;" horiz-adv-x="579" 
d="M339 73l59 29l30 45l13 67v100l-13 65l-31 44l-58 30h-78l-60 -30l-29 -44l-13 -65v-100l13 -67l30 -45l59 -29h78zM247 -8l-101 48l-50 74l-20 90v118l20 90l50 74l101 49h106l101 -49l50 -74l20 -90v-118l-20 -90l-50 -74l-101 -48h-106zM129 754h110v-115h-110v115z
M354 754h110v-115h-110v115z" />
    <glyph glyph-name="divide" unicode="&#xf7;" horiz-adv-x="580" 
d="M70 378h440v-78h-440v78zM230 228h119v-117h-119v117zM230 567h119v-117h-119v117z" />
    <glyph glyph-name="oslash" unicode="&#xf8;" horiz-adv-x="628" 
d="M296 -8l-62 29l-50 -82l-53 33l52 85l-38 57l-20 90v118l20 90l50 74l101 49h106l59 -29l49 80l52 -32l-50 -82l41 -60l20 -90v-118l-20 -90l-50 -74l-101 -48h-106zM388 73l59 29l30 45l13 67v100l-13 65l-12 17l-189 -307l34 -16h78zM221 147l9 -14l188 304l-30 16h-78
l-60 -30l-29 -44l-13 -65v-100z" />
    <glyph glyph-name="ugrave" unicode="&#xf9;" horiz-adv-x="581" 
d="M306 73l71 47l31 43v364h83v-527h-82v53l-26 -23l-66 -38h-81l-91 24l-65 84v427h83v-397l29 -42l57 -15h57zM333 599l-179 127l43 61l179 -127z" />
    <glyph glyph-name="uacute" unicode="&#xfa;" horiz-adv-x="581" 
d="M306 73l71 47l31 43v364h83v-527h-82v53l-26 -23l-66 -38h-81l-91 24l-65 84v427h83v-397l29 -42l57 -15h57zM194 660l179 127l43 -61l-179 -127z" />
    <glyph glyph-name="ucircumflex" unicode="&#xfb;" horiz-adv-x="581" 
d="M306 73l71 47l31 43v364h83v-527h-82v53l-26 -23l-66 -38h-81l-91 24l-65 84v427h83v-397l29 -42l57 -15h57zM408 614l-123 101l-123 -101l-47 57l144 116h52l144 -116z" />
    <glyph glyph-name="udieresis" unicode="&#xfc;" horiz-adv-x="581" 
d="M306 73l71 47l31 43v364h83v-527h-82v53l-26 -23l-66 -38h-81l-91 24l-65 84v427h83v-397l29 -42l57 -15h57zM118 754h110v-115h-110v115zM343 754h110v-115h-110v115z" />
    <glyph glyph-name="yacute" unicode="&#xfd;" horiz-adv-x="552" 
d="M277 168l158 359h92l-311 -689h-89l105 232l-207 457h94zM185 660l179 127l43 -61l-179 -127z" />
    <glyph glyph-name="thorn" unicode="&#xfe;" horiz-adv-x="594" 
d="M194 497l62 38h90l104 -48l68 -92l21 -71v-119l-21 -73l-68 -92l-100 -48h-89l-60 22l-28 18v-194h-83v813h83v-176zM194 111l38 -25l41 -13h64l59 32l48 64l12 47v97l-12 45l-48 65l-63 30h-66l-65 -46l-29 -43v-227z" />
    <glyph glyph-name="ydieresis" unicode="&#xff;" horiz-adv-x="552" 
d="M277 168l158 359h92l-311 -689h-89l105 232l-207 457h94zM109 754h110v-115h-110v115zM334 754h110v-115h-110v115z" />
    <glyph glyph-name="Amacron" unicode="&#x100;" horiz-adv-x="624" 
d="M345 711l259 -711h-88l-76 214h-256l-76 -214h-88l259 711h66zM412 295l-100 291l-100 -291h200zM486 873v-77h-348v77h348z" />
    <glyph glyph-name="amacron" unicode="&#x101;" horiz-adv-x="565" 
d="M387 145l10 31v37l-21 22l-31 16l-49 14h-45l-66 -18l-39 -39l-8 -35v-27l31 -44l23 -14l47 -14h32l75 28zM74 459l28 26l48 31l64 19h93l72 -18l74 -50l27 -68v-303l39 -56l-67 -48l-48 72l-23 -26l-92 -46h-62l-68 21l-48 28l-56 81v58l14 68l74 74l99 25h64l67 -22
l24 -17v76l-11 30l-42 27l-49 12h-71l-43 -14l-31 -20l-19 -19zM459 722v-77h-348v77h348z" />
    <glyph glyph-name="Abreve" unicode="&#x102;" horiz-adv-x="624" 
d="M345 711l259 -711h-88l-76 214h-256l-76 -214h-88l259 711h66zM412 295l-100 291l-100 -291h200zM345 825l27 23l7 19v18h68v-31l-14 -39l-49 -44l-51 -17h-41l-51 17l-49 44l-14 39v31h68v-18l7 -19l27 -23l25 -8h15z" />
    <glyph glyph-name="abreve" unicode="&#x103;" horiz-adv-x="565" 
d="M387 145l10 31v37l-21 22l-31 16l-49 14h-45l-66 -18l-39 -39l-8 -35v-27l31 -44l23 -14l47 -14h32l75 28zM74 459l28 26l48 31l64 19h93l72 -18l74 -50l27 -68v-303l39 -56l-67 -48l-48 72l-23 -26l-92 -46h-62l-68 21l-48 28l-56 81v58l14 68l74 74l99 25h64l67 -22
l24 -17v76l-11 30l-42 27l-49 12h-71l-43 -14l-31 -20l-19 -19zM420 745v-31l-14 -39l-49 -44l-51 -17h-41l-51 17l-49 44l-14 39v31h64v-23l6 -13l23 -22l28 -10h27l27 10l26 24l4 11v23h64z" />
    <glyph glyph-name="Aogonek" unicode="&#x104;" horiz-adv-x="624" 
d="M345 711l259 -711l-41 -13l-36 -23l-19 -23l-5 -20v-18l10 -13l22 -9h45v-62h-62l-56 25l-27 41v41l10 43l37 42l25 13l-67 190h-256l-76 -214h-88l259 711h66zM412 295l-100 291l-100 -291h200z" />
    <glyph glyph-name="aogonek" unicode="&#x105;" horiz-adv-x="565" 
d="M74 459l28 26l48 31l64 19h93l72 -18l74 -50l27 -68v-303l39 -56l-39 -28l-31 -27l-16 -31l-5 -30v-21l10 -13l22 -9h45v-62h-62l-56 25l-27 41v41l10 43l33 40l27 17l-26 38l-23 -26l-92 -46h-62l-68 21l-48 28l-56 81v58l14 68l74 74l99 25h64l67 -22l24 -17v76l-11 30
l-42 27l-49 12h-71l-43 -14l-31 -20l-19 -19zM387 145l10 31v37l-21 22l-31 16l-49 14h-45l-66 -18l-39 -39l-8 -35v-27l31 -44l23 -14l47 -14h32l75 28z" />
    <glyph glyph-name="Cacute" unicode="&#x106;" 
d="M292 -8l-107 47l-67 68l-44 89l-19 86v147l19 88l44 89l69 67l105 46h110l104 -41l45 -35l39 -46l-59 -56l-35 39l-31 25l-75 32h-84l-71 -32l-48 -48l-34 -67l-15 -67v-134l15 -67l34 -66l47 -48l72 -34h84l76 32l31 25l34 39l59 -56l-39 -46l-45 -35l-104 -41h-110z
M268 756l-36 65l194 107l36 -65z" />
    <glyph glyph-name="cacute" unicode="&#x107;" horiz-adv-x="513" 
d="M364 439l-45 14h-62l-60 -31l-47 -64l-12 -47v-96l13 -46l48 -65l61 -30h59l43 15l52 49l58 -57l-65 -64l-78 -25h-85l-100 48l-68 92l-21 71v119l21 73l68 92l100 48h85l78 -25l66 -66l-59 -55zM183 660l179 127l43 -61l-179 -127z" />
    <glyph glyph-name="Ccircumflex" unicode="&#x108;" 
d="M292 -8l-107 47l-67 68l-44 89l-19 86v147l19 88l44 89l69 67l105 46h110l104 -41l45 -35l39 -46l-59 -56l-35 39l-31 25l-75 32h-84l-71 -32l-48 -48l-34 -67l-15 -67v-134l15 -67l34 -66l47 -48l72 -34h84l76 32l31 25l34 39l59 -56l-39 -46l-45 -35l-104 -41h-110z
M373 931l149 -120l-47 -57l-128 105l-128 -105l-47 57l149 120h52z" />
    <glyph glyph-name="ccircumflex" unicode="&#x109;" horiz-adv-x="513" 
d="M364 439l-45 14h-62l-60 -31l-47 -64l-12 -47v-96l13 -46l48 -65l61 -30h59l43 15l52 49l58 -57l-65 -64l-78 -25h-85l-100 48l-68 92l-21 71v119l21 73l68 92l100 48h85l78 -25l66 -66l-59 -55zM407 614l-123 101l-123 -101l-47 57l144 116h52l144 -116z" />
    <glyph glyph-name="Cdotaccent" unicode="&#x10a;" 
d="M292 -8l-107 47l-67 68l-44 89l-19 86v147l19 88l44 89l69 67l105 46h110l104 -41l45 -35l39 -46l-59 -56l-35 39l-31 25l-75 32h-84l-71 -32l-48 -48l-34 -67l-15 -67v-134l15 -67l34 -66l47 -48l72 -34h84l76 32l31 25l34 39l59 -56l-39 -46l-45 -35l-104 -41h-110z
M288 929h119v-123h-119v123z" />
    <glyph glyph-name="cdotaccent" unicode="&#x10b;" horiz-adv-x="513" 
d="M364 439l-45 14h-62l-60 -31l-47 -64l-12 -47v-96l13 -46l48 -65l61 -30h59l43 15l52 49l58 -57l-65 -64l-78 -25h-85l-100 48l-68 92l-21 71v119l21 73l68 92l100 48h85l78 -25l66 -66l-59 -55zM224 761h120v-122h-120v122z" />
    <glyph glyph-name="Ccaron" unicode="&#x10c;" 
d="M292 -8l-107 47l-67 68l-44 89l-19 86v147l19 88l44 89l69 67l105 46h110l104 -41l45 -35l39 -46l-59 -56l-35 39l-31 25l-75 32h-84l-71 -32l-48 -48l-34 -67l-15 -67v-134l15 -67l34 -66l47 -48l72 -34h84l76 32l31 25l34 39l59 -56l-39 -46l-45 -35l-104 -41h-110z
M321 754l-149 120l47 57l128 -105l128 105l47 -57l-149 -120h-52z" />
    <glyph glyph-name="ccaron" unicode="&#x10d;" horiz-adv-x="513" 
d="M364 439l-45 14h-62l-60 -31l-47 -64l-12 -47v-96l13 -46l48 -65l61 -30h59l43 15l52 49l58 -57l-65 -64l-78 -25h-85l-100 48l-68 92l-21 71v119l21 73l68 92l100 48h85l78 -25l66 -66l-59 -55zM454 730l-144 -116h-52l-144 116l47 57l123 -101l123 101z" />
    <glyph glyph-name="Dcaron" unicode="&#x10e;" horiz-adv-x="663" 
d="M340 82l82 34l46 47l33 65l19 72v111l-18 72l-34 65l-47 48l-80 33h-163v-547h162zM95 711h261l112 -44l69 -70l44 -88l22 -88v-131l-22 -88l-44 -88l-69 -70l-112 -44h-261v711zM303 754l-149 120l47 57l128 -105l128 105l47 -57l-149 -120h-52z" />
    <glyph glyph-name="dcaron" unicode="&#x10f;" horiz-adv-x="683" 
d="M569 647v107h109v-111l-74 -146l-50 29l48 108zM400 30l-62 -38h-90l-104 48l-68 92l-21 71v119l21 73l68 92l100 48h89l60 -22l28 -18v259h83v-754h-82v53zM400 416l-38 25l-41 13h-64l-59 -32l-48 -64l-12 -47v-97l12 -45l48 -65l63 -30h66l65 46l29 43v227z" />
    <glyph glyph-name="Dcroat" unicode="&#x110;" horiz-adv-x="683" 
d="M115 324h-72v73h72v314h261l112 -44l69 -70l44 -88l22 -88v-131l-22 -88l-44 -88l-69 -70l-112 -44h-261v324zM198 324v-242h162l82 34l46 47l33 65l19 72v111l-18 72l-34 65l-47 48l-80 33h-163v-232h168v-73h-168z" />
    <glyph glyph-name="dcroat" unicode="&#x111;" horiz-adv-x="594" 
d="M400 30l-62 -38h-90l-104 48l-68 92l-21 71v119l21 73l68 92l100 48h89l60 -22l28 -18v117h-142v63h142v79h83v-79h75v-63h-75v-612h-82v53zM400 416l-38 25l-41 13h-64l-59 -32l-48 -64l-12 -47v-97l12 -45l48 -65l63 -30h66l65 46l29 43v227z" />
    <glyph glyph-name="Emacron" unicode="&#x112;" horiz-adv-x="581" 
d="M178 629v-210h251v-82h-251v-255h363v-82h-446v711h446v-82h-363zM492 873v-77h-348v77h348z" />
    <glyph glyph-name="emacron" unicode="&#x113;" horiz-adv-x="574" 
d="M138 213l13 -44l48 -65l61 -30h60l68 17l52 33l44 -66l-65 -43l-92 -23h-83l-100 48l-68 92l-21 71v119l21 73l68 92l100 48h89l101 -48l67 -92l23 -67v-105h-386v-10zM441 305v13l-13 38l-48 65l-61 32h-62l-60 -31l-47 -64l-12 -44v-9h303zM463 722v-77h-348v77h348z
" />
    <glyph glyph-name="Ebreve" unicode="&#x114;" horiz-adv-x="581" 
d="M178 629v-210h251v-82h-251v-255h363v-82h-446v711h446v-82h-363zM351 825l27 23l7 19v18h68v-31l-14 -39l-49 -44l-51 -17h-41l-51 17l-49 44l-14 39v31h68v-18l7 -19l27 -23l25 -8h15z" />
    <glyph glyph-name="ebreve" unicode="&#x115;" horiz-adv-x="574" 
d="M138 213l13 -44l48 -65l61 -30h60l68 17l52 33l44 -66l-65 -43l-92 -23h-83l-100 48l-68 92l-21 71v119l21 73l68 92l100 48h89l101 -48l67 -92l23 -67v-105h-386v-10zM441 305v13l-13 38l-48 65l-61 32h-62l-60 -31l-47 -64l-12 -44v-9h303zM429 745v-31l-14 -39
l-49 -44l-51 -17h-41l-51 17l-49 44l-14 39v31h64v-23l6 -13l23 -22l28 -10h27l27 10l26 24l4 11v23h64z" />
    <glyph glyph-name="Edotaccent" unicode="&#x116;" horiz-adv-x="581" 
d="M178 629v-210h251v-82h-251v-255h363v-82h-446v711h446v-82h-363zM259 929h119v-123h-119v123z" />
    <glyph glyph-name="edotaccent" unicode="&#x117;" horiz-adv-x="574" 
d="M138 213l13 -44l48 -65l61 -30h60l68 17l52 33l44 -66l-65 -43l-92 -23h-83l-100 48l-68 92l-21 71v119l21 73l68 92l100 48h89l101 -48l67 -92l23 -67v-105h-386v-10zM441 305v13l-13 38l-48 65l-61 32h-62l-60 -31l-47 -64l-12 -44v-9h303zM234 761h120v-122h-120v122z
" />
    <glyph glyph-name="Eogonek" unicode="&#x118;" horiz-adv-x="581" 
d="M178 629v-210h251v-82h-251v-255h363v-82h-51l-23 -8l-34 -25l-19 -21l-5 -25v-18l10 -13l22 -9h45v-62h-62l-56 25l-27 41v41l10 41l33 33h-289v711h446v-82h-363z" />
    <glyph glyph-name="eogonek" unicode="&#x119;" horiz-adv-x="574" 
d="M138 213l13 -44l48 -65l61 -30h60l68 17l52 33l44 -66l-65 -43l-19 -9l-26 -20l-29 -32l-5 -22v-29l10 -13l22 -9h45v-62h-62l-56 25l-27 41v41l11 41l25 25h-64l-100 48l-68 92l-21 71v119l21 73l68 92l100 48h89l101 -48l67 -92l23 -67v-105h-386v-10zM441 305v13
l-13 38l-48 65l-61 32h-62l-60 -31l-47 -64l-12 -44v-9h303z" />
    <glyph glyph-name="Ecaron" unicode="&#x11a;" horiz-adv-x="581" 
d="M178 629v-210h251v-82h-251v-255h363v-82h-446v711h446v-82h-363zM292 754l-149 120l47 57l128 -105l128 105l47 -57l-149 -120h-52z" />
    <glyph glyph-name="ecaron" unicode="&#x11b;" horiz-adv-x="574" 
d="M138 213l13 -44l48 -65l61 -30h60l68 17l52 33l44 -66l-65 -43l-92 -23h-83l-100 48l-68 92l-21 71v119l21 73l68 92l100 48h89l101 -48l67 -92l23 -67v-105h-386v-10zM441 305v13l-13 38l-48 65l-61 32h-62l-60 -31l-47 -64l-12 -44v-9h303zM469 730l-144 -116h-52
l-144 116l47 57l123 -101l123 101z" />
    <glyph glyph-name="Gcircumflex" unicode="&#x11c;" horiz-adv-x="677" 
d="M503 585l-33 25l-77 27h-82l-71 -32l-48 -48l-34 -67l-15 -67v-134l15 -67l34 -66l47 -48l72 -34h84l57 25l47 41l33 53l7 36v49h-174v82h257v-135l-11 -59l-44 -74l-68 -61l-90 -39h-112l-107 47l-67 68l-44 89l-19 86v147l19 88l44 89l69 67l105 46h110l104 -38l47 -36
l39 -47l-61 -53zM377 931l149 -120l-47 -57l-128 105l-128 -105l-47 57l149 120h52z" />
    <glyph glyph-name="gcircumflex" unicode="&#x11d;" horiz-adv-x="594" 
d="M400 416l-38 25l-41 13h-64l-59 -32l-48 -64l-12 -47v-73l12 -43l46 -63l65 -26h66l65 46l29 47v191zM241 -168l-71 19l-49 32l-28 27l58 59l25 -25l25 -17l48 -13h71l46 17l43 29l12 30v92l-21 -20l-62 -38h-90l-102 40l-70 92l-21 71v95l21 73l68 92l100 48h89l60 -22
l28 -18v32h83v-546l-25 -73l-76 -51l-74 -25h-88zM422 614l-123 101l-123 -101l-47 57l144 116h52l144 -116z" />
    <glyph glyph-name="Gbreve" unicode="&#x11e;" horiz-adv-x="677" 
d="M503 585l-33 25l-77 27h-82l-71 -32l-48 -48l-34 -67l-15 -67v-134l15 -67l34 -66l47 -48l72 -34h84l57 25l47 41l33 53l7 36v49h-174v82h257v-135l-11 -59l-44 -74l-68 -61l-90 -39h-112l-107 47l-67 68l-44 89l-19 86v147l19 88l44 89l69 67l105 46h110l104 -38l47 -36
l39 -47l-61 -53zM384 825l27 23l7 19v18h68v-31l-14 -39l-49 -44l-51 -17h-41l-51 17l-49 44l-14 39v31h68v-18l7 -19l27 -23l25 -8h15z" />
    <glyph glyph-name="gbreve" unicode="&#x11f;" horiz-adv-x="594" 
d="M400 416l-38 25l-41 13h-64l-59 -32l-48 -64l-12 -47v-73l12 -43l46 -63l65 -26h66l65 46l29 47v191zM241 -168l-71 19l-49 32l-28 27l58 59l25 -25l25 -17l48 -13h71l46 17l43 29l12 30v92l-21 -20l-62 -38h-90l-102 40l-70 92l-21 71v95l21 73l68 92l100 48h89l60 -22
l28 -18v32h83v-546l-25 -73l-76 -51l-74 -25h-88zM434 745v-31l-14 -39l-49 -44l-51 -17h-41l-51 17l-49 44l-14 39v31h64v-23l6 -13l23 -22l28 -10h27l27 10l26 24l4 11v23h64z" />
    <glyph glyph-name="Gdotaccent" unicode="&#x120;" horiz-adv-x="677" 
d="M503 585l-33 25l-77 27h-82l-71 -32l-48 -48l-34 -67l-15 -67v-134l15 -67l34 -66l47 -48l72 -34h84l57 25l47 41l33 53l7 36v49h-174v82h257v-135l-11 -59l-44 -74l-68 -61l-90 -39h-112l-107 47l-67 68l-44 89l-19 86v147l19 88l44 89l69 67l105 46h110l104 -38l47 -36
l39 -47l-61 -53zM292 929h119v-123h-119v123z" />
    <glyph glyph-name="gdotaccent" unicode="&#x121;" horiz-adv-x="594" 
d="M400 416l-38 25l-41 13h-64l-59 -32l-48 -64l-12 -47v-73l12 -43l46 -63l65 -26h66l65 46l29 47v191zM241 -168l-71 19l-49 32l-28 27l58 59l25 -25l25 -17l48 -13h71l46 17l43 29l12 30v92l-21 -20l-62 -38h-90l-102 40l-70 92l-21 71v95l21 73l68 92l100 48h89l60 -22
l28 -18v32h83v-546l-25 -73l-76 -51l-74 -25h-88zM239 761h120v-122h-120v122z" />
    <glyph glyph-name="Gcommaaccent" unicode="&#x122;" horiz-adv-x="677" 
d="M503 585l-33 25l-77 27h-82l-71 -32l-48 -48l-34 -67l-15 -67v-134l15 -67l34 -66l47 -48l72 -34h84l57 25l47 41l33 53l7 36v49h-174v82h257v-135l-11 -59l-44 -74l-68 -61l-90 -39h-112l-107 47l-67 68l-44 89l-19 86v147l19 88l44 89l69 67l105 46h110l104 -38l47 -36
l39 -47l-61 -53zM292 -102v77h109v-55l-72 -128l-36 17l35 74z" />
    <glyph glyph-name="gcommaaccent" unicode="&#x123;" horiz-adv-x="594" 
d="M400 416l-38 25l-41 13h-64l-59 -32l-48 -64l-12 -47v-73l12 -43l46 -63l65 -26h66l65 46l29 47v191zM241 -168l-71 19l-49 32l-28 27l58 59l25 -25l25 -17l48 -13h71l46 17l43 29l12 30v92l-21 -20l-62 -38h-90l-102 40l-70 92l-21 71v95l21 73l68 92l100 48h89l60 -22
l28 -18v32h83v-546l-25 -73l-76 -51l-74 -25h-88zM344 658v-77h-109v55l72 128l36 -17l-35 -74z" />
    <glyph glyph-name="Hcircumflex" unicode="&#x124;" horiz-adv-x="679" 
d="M501 419v292h83v-711h-83v337h-323v-337h-83v711h83v-292h323zM365 931l149 -120l-47 -57l-128 105l-128 -105l-47 57l149 120h52z" />
    <glyph glyph-name="hcircumflex" unicode="&#x125;" horiz-adv-x="581" 
d="M90 754h83v-277l24 20l67 38h92l84 -24l61 -82v-429h-83v397l-25 39l-54 17h-64l-70 -46l-32 -47v-360h-83v754zM159 931l149 -120l-47 -57l-128 105l-128 -105l-47 57l149 120h52z" />
    <glyph glyph-name="Hbar" unicode="&#x126;" horiz-adv-x="679" 
d="M584 527v-527h-83v337h-323v-337h-83v527h-73v68h73v116h83v-116h323v116h83v-116h73v-68h-73zM501 419v108h-323v-108h323z" />
    <glyph glyph-name="hbar" unicode="&#x127;" horiz-adv-x="581" 
d="M90 612h-77v63h77v79h83v-79h140v-63h-140v-135l24 20l67 38h92l84 -24l61 -82v-429h-83v397l-25 39l-54 17h-64l-70 -46l-32 -47v-360h-83v612z" />
    <glyph glyph-name="Itilde" unicode="&#x128;" horiz-adv-x="273" 
d="M178 0h-83v711h83v-711zM83 811h-17l-25 -9l-17 -18l-6 -20l-65 22l10 32l15 26l25 18l50 23h42l44 -18l39 -23l12 -5h17l24 11l18 15l6 20l65 -22l-10 -32l-15 -26l-25 -19l-51 -22h-37l-39 15l-44 27z" />
    <glyph glyph-name="itilde" unicode="&#x129;" horiz-adv-x="263" 
d="M90 527h83v-527h-83v527zM-62 648l14 32l42 38l52 21h49l39 -15l39 -24l23 -8h17l19 7l12 11l10 27l70 -19l-9 -35l-14 -25l-31 -26l-40 -16l-46 -2l-43 15l-53 33h-28l-26 -11l-18 -16l-6 -15z" />
    <glyph glyph-name="Imacron" unicode="&#x12a;" horiz-adv-x="273" 
d="M178 0h-83v711h83v-711zM310 873v-77h-348v77h348z" />
    <glyph glyph-name="imacron" unicode="&#x12b;" horiz-adv-x="263" 
d="M90 527h83v-527h-83v527zM305 722v-77h-348v77h348z" />
    <glyph glyph-name="Ibreve" unicode="&#x12c;" horiz-adv-x="273" 
d="M178 0h-83v711h83v-711zM169 825l27 23l7 19v18h68v-31l-14 -39l-49 -44l-51 -17h-41l-51 17l-49 44l-14 39v31h68v-18l7 -19l27 -23l25 -8h15z" />
    <glyph glyph-name="ibreve" unicode="&#x12d;" horiz-adv-x="263" 
d="M90 527h83v-527h-83v527zM266 745v-31l-14 -39l-49 -44l-51 -17h-41l-51 17l-49 44l-14 39v31h64v-23l6 -13l23 -22l28 -10h27l27 10l26 24l4 11v23h64z" />
    <glyph glyph-name="Iogonek" unicode="&#x12e;" horiz-adv-x="273" 
d="M178 0l-41 -13l-36 -23l-19 -23l-5 -20v-18l10 -13l22 -9h45v-62h-62l-56 25l-27 41v41l10 43l43 42l33 14v686h83v-711z" />
    <glyph glyph-name="iogonek" unicode="&#x12f;" horiz-adv-x="263" 
d="M51 11l39 21v495h83v-527l-41 -13l-36 -23l-19 -23l-5 -20v-18l10 -13l22 -9h45v-62h-62l-56 25l-27 41v41l10 43zM72 754h119v-123h-119v123z" />
    <glyph glyph-name="Idotaccent" unicode="&#x130;" horiz-adv-x="273" 
d="M178 0h-83v711h83v-711zM77 929h119v-123h-119v123z" />
    <glyph glyph-name="dotlessi" unicode="&#x131;" horiz-adv-x="263" 
d="M90 527h83v-527h-83v527z" />
    <glyph glyph-name="Jcircumflex" unicode="&#x134;" horiz-adv-x="503" 
d="M113 19l-72 70l-21 90l80 22l15 -68l46 -46l35 -13h38l35 14l46 45l15 62v516h83v-527l-24 -94l-70 -71l-68 -27h-70zM372 931l149 -120l-47 -57l-128 105l-128 -105l-47 57l149 120h52z" />
    <glyph glyph-name="jcircumflex" unicode="&#x135;" horiz-adv-x="283" 
d="M142 -133l-84 -29h-44l-54 14l21 79l39 -10h27l39 13l24 39v554h83v-579zM269 614l-123 101l-123 -101l-47 57l144 116h52l144 -116z" />
    <glyph glyph-name="Kcommaaccent" unicode="&#x136;" horiz-adv-x="665" 
d="M650 0h-103l-240 360l-129 -136v-224h-83v711h83v-369l344 369h118l-275 -292zM298 -102v77h109v-55l-72 -128l-36 17l35 74z" />
    <glyph glyph-name="kcommaaccent" unicode="&#x137;" horiz-adv-x="552" 
d="M396 527h116l-216 -211l226 -316h-101l-182 259l-66 -64v-195h-83v754h83v-450zM242 -102v77h109v-55l-72 -128l-36 17l35 74z" />
    <glyph glyph-name="kgreenlandic" unicode="&#x138;" horiz-adv-x="552" 
d="M405 527h117l-219 -216l211 -311h-100l-170 254l-71 -70v-184h-83v527h83v-232z" />
    <glyph glyph-name="Lacute" unicode="&#x139;" horiz-adv-x="522" 
d="M178 82h324v-82h-407v711h83v-629zM109 756l-36 65l194 107l36 -65z" />
    <glyph glyph-name="lacute" unicode="&#x13a;" horiz-adv-x="263" 
d="M90 0v754h83v-754h-83zM72 776l-36 65l194 107l36 -65z" />
    <glyph glyph-name="Lcommaaccent" unicode="&#x13b;" horiz-adv-x="522" 
d="M178 82h324v-82h-407v711h83v-629zM239 -102v77h109v-55l-72 -128l-36 17l35 74z" />
    <glyph glyph-name="lcommaaccent" unicode="&#x13c;" horiz-adv-x="263" 
d="M90 0v754h83v-754h-83zM76 -102v77h109v-55l-72 -128l-36 17l35 74z" />
    <glyph glyph-name="Lcaron" unicode="&#x13d;" horiz-adv-x="522" 
d="M288 647v107h109v-111l-74 -146l-50 29l48 108zM178 82h324v-82h-407v711h83v-629z" />
    <glyph glyph-name="lcaron" unicode="&#x13e;" horiz-adv-x="352" 
d="M238 647v107h109v-111l-74 -146l-50 29l48 108zM90 0v754h83v-754h-83z" />
    <glyph glyph-name="Ldot" unicode="&#x13f;" horiz-adv-x="522" 
d="M178 82h324v-82h-407v711h83v-629zM288 535h120v-122h-120v122z" />
    <glyph glyph-name="ldot" unicode="&#x140;" horiz-adv-x="373" 
d="M90 0v754h83v-754h-83zM248 535h120v-122h-120v122z" />
    <glyph glyph-name="Lslash" unicode="&#x141;" horiz-adv-x="559" 
d="M434 437l-219 -119v-236h324v-82h-407v273l-74 -40l-33 62l107 58v358h83v-313l187 101z" />
    <glyph glyph-name="lslash" unicode="&#x142;" horiz-adv-x="273" 
d="M95 0v327l-101 -54l-33 61l134 72v348h83v-303l110 60l33 -61l-143 -78v-372h-83z" />
    <glyph glyph-name="Nacute" unicode="&#x143;" horiz-adv-x="738" 
d="M95 711h71l394 -576v576h83v-711h-89l-376 552v-552h-83v711zM310 756l-36 65l194 107l36 -65z" />
    <glyph glyph-name="nacute" unicode="&#x144;" horiz-adv-x="586" 
d="M173 475l25 22l66 38h92l89 -24l61 -82v-429h-83v397l-25 39l-59 17h-64l-72 -46l-30 -43v-364h-83v527h83v-52zM207 660l179 127l43 -61l-179 -127z" />
    <glyph glyph-name="Ncommaaccent" unicode="&#x145;" horiz-adv-x="738" 
d="M95 711h71l394 -576v576h83v-711h-89l-376 552v-552h-83v711zM305 -102v77h109v-55l-72 -128l-36 17l35 74z" />
    <glyph glyph-name="ncommaaccent" unicode="&#x146;" horiz-adv-x="586" 
d="M173 475l25 22l66 38h92l89 -24l61 -82v-429h-83v397l-25 39l-59 17h-64l-72 -46l-30 -43v-364h-83v527h83v-52zM244 -102v77h109v-55l-72 -128l-36 17l35 74z" />
    <glyph glyph-name="Ncaron" unicode="&#x147;" horiz-adv-x="738" 
d="M95 711h71l394 -576v576h83v-711h-89l-376 552v-552h-83v711zM343 754l-149 120l47 57l128 -105l128 105l47 -57l-149 -120h-52z" />
    <glyph glyph-name="ncaron" unicode="&#x148;" horiz-adv-x="586" 
d="M173 475l25 22l66 38h92l89 -24l61 -82v-429h-83v397l-25 39l-59 17h-64l-72 -46l-30 -43v-364h-83v527h83v-52zM468 730l-144 -116h-52l-144 116l47 57l123 -101l123 101z" />
    <glyph glyph-name="Eng" unicode="&#x14a;" horiz-adv-x="738" 
d="M95 711h71l394 -576v576h83v-782l-53 -82l-84 -28h-42l-75 19l22 80l59 -16h27l39 13l24 39v41l-382 557v-552h-83v711z" />
    <glyph glyph-name="eng" unicode="&#x14b;" horiz-adv-x="591" 
d="M173 477l24 20l67 38h92l89 -24l61 -82v-490l-52 -82l-79 -28h-44l-63 17l22 79l47 -13h28l35 13l23 39v433l-25 39l-59 17h-64l-70 -46l-32 -47v-360h-83v527h83v-50z" />
    <glyph glyph-name="Omacron" unicode="&#x14c;" horiz-adv-x="704" 
d="M297 -8l-107 47l-67 68l-44 89l-19 86v147l19 88l44 89l69 67l105 46h110l105 -46l69 -67l44 -89l19 -88v-147l-19 -86l-44 -89l-67 -68l-107 -47h-110zM313 74h80l72 34l47 48l34 66l15 67v134l-15 67l-34 67l-48 48l-71 32h-82l-71 -32l-48 -48l-34 -67l-15 -68v-134
l15 -65l34 -67l47 -48zM526 873v-77h-348v77h348z" />
    <glyph glyph-name="omacron" unicode="&#x14d;" horiz-adv-x="586" 
d="M346 73l59 29l30 45l13 67v100l-13 65l-31 44l-58 30h-78l-60 -30l-29 -44l-13 -65v-100l13 -67l30 -45l59 -29h78zM254 -8l-101 48l-50 74l-20 90v118l20 90l50 74l101 49h106l101 -49l50 -74l20 -90v-118l-20 -90l-50 -74l-101 -48h-106zM478 722v-77h-348v77h348z" />
    <glyph glyph-name="Obreve" unicode="&#x14e;" horiz-adv-x="704" 
d="M297 -8l-107 47l-67 68l-44 89l-19 86v147l19 88l44 89l69 67l105 46h110l105 -46l69 -67l44 -89l19 -88v-147l-19 -86l-44 -89l-67 -68l-107 -47h-110zM313 74h80l72 34l47 48l34 66l15 67v134l-15 67l-34 67l-48 48l-71 32h-82l-71 -32l-48 -48l-34 -67l-15 -68v-134
l15 -65l34 -67l47 -48zM385 825l27 23l7 19v18h68v-31l-14 -39l-49 -44l-51 -17h-41l-51 17l-49 44l-14 39v31h68v-18l7 -19l27 -23l25 -8h15z" />
    <glyph glyph-name="obreve" unicode="&#x14f;" horiz-adv-x="558" 
d="M318 73l59 29l30 45l13 67v100l-13 65l-31 44l-58 30h-78l-60 -30l-29 -44l-13 -65v-100l13 -67l30 -45l59 -29h78zM226 -8l-101 48l-50 74l-20 90v118l20 90l50 74l101 49h106l101 -49l50 -74l20 -90v-118l-20 -90l-50 -74l-101 -48h-106zM410 745v-31l-14 -39l-49 -44
l-51 -17h-41l-51 17l-49 44l-14 39v31h64v-23l6 -13l23 -22l28 -10h27l27 10l26 24l4 11v23h64z" />
    <glyph glyph-name="Ohungarumlaut" unicode="&#x150;" horiz-adv-x="704" 
d="M297 -8l-107 47l-67 68l-44 89l-19 86v147l19 88l44 89l69 67l105 46h110l105 -46l69 -67l44 -89l19 -88v-147l-19 -86l-44 -89l-67 -68l-107 -47h-110zM313 74h80l72 34l47 48l34 66l15 67v134l-15 67l-34 67l-48 48l-71 32h-82l-71 -32l-48 -48l-34 -67l-15 -68v-134
l15 -65l34 -67l47 -48zM374 896l-126 -140l-53 48l126 140zM569 896l-126 -140l-53 48l126 140z" />
    <glyph glyph-name="ohungarumlaut" unicode="&#x151;" horiz-adv-x="569" 
d="M329 73l59 29l30 45l13 67v100l-13 65l-31 44l-58 30h-78l-60 -30l-29 -44l-13 -65v-100l13 -67l30 -45l59 -29h78zM237 -8l-101 48l-50 74l-20 90v118l20 90l50 74l101 49h106l101 -49l50 -74l20 -90v-118l-20 -90l-50 -74l-101 -48h-106zM295 739l-126 -140l-53 48
l126 140zM490 739l-126 -140l-53 48l126 140z" />
    <glyph glyph-name="OE" unicode="&#x152;" horiz-adv-x="882" 
d="M297 0l-107 47l-67 68l-44 89l-19 86v131l19 88l44 89l69 67l105 46h100l54 -24v24h391v-82h-308v-210h196v-82h-196v-255h308v-82h-391v24l-54 -24h-100zM383 82l68 32v484l-68 31h-72l-71 -32l-48 -48l-34 -67l-15 -68v-118l15 -65l34 -67l47 -48l74 -34h70z" />
    <glyph glyph-name="oe" unicode="&#x153;" horiz-adv-x="899" 
d="M377 102l23 34l-20 67v119l20 68l-24 33l-58 30h-78l-60 -30l-29 -44l-13 -65v-100l13 -67l30 -45l59 -29h78zM524 104l61 -30h60l68 17l52 33l44 -66l-65 -43l-92 -23h-83l-100 48l-19 26l-17 -26l-101 -48h-106l-101 48l-50 74l-20 90v118l20 90l50 74l101 49h106
l101 -49l17 -25l19 26l100 48h89l101 -48l67 -92l23 -67v-105h-386v-10l13 -44zM766 305v13l-13 38l-48 65l-61 32h-62l-60 -31l-47 -64l-12 -44v-9h303z" />
    <glyph glyph-name="Racute" unicode="&#x154;" horiz-adv-x="635" 
d="M391 711l93 -24l74 -74l29 -101l-27 -98l-49 -72l-59 -31l138 -311h-92l-129 296h-191v-296h-83v711h296zM178 378h217l60 29l29 43l17 59l-17 60l-43 43l-59 17h-204v-251zM283 756l-36 65l194 107l36 -65z" />
    <glyph glyph-name="racute" unicode="&#x155;" horiz-adv-x="404" 
d="M329 453h-43l-55 -26l-41 -46l-22 -48v-333h-83v527h83v-61l38 37l68 32h65l50 -14l-20 -79zM151 660l179 127l43 -61l-179 -127z" />
    <glyph glyph-name="Rcommaaccent" unicode="&#x156;" horiz-adv-x="635" 
d="M391 711l93 -24l74 -74l29 -101l-27 -98l-49 -72l-59 -31l138 -311h-92l-129 296h-191v-296h-83v711h296zM178 378h217l60 29l29 43l17 59l-17 60l-43 43l-59 17h-204v-251zM268 -102v77h109v-55l-72 -128l-36 17l35 74z" />
    <glyph glyph-name="rcommaaccent" unicode="&#x157;" horiz-adv-x="404" 
d="M329 453h-43l-55 -26l-41 -46l-22 -48v-333h-83v527h83v-61l38 37l68 32h65l50 -14l-20 -79zM73 -102v77h109v-55l-72 -128l-36 17l35 74z" />
    <glyph glyph-name="Rcaron" unicode="&#x158;" horiz-adv-x="635" 
d="M391 711l93 -24l74 -74l29 -101l-27 -98l-49 -72l-59 -31l138 -311h-92l-129 296h-191v-296h-83v711h296zM178 378h217l60 29l29 43l17 59l-17 60l-43 43l-59 17h-204v-251zM316 754l-149 120l47 57l128 -105l128 105l47 -57l-149 -120h-52z" />
    <glyph glyph-name="rcaron" unicode="&#x159;" horiz-adv-x="404" 
d="M329 453h-43l-55 -26l-41 -46l-22 -48v-333h-83v527h83v-61l38 37l68 32h65l50 -14l-20 -79zM412 730l-144 -116h-52l-144 116l47 57l123 -101l123 101z" />
    <glyph glyph-name="Sacute" unicode="&#x15a;" horiz-adv-x="602" 
d="M76 67l-23 28l60 58l19 -24l41 -28l90 -27h86l75 29l24 28l14 29v60l-23 46l-47 27l-204 56l-75 53l-33 53l-14 82l27 85l64 67l92 30h105l116 -30l65 -40l-45 -70l-57 34l-90 24h-79l-60 -19l-37 -37l-15 -52l9 -44l13 -22l51 -37l211 -58l77 -53l32 -77v-97l-25 -54
l-48 -55l-109 -40h-118l-109 33zM242 756l-36 65l194 107l36 -65z" />
    <glyph glyph-name="sacute" unicode="&#x15b;" horiz-adv-x="498" 
d="M171 335l28 -14l153 -30l57 -38l39 -64v-85l-38 -58l-48 -34l-68 -20h-89l-85 22l-47 37l-23 26l58 56l19 -23l27 -21l62 -16h67l42 12l25 18l16 25v38l-17 29l-30 21l-144 29l-64 34l-42 58v89l33 57l45 35l62 17h85l82 -22l60 -41l-45 -67l-48 33l-56 17h-67l-38 -11
l-17 -14l-14 -24v-44zM158 660l179 127l43 -61l-179 -127z" />
    <glyph glyph-name="Scircumflex" unicode="&#x15c;" horiz-adv-x="602" 
d="M76 67l-23 28l60 58l19 -24l41 -28l90 -27h86l75 29l24 28l14 29v60l-23 46l-47 27l-204 56l-75 53l-33 53l-14 82l27 85l64 67l92 30h105l116 -30l65 -40l-45 -70l-57 34l-90 24h-79l-60 -19l-37 -37l-15 -52l9 -44l13 -22l51 -37l211 -58l77 -53l32 -77v-97l-25 -54
l-48 -55l-109 -40h-118l-109 33zM337 931l149 -120l-47 -57l-128 105l-128 -105l-47 57l149 120h52z" />
    <glyph glyph-name="scircumflex" unicode="&#x15d;" horiz-adv-x="498" 
d="M171 335l28 -14l153 -30l57 -38l39 -64v-85l-38 -58l-48 -34l-68 -20h-89l-85 22l-47 37l-23 26l58 56l19 -23l27 -21l62 -16h67l42 12l25 18l16 25v38l-17 29l-30 21l-144 29l-64 34l-42 58v89l33 57l45 35l62 17h85l82 -22l60 -41l-45 -67l-48 33l-56 17h-67l-38 -11
l-17 -14l-14 -24v-44zM382 614l-123 101l-123 -101l-47 57l144 116h52l144 -116z" />
    <glyph glyph-name="Scedilla" unicode="&#x15e;" horiz-adv-x="602" 
d="M262 -8h-17l-109 33l-60 42l-23 28l60 58l19 -24l41 -28l90 -27h86l75 29l24 28l14 29v60l-23 46l-47 27l-204 56l-75 53l-33 53l-14 82l27 85l64 67l92 30h105l116 -30l65 -40l-45 -70l-57 34l-90 24h-79l-60 -19l-37 -37l-15 -52l9 -44l13 -22l51 -37l211 -58l77 -53
l32 -77v-97l-25 -54l-48 -55l-109 -40h-42l-7 -27l50 -8l22 -52l-29 -60l-61 -26h-44l-35 17l25 53l22 -8h29l17 9l8 23l-77 17z" />
    <glyph glyph-name="scedilla" unicode="&#x15f;" horiz-adv-x="498" 
d="M210 -8h-5l-85 22l-47 37l-23 26l58 56l19 -23l27 -21l62 -16h67l42 12l25 18l16 25v38l-17 29l-30 21l-144 29l-64 34l-42 58v89l33 57l45 35l62 17h85l82 -22l60 -41l-45 -67l-48 33l-56 17h-67l-38 -11l-17 -14l-14 -24v-44l20 -27l28 -14l153 -30l57 -38l39 -64v-85
l-38 -58l-48 -34l-68 -20h-25l-7 -27l50 -8l22 -52l-29 -60l-61 -26h-44l-35 17l25 53l22 -8h29l17 9l8 23l-77 17z" />
    <glyph glyph-name="Scaron" unicode="&#x160;" horiz-adv-x="602" 
d="M76 67l-23 28l60 58l19 -24l41 -28l90 -27h86l75 29l24 28l14 29v60l-23 46l-47 27l-204 56l-75 53l-33 53l-14 82l27 85l64 67l92 30h105l116 -30l65 -40l-45 -70l-57 34l-90 24h-79l-60 -19l-37 -37l-15 -52l9 -44l13 -22l51 -37l211 -58l77 -53l32 -77v-97l-25 -54
l-48 -55l-109 -40h-118l-109 33zM285 754l-149 120l47 57l128 -105l128 105l47 -57l-149 -120h-52z" />
    <glyph glyph-name="scaron" unicode="&#x161;" horiz-adv-x="498" 
d="M171 335l28 -14l153 -30l57 -38l39 -64v-85l-38 -58l-48 -34l-68 -20h-89l-85 22l-47 37l-23 26l58 56l19 -23l27 -21l62 -16h67l42 12l25 18l16 25v38l-17 29l-30 21l-144 29l-64 34l-42 58v89l33 57l45 35l62 17h85l82 -22l60 -41l-45 -67l-48 33l-56 17h-67l-38 -11
l-17 -14l-14 -24v-44zM429 730l-144 -116h-52l-144 116l47 57l123 -101l123 101z" />
    <glyph glyph-name="Tcommaaccent" unicode="&#x162;" horiz-adv-x="515" 
d="M297 0h-83v629h-189v82h465v-82h-193v-629zM200 -102v77h109v-55l-72 -128l-36 17l35 74z" />
    <glyph glyph-name="tcommaaccent" unicode="&#x163;" horiz-adv-x="414" 
d="M203 514h138v-82h-138v-308l25 -36l36 -14h28l71 18l21 -79l-93 -21h-46l-70 26l-55 79v335h-95v82h95v184h83v-184zM160 -102v77h109v-55l-72 -128l-36 17l35 74z" />
    <glyph glyph-name="Tcaron" unicode="&#x164;" horiz-adv-x="515" 
d="M297 0h-83v629h-189v82h465v-82h-193v-629zM231 754l-149 120l47 57l128 -105l128 105l47 -57l-149 -120h-52z" />
    <glyph glyph-name="tcaron" unicode="&#x165;" horiz-adv-x="445" 
d="M331 701v107h109v-111l-74 -146l-50 29l48 108zM203 514h138v-82h-138v-308l25 -36l36 -14h28l71 18l21 -79l-93 -21h-46l-70 26l-55 79v335h-95v82h95v184h83v-184z" />
    <glyph glyph-name="Tbar" unicode="&#x166;" horiz-adv-x="515" 
d="M297 527h122v-68h-122v-459h-83v459h-118v68h118v102h-189v82h465v-82h-193v-102z" />
    <glyph glyph-name="tbar" unicode="&#x167;" horiz-adv-x="414" 
d="M203 514h138v-82h-138v-108h107v-60h-107v-140l25 -36l36 -14h28l71 18l21 -79l-93 -21h-46l-70 26l-55 79v167h-84v60h84v108h-95v82h95v184h83v-184z" />
    <glyph glyph-name="Utilde" unicode="&#x168;" horiz-adv-x="709" 
d="M310 -8l-128 47l-70 93l-22 71v508h83v-497l13 -45l48 -63l89 -32h63l89 32l48 63l13 45v497h83v-508l-22 -71l-70 -93l-128 -47h-89zM301 811h-17l-25 -9l-17 -18l-6 -20l-65 22l10 32l15 26l25 18l50 23h42l44 -18l39 -23l12 -5h17l24 11l18 15l6 20l65 -22l-10 -32
l-15 -26l-25 -19l-51 -22h-37l-39 15l-44 27z" />
    <glyph glyph-name="utilde" unicode="&#x169;" horiz-adv-x="581" 
d="M306 73l71 47l31 43v364h83v-527h-82v53l-26 -23l-66 -38h-81l-91 24l-65 84v427h83v-397l29 -42l57 -15h57zM92 648l14 32l42 38l52 21h49l39 -15l39 -24l23 -8h17l19 7l12 11l10 27l70 -19l-9 -35l-14 -25l-31 -26l-40 -16l-46 -2l-43 15l-53 33h-28l-26 -11l-18 -16
l-6 -15z" />
    <glyph glyph-name="Umacron" unicode="&#x16a;" horiz-adv-x="709" 
d="M310 -8l-128 47l-70 93l-22 71v508h83v-497l13 -45l48 -63l89 -32h63l89 32l48 63l13 45v497h83v-508l-22 -71l-70 -93l-128 -47h-89zM528 873v-77h-348v77h348z" />
    <glyph glyph-name="umacron" unicode="&#x16b;" horiz-adv-x="581" 
d="M306 73l71 47l31 43v364h83v-527h-82v53l-26 -23l-66 -38h-81l-91 24l-65 84v427h83v-397l29 -42l57 -15h57zM459 722v-77h-348v77h348z" />
    <glyph glyph-name="Ubreve" unicode="&#x16c;" horiz-adv-x="709" 
d="M310 -8l-128 47l-70 93l-22 71v508h83v-497l13 -45l48 -63l89 -32h63l89 32l48 63l13 45v497h83v-508l-22 -71l-70 -93l-128 -47h-89zM387 825l27 23l7 19v18h68v-31l-14 -39l-49 -44l-51 -17h-41l-51 17l-49 44l-14 39v31h68v-18l7 -19l27 -23l25 -8h15z" />
    <glyph glyph-name="ubreve" unicode="&#x16d;" horiz-adv-x="581" 
d="M306 73l71 47l31 43v364h83v-527h-82v53l-26 -23l-66 -38h-81l-91 24l-65 84v427h83v-397l29 -42l57 -15h57zM420 745v-31l-14 -39l-49 -44l-51 -17h-41l-51 17l-49 44l-14 39v31h64v-23l6 -13l23 -22l28 -10h27l27 10l26 24l4 11v23h64z" />
    <glyph glyph-name="Uring" unicode="&#x16e;" horiz-adv-x="709" 
d="M310 -8l-128 47l-70 93l-22 71v508h83v-497l13 -45l48 -63l89 -32h63l89 32l48 63l13 45v497h83v-508l-22 -71l-70 -93l-128 -47h-89zM411 864l-7 21l-17 18l-22 8h-21l-22 -8l-17 -18l-7 -21v-22l7 -21l17 -18l22 -8h21l22 8l17 18l7 21v22zM462 834l-13 -35l-35 -40
l-41 -15h-37l-41 15l-36 40l-12 35v38l12 35l36 40l41 15h37l41 -15l35 -40l13 -35v-38z" />
    <glyph glyph-name="uring" unicode="&#x16f;" horiz-adv-x="581" 
d="M306 73l71 47l31 43v364h83v-527h-82v53l-26 -23l-66 -38h-81l-91 24l-65 84v427h83v-397l29 -42l57 -15h57zM405 704l-14 -39l-37 -43l-48 -18h-41l-48 18l-37 43l-14 39v42l14 39l37 43l48 18h41l48 -18l37 -43l14 -39v-42zM320 672l19 21l6 18v28l-6 18l-19 21l-22 9
h-25l-22 -9l-19 -21l-6 -18v-28l6 -18l19 -21l22 -9h25z" />
    <glyph glyph-name="Uhungarumlaut" unicode="&#x170;" horiz-adv-x="709" 
d="M310 -8l-128 47l-70 93l-22 71v508h83v-497l13 -45l48 -63l89 -32h63l89 32l48 63l13 45v497h83v-508l-22 -71l-70 -93l-128 -47h-89zM376 896l-126 -140l-53 48l126 140zM571 896l-126 -140l-53 48l126 140z" />
    <glyph glyph-name="uhungarumlaut" unicode="&#x171;" horiz-adv-x="581" 
d="M306 73l71 47l31 43v364h83v-527h-82v53l-26 -23l-66 -38h-81l-91 24l-65 84v427h83v-397l29 -42l57 -15h57zM307 739l-126 -140l-53 48l126 140zM502 739l-126 -140l-53 48l126 140z" />
    <glyph glyph-name="Uogonek" unicode="&#x172;" horiz-adv-x="709" 
d="M366 -33l-19 -21l-5 -22v-21l10 -13l22 -9h45v-62h-62l-56 25l-27 41v41l10 43l26 23l-128 47l-70 93l-22 71v508h83v-497l13 -45l48 -63l89 -32h63l89 32l48 63l13 45v497h83v-508l-22 -71l-70 -93l-128 -47z" />
    <glyph glyph-name="uogonek" unicode="&#x173;" horiz-adv-x="581" 
d="M306 73l71 47l31 43v364h83v-527l-40 -14l-30 -30l-7 -24v-29l10 -13l22 -9h45v-62h-62l-56 25l-27 41v41l11 41l42 42l10 6v38l-26 -23l-66 -38h-81l-91 24l-65 84v427h83v-397l29 -42l57 -15h57z" />
    <glyph glyph-name="Wcircumflex" unicode="&#x174;" horiz-adv-x="870" 
d="M630 148l140 563h85l-182 -711h-79l-159 514l-159 -514h-79l-182 711h85l140 -563l164 534h62zM461 931l149 -120l-47 -57l-128 105l-128 -105l-47 57l149 120h52z" />
    <glyph glyph-name="wcircumflex" unicode="&#x175;" horiz-adv-x="768" 
d="M350 507h68l130 -369l108 389h87l-153 -527h-78l-128 368l-128 -368h-78l-153 527h87l108 -389zM507 614l-123 101l-123 -101l-47 57l144 116h52l144 -116z" />
    <glyph glyph-name="Ycircumflex" unicode="&#x176;" horiz-adv-x="566" 
d="M458 711h98l-232 -353v-358h-82v358l-232 353h98l175 -269zM309 931l149 -120l-47 -57l-128 105l-128 -105l-47 57l149 120h52z" />
    <glyph glyph-name="ycircumflex" unicode="&#x177;" horiz-adv-x="552" 
d="M277 168l158 359h92l-311 -689h-89l105 232l-207 457h94zM399 614l-123 101l-123 -101l-47 57l144 116h52l144 -116z" />
    <glyph glyph-name="Ydieresis" unicode="&#x178;" horiz-adv-x="566" 
d="M458 711h98l-232 -353v-358h-82v358l-232 353h98l175 -269zM118 915h106v-109h-106v109zM343 915h106v-109h-106v109z" />
    <glyph glyph-name="Zacute" unicode="&#x179;" horiz-adv-x="558" 
d="M519 711v-64l-379 -565h388v-82h-498v64l380 565h-360v82h469zM220 756l-36 65l194 107l36 -65z" />
    <glyph glyph-name="zacute" unicode="&#x17a;" horiz-adv-x="483" 
d="M40 0v66l287 380h-272v81h383v-66l-285 -379h290v-82h-403zM150 660l179 127l43 -61l-179 -127z" />
    <glyph glyph-name="Zdotaccent" unicode="&#x17b;" horiz-adv-x="558" 
d="M519 711v-64l-379 -565h388v-82h-498v64l380 565h-360v82h469zM225 929h119v-123h-119v123z" />
    <glyph glyph-name="zdotaccent" unicode="&#x17c;" horiz-adv-x="483" 
d="M40 0v66l287 380h-272v81h383v-66l-285 -379h290v-82h-403zM186 761h120v-122h-120v122z" />
    <glyph glyph-name="Zcaron" unicode="&#x17d;" horiz-adv-x="558" 
d="M519 711v-64l-379 -565h388v-82h-498v64l380 565h-360v82h469zM258 754l-149 120l47 57l128 -105l128 105l47 -57l-149 -120h-52z" />
    <glyph glyph-name="zcaron" unicode="&#x17e;" horiz-adv-x="483" 
d="M40 0v66l287 380h-272v81h383v-66l-285 -379h290v-82h-403zM416 730l-144 -116h-52l-144 116l47 57l123 -101l123 101z" />
    <glyph glyph-name="florin" unicode="&#x192;" 
d="M499 680h-33l-37 -23l-24 -40l-27 -157h132v-72h-144l-66 -390l-52 -78l-74 -39h-69l-65 23l28 77l51 -18h36l36 20l29 42l62 363h-122v72h134l32 187l41 69l76 46h65l78 -17l-19 -80z" />
    <glyph glyph-name="AEacute" unicode="&#x1fc;" horiz-adv-x="835" 
d="M404 214h-198l-101 -214h-90l345 711h435v-82h-308v-210h196v-82h-196v-255h308v-82h-391v214zM404 296v335l-160 -335h160zM416 756l-36 65l194 107l36 -65z" />
    <glyph glyph-name="aeacute" unicode="&#x1fd;" horiz-adv-x="886" 
d="M381 38l-92 -46h-62l-68 21l-48 28l-56 81v58l14 68l74 74l99 25h64l58 -19l19 67l7 10l-4 9l-42 27l-49 12h-71l-43 -14l-31 -20l-19 -19l-57 59l28 26l48 31l64 19h93l72 -18l62 -42l10 12l100 48h89l101 -48l67 -92l23 -67v-105h-386v-10l13 -44l48 -65l61 -30h60
l68 17l52 33l44 -66l-65 -43l-92 -23h-83l-100 48l-31 42zM748 305v13l-13 38l-48 65l-61 32h-62l-60 -31l-47 -64l-12 -44v-9h303zM362 203v40l-17 8l-49 14h-45l-66 -18l-39 -39l-8 -35v-27l31 -44l23 -14l47 -14h32l75 28l35 37zM392 660l179 127l43 -61l-179 -127z" />
    <glyph glyph-name="Oslashacute" unicode="&#x1fe;" horiz-adv-x="704" 
d="M297 -8l-107 47l-4 4l-65 -102l-58 38l73 114l-13 14l-44 89l-19 86v147l19 88l44 89l69 67l105 46h110l101 -45l61 96l58 -38l-68 -106l22 -20l44 -89l19 -88v-147l-19 -86l-44 -89l-67 -68l-107 -47h-110zM313 74h80l72 34l47 48l34 66l15 67v134l-15 67l-33 64
l-281 -439l7 -7zM158 223l27 -54l278 436l-70 32h-82l-71 -32l-48 -48l-34 -67l-15 -68v-134zM293 756l-36 65l194 107l36 -65z" />
    <glyph glyph-name="oslashacute" unicode="&#x1ff;" horiz-adv-x="628" 
d="M296 -8l-62 29l-51 -82l-53 33l53 86l-38 56l-20 90v118l20 90l50 74l101 49h106l58 -28l49 79l52 -32l-50 -81l42 -61l20 -90v-118l-20 -90l-50 -74l-101 -48h-106zM388 73l59 29l30 45l13 67v100l-13 65l-13 18l-188 -307l34 -17h78zM221 147l9 -13l187 303l-29 16h-78
l-60 -30l-29 -44l-13 -65v-100zM235 660l179 127l43 -61l-179 -127z" />
    <glyph glyph-name="Scommaaccent" unicode="&#x218;" horiz-adv-x="602" 
d="M76 67l-23 28l60 58l19 -24l41 -28l90 -27h86l75 29l24 28l14 29v60l-23 46l-47 27l-204 56l-75 53l-33 53l-14 82l27 85l64 67l92 30h105l116 -30l65 -40l-45 -70l-57 34l-90 24h-79l-60 -19l-37 -37l-15 -52l9 -44l13 -22l51 -37l211 -58l77 -53l32 -77v-97l-25 -54
l-48 -55l-109 -40h-118l-109 33zM247 -102v77h109v-55l-72 -128l-36 17l35 74z" />
    <glyph glyph-name="scommaaccent" unicode="&#x219;" horiz-adv-x="498" 
d="M171 335l28 -14l153 -30l57 -38l39 -64v-85l-38 -58l-48 -34l-68 -20h-89l-85 22l-47 37l-23 26l58 56l19 -23l27 -21l62 -16h67l42 12l25 18l16 25v38l-17 29l-30 21l-144 29l-64 34l-42 58v89l33 57l45 35l62 17h85l82 -22l60 -41l-45 -67l-48 33l-56 17h-67l-38 -11
l-17 -14l-14 -24v-44zM195 -102v77h109v-55l-72 -128l-36 17l35 74z" />
    <glyph glyph-name="uni021A" unicode="&#x21a;" horiz-adv-x="515" 
d="M297 0h-83v629h-189v82h465v-82h-193v-629zM200 -102v77h109v-55l-72 -128l-36 17l35 74z" />
    <glyph glyph-name="uni021B" unicode="&#x21b;" horiz-adv-x="414" 
d="M203 514h138v-82h-138v-308l25 -36l36 -14h28l71 18l21 -79l-93 -21h-46l-70 26l-55 79v335h-95v82h95v184h83v-184zM160 -102v77h109v-55l-72 -128l-36 17l35 74z" />
    <glyph glyph-name="hsuperior" unicode="&#x2b0;" horiz-adv-x="337" 
d="M60 785h60v-126l32 18h51l44 -12l35 -47v-224h-61v204l-9 12l-22 7h-29l-28 -19l-13 -18v-186h-60v391z" />
    <glyph glyph-name="jsuperior" unicode="&#x2b2;" horiz-adv-x="210" 
d="M71 785h78v-81h-78v81zM113 332l-49 -18h-24l-36 9l16 60l25 -8h13l14 5l8 13v280h60v-296z" />
    <glyph glyph-name="wsuperior" unicode="&#x2b7;" horiz-adv-x="445" 
d="M196 664h47l56 -158l46 167h65l-81 -279h-54l-56 161l-55 -161h-54l-81 279h64l46 -169z" />
    <glyph glyph-name="ysuperior" unicode="&#x2b8;" horiz-adv-x="325" 
d="M161 511l72 162h66l-163 -359h-64l56 124l-105 235h66z" />
    <glyph glyph-name="apostrophemod" unicode="&#x2bc;" horiz-adv-x="279" 
d="M99 604v107h119v-111l-84 -146l-50 29l56 105z" />
    <glyph glyph-name="circumflex" unicode="&#x2c6;" horiz-adv-x="420" 
d="M333 614l-123 101l-123 -101l-47 57l144 116h52l144 -116z" />
    <glyph glyph-name="caron" unicode="&#x2c7;" horiz-adv-x="420" 
d="M380 730l-144 -116h-52l-144 116l47 57l123 -101l123 101z" />
    <glyph glyph-name="breve" unicode="&#x2d8;" horiz-adv-x="349" 
d="M309 745v-31l-14 -39l-49 -44l-51 -17h-41l-51 17l-49 44l-14 39v31h64v-23l6 -13l23 -22l28 -10h27l27 10l26 24l4 11v23h64z" />
    <glyph glyph-name="dotaccent" unicode="&#x2d9;" horiz-adv-x="200" 
d="M40 761h120v-122h-120v122z" />
    <glyph glyph-name="ring" unicode="&#x2da;" horiz-adv-x="319" 
d="M279 704l-14 -39l-37 -43l-48 -18h-41l-48 18l-37 43l-14 39v42l14 39l37 43l48 18h41l48 -18l37 -43l14 -39v-42zM194 672l19 21l6 18v28l-6 18l-19 21l-22 9h-25l-22 -9l-19 -21l-6 -18v-28l6 -18l19 -21l22 -9h25z" />
    <glyph glyph-name="ogonek" unicode="&#x2db;" horiz-adv-x="249" 
d="M209 0l-41 -13l-36 -23l-19 -23l-5 -20v-18l10 -13l22 -9h45v-62h-62l-56 25l-27 41v41l10 43l37 42l50 27l49 15z" />
    <glyph glyph-name="tilde" unicode="&#x2dc;" horiz-adv-x="466" 
d="M40 648l14 32l42 38l52 21h49l39 -15l39 -24l23 -8h17l19 7l12 11l10 27l70 -19l-9 -35l-14 -25l-31 -26l-40 -16l-46 -2l-43 15l-53 33h-28l-26 -11l-18 -16l-6 -15z" />
    <glyph glyph-name="hungarumlaut" unicode="&#x2dd;" horiz-adv-x="454" 
d="M219 739l-126 -140l-53 48l126 140zM414 739l-126 -140l-53 48l126 140z" />
    <glyph glyph-name="xsuperior" unicode="&#x2e3;" horiz-adv-x="325" 
d="M94 394h-76l106 140l-105 139h75l67 -90l66 90h76l-105 -138l106 -141h-76l-67 91z" />
    <glyph glyph-name="Delta" unicode="&#x394;" horiz-adv-x="682" 
d="M27 0l273 711h82l273 -711h-628zM536 82l-195 515l-195 -515h390z" />
    <glyph glyph-name="Omega" unicode="&#x3a9;" horiz-adv-x="816" 
d="M368 638l-79 -32l-53 -50l-37 -59l-20 -62v-106l22 -71l44 -67l81 -89v-102h-256v82h174l-68 64l-50 76l-30 94v131l26 84l54 82l72 64l105 42h110l105 -42l72 -64l54 -82l26 -84v-131l-30 -94l-50 -76l-68 -64h174v-82h-256v102l81 89l44 67l22 71v106l-20 62l-37 59
l-53 50l-79 32h-80z" />
    <glyph glyph-name="mu" unicode="&#x3bc;" horiz-adv-x="585" 
d="M175 -162h-83v689h83v-397l29 -42l57 -15h57l71 47l31 43v364h83v-527h-82v53l-26 -23l-66 -38h-81l-73 21v-175z" />
    <glyph glyph-name="pi" unicode="&#x3c0;" horiz-adv-x="697" 
d="M630 3l-47 -11h-46l-70 26l-55 79v335h-167v-432h-83v432h-100v82h543v-82h-110v-308l25 -36l36 -14h27l31 8z" />
    <glyph glyph-name="THB" unicode="&#xe3f;" 
d="M96 711h182v115h83v-115h32l92 -25l66 -72l21 -96l-20 -79l-32 -46l-30 -16l30 -19l43 -62l22 -97l-23 -97l-52 -63l-83 -39h-66v-111h-83v111h-182v711zM455 104l30 35l15 60l-15 64l-25 42l-53 32h-228v-255h227zM179 629v-210h232l50 34l14 20l12 45l-12 56l-35 39
l-55 16h-206z" />
    <glyph glyph-name="Wgrave" unicode="&#x1e80;" horiz-adv-x="870" 
d="M630 148l140 563h85l-182 -711h-79l-159 514l-159 -514h-79l-182 711h85l140 -563l164 534h62zM300 863l36 65l194 -107l-36 -65z" />
    <glyph glyph-name="wgrave" unicode="&#x1e81;" horiz-adv-x="768" 
d="M350 507h68l130 -369l108 389h87l-153 -527h-78l-128 368l-128 -368h-78l-153 527h87l108 -389zM432 599l-179 127l43 61l179 -127z" />
    <glyph glyph-name="Wacute" unicode="&#x1e82;" horiz-adv-x="870" 
d="M630 148l140 563h85l-182 -711h-79l-159 514l-159 -514h-79l-182 711h85l140 -563l164 534h62zM376 756l-36 65l194 107l36 -65z" />
    <glyph glyph-name="wacute" unicode="&#x1e83;" horiz-adv-x="768" 
d="M350 507h68l130 -369l108 389h87l-153 -527h-78l-128 368l-128 -368h-78l-153 527h87l108 -389zM293 660l179 127l43 -61l-179 -127z" />
    <glyph glyph-name="Wdieresis" unicode="&#x1e84;" horiz-adv-x="870" 
d="M630 148l140 563h85l-182 -711h-79l-159 514l-159 -514h-79l-182 711h85l140 -563l164 534h62zM270 915h106v-109h-106v109zM495 915h106v-109h-106v109z" />
    <glyph glyph-name="wdieresis" unicode="&#x1e85;" horiz-adv-x="768" 
d="M350 507h68l130 -369l108 389h87l-153 -527h-78l-128 368l-128 -368h-78l-153 527h87l108 -389zM217 754h110v-115h-110v115zM442 754h110v-115h-110v115z" />
    <glyph glyph-name="Ygrave" unicode="&#x1ef2;" horiz-adv-x="566" 
d="M458 711h98l-232 -353v-358h-82v358l-232 353h98l175 -269zM148 863l36 65l194 -107l-36 -65z" />
    <glyph glyph-name="ygrave" unicode="&#x1ef3;" horiz-adv-x="552" 
d="M277 168l158 359h92l-311 -689h-89l105 232l-207 457h94zM324 599l-179 127l43 61l179 -127z" />
    <glyph glyph-name="endash" unicode="&#x2013;" 
d="M570 345v-72h-500v72h500z" />
    <glyph glyph-name="emdash" unicode="&#x2014;" horiz-adv-x="1280" 
d="M70 273v72h1140v-72h-1140z" />
    <glyph glyph-name="quoteleft" unicode="&#x2018;" horiz-adv-x="279" 
d="M180 582v-107h-119v111l84 146l50 -29l-56 -105z" />
    <glyph glyph-name="quoteright" unicode="&#x2019;" horiz-adv-x="279" 
d="M99 604v107h119v-111l-84 -146l-50 29l56 105z" />
    <glyph glyph-name="quotesinglbase" unicode="&#x201a;" horiz-adv-x="279" 
d="M95 16v107h119v-111l-84 -146l-50 29l56 105z" />
    <glyph glyph-name="quotedblleft" unicode="&#x201c;" horiz-adv-x="468" 
d="M373 582v-107h-119v111l84 146l50 -29l-56 -105zM184 582v-107h-119v111l84 146l50 -29l-56 -105z" />
    <glyph glyph-name="quotedblright" unicode="&#x201d;" horiz-adv-x="468" 
d="M95 604v107h119v-111l-84 -146l-50 29l56 105zM284 604v107h119v-111l-84 -146l-50 29l56 105z" />
    <glyph glyph-name="quotedblbase" unicode="&#x201e;" horiz-adv-x="468" 
d="M95 16v107h119v-111l-84 -146l-50 29l56 105zM284 16v107h119v-111l-84 -146l-50 29l56 105z" />
    <glyph glyph-name="dagger" unicode="&#x2020;" horiz-adv-x="537" 
d="M227 -162v607h-157v82h157v150h83v-150h157v-82h-157v-607h-83z" />
    <glyph glyph-name="daggerdbl" unicode="&#x2021;" horiz-adv-x="537" 
d="M227 96v349h-157v82h157v150h83v-150h157v-82h-157v-349h157v-82h-157v-175h-83v175h-157v82h157z" />
    <glyph glyph-name="bullet" unicode="&#x2022;" horiz-adv-x="358" 
d="M268 328l-6 -23l-11 -19l-18 -18l-19 -11l-23 -6h-24l-23 6l-19 11l-18 18l-11 19l-6 23v24l6 23l11 19l18 18l19 11l23 6h24l23 -6l19 -11l18 -18l11 -19l6 -23v-24z" />
    <glyph glyph-name="ellipsis" unicode="&#x2026;" horiz-adv-x="917" 
d="M80 123h119v-123h-119v123zM399 123h119v-123h-119v123zM718 123h119v-123h-119v123z" />
    <glyph glyph-name="perthousand" unicode="&#x2030;" horiz-adv-x="1212" 
d="M305 651l38 -38l20 -46l10 -50v-67l-10 -50l-20 -46l-38 -38l-48 -24h-61l-48 24l-38 38l-20 46l-10 50v67l10 50l20 46l38 38l48 24h61zM169 22l503 704l51 -37l-503 -704zM209 613l-22 -12l-26 -26l-9 -20l-9 -43v-57l9 -43l10 -20l26 -27l21 -11h35l21 11l26 27l10 20
l9 43v57l-9 43l-9 20l-26 26l-22 12h-35zM746 395l38 -38l20 -46l10 -50v-67l-10 -50l-20 -46l-38 -38l-48 -24h-61l-48 24l-38 38l-20 46l-10 50v67l10 50l20 46l38 38l48 24h61zM650 357l-22 -12l-26 -26l-9 -20l-9 -43v-57l9 -43l10 -20l26 -27l21 -11h35l21 11l26 27
l10 20l9 43v57l-9 43l-9 20l-26 26l-22 12h-35zM1084 395l38 -38l20 -46l10 -50v-67l-10 -50l-20 -46l-38 -38l-48 -24h-61l-48 24l-38 38l-20 46l-10 50v67l10 50l20 46l38 38l48 24h61zM988 357l-22 -12l-26 -26l-9 -20l-9 -43v-57l9 -43l10 -20l26 -27l21 -11h35l21 11
l26 27l10 20l9 43v57l-9 43l-9 20l-26 26l-22 12h-35z" />
    <glyph glyph-name="guilsinglleft" unicode="&#x2039;" horiz-adv-x="325" 
d="M128 311l127 -172l-64 -52l-146 198v52l146 198l64 -52z" />
    <glyph glyph-name="guilsinglright" unicode="&#x203a;" horiz-adv-x="325" 
d="M70 483l64 52l146 -198v-52l-146 -198l-64 52l127 172z" />
    <glyph glyph-name="fraction" unicode="&#x2044;" horiz-adv-x="154" 
d="M-200 22l503 704l51 -37l-503 -704z" />
    <glyph glyph-name="zerosuperior" unicode="&#x2070;" horiz-adv-x="385" 
d="M165 389l-49 21l-38 40l-19 44l-9 43v75l9 43l19 43l38 39l49 22h56l48 -22l38 -39l19 -43l9 -43v-75l-9 -43l-19 -44l-38 -40l-48 -21h-56zM229 466l20 19l9 26l8 32v63l-7 30l-8 24l-23 21l-23 12h-23l-25 -12l-22 -21l-9 -24l-7 -30v-63l8 -32l9 -26l21 -19l25 -11h23
z" />
    <glyph glyph-name="foursuperior" unicode="&#x2074;" horiz-adv-x="324" 
d="M294 546v-65h-51v-87h-69v87h-154v47l164 226h59v-208h51zM174 630l-59 -84h59v84z" />
    <glyph glyph-name="fivesuperior" unicode="&#x2075;" horiz-adv-x="341" 
d="M102 556l-45 31l24 167h186v-66h-126l-9 -55h57l50 -20l36 -34l16 -44v-41l-16 -46l-34 -36l-56 -23h-57l-51 20l-37 35l48 49l28 -27l25 -11h29l31 15l14 12l8 21v20l-7 18l-18 17l-21 7h-40z" />
    <glyph glyph-name="sixsuperior" unicode="&#x2076;" horiz-adv-x="355" 
d="M119 540v-32l6 -25l14 -15l23 -13h32l28 15l6 7l8 26v27l-5 14l-12 16l-24 12h-23l-30 -12l-19 -15zM119 623l38 15h52l57 -26l28 -41l11 -37v-43l-10 -33l-30 -43l-55 -26h-63l-58 27l-29 42l-10 36v145l13 48l37 46l56 26h55l55 -25l33 -31l-50 -46l-26 22l-28 14h-23
l-27 -13l-20 -25l-6 -24v-8z" />
    <glyph glyph-name="sevensuperior" unicode="&#x2077;" horiz-adv-x="263" 
d="M30 394l139 294h-149v66h233v-45l-146 -315h-77z" />
    <glyph glyph-name="eightsuperior" unicode="&#x2078;" horiz-adv-x="354" 
d="M211 625l13 12l3 13v16l-5 12l-9 9l-23 6h-26l-24 -7l-10 -8l-3 -11v-19l3 -12l13 -11l13 -3h43zM156 556l-18 -8l-14 -13l-5 -15v-30l4 -16l13 -11l25 -7h32l23 6l15 14l4 14v30l-5 15l-13 13l-18 8h-43zM304 478l-11 -36l-41 -39l-49 -14h-53l-48 14l-42 39l-10 36v51
l13 40l23 20l-13 11l-16 38v38l14 41l36 28l50 14h40l49 -14l37 -28l13 -41v-38l-15 -38l-12 -11l22 -21l13 -39v-51z" />
    <glyph glyph-name="ninesuperior" unicode="&#x2079;" horiz-adv-x="356" 
d="M236 612v28l-7 24l-13 17l-22 12h-32l-27 -13l-8 -10l-7 -25v-24l4 -14l11 -17l27 -12h24l30 10l16 15zM236 516v10l-36 -15h-56l-55 26l-29 43l-10 32v45l10 33l30 43l54 26h66l55 -26l28 -41l13 -41v-145l-14 -47l-36 -45l-55 -25h-57l-55 25l-33 31l53 50l24 -27
l27 -13h23l28 12l18 24z" />
    <glyph glyph-name="plussuperior" unicode="&#x207a;" horiz-adv-x="264" 
d="M105 457v90h-85v54h85v90h54v-90h85v-54h-85v-90h-54z" />
    <glyph glyph-name="minussuperior" unicode="&#x207b;" horiz-adv-x="264" 
d="M20 547v54h224v-54h-224z" />
    <glyph glyph-name="equalsuperior" unicode="&#x207c;" horiz-adv-x="264" 
d="M20 601v54h224v-54h-224zM20 493v54h224v-54h-224z" />
    <glyph glyph-name="parenleftsuperior" unicode="&#x207d;" horiz-adv-x="189" 
d="M114 545l13 -64l17 -44l30 -44l-51 -34l-36 52l-22 53l-15 75v70l15 75l22 52l36 52l51 -34l-30 -44l-17 -45l-13 -64v-56z" />
    <glyph glyph-name="parenrightsuperior" unicode="&#x207e;" horiz-adv-x="189" 
d="M75 601l-13 64l-17 45l-30 44l51 34l36 -52l22 -52l15 -75v-70l-15 -75l-22 -53l-36 -52l-51 34l30 44l17 44l13 64v56z" />
    <glyph glyph-name="nsuperior" unicode="&#x207f;" horiz-adv-x="335" 
d="M114 658l33 19h51l46 -12l35 -47v-224h-61v204l-8 11l-24 8h-28l-31 -20l-13 -17v-186h-60v279h60v-15z" />
    <glyph glyph-name="zeroinferior" unicode="&#x2080;" horiz-adv-x="385" 
d="M165 -155l-49 21l-38 40l-19 44l-9 43v75l9 43l19 43l38 39l49 22h56l48 -22l38 -39l19 -43l9 -43v-75l-9 -43l-19 -44l-38 -40l-48 -21h-56zM229 -78l20 19l9 26l8 32v63l-7 30l-8 24l-23 21l-23 12h-23l-25 -12l-22 -21l-9 -24l-7 -30v-63l8 -32l9 -26l21 -19l25 -11
h23z" />
    <glyph glyph-name="oneinferior" unicode="&#x2081;" horiz-adv-x="241" 
d="M10 141l145 69h36v-360h-71v271l-80 -37z" />
    <glyph glyph-name="twoinferior" unicode="&#x2082;" horiz-adv-x="335" 
d="M50 155l35 36l57 24h61l59 -28l38 -57v-55l-24 -47l-111 -110h140v-68h-248v56l159 156l14 28v19l-17 26l-26 12h-31l-28 -12l-28 -29z" />
    <glyph glyph-name="threeinferior" unicode="&#x2083;" horiz-adv-x="337" 
d="M114 23v49l55 72h-110v66h205v-47l-64 -86l34 -13l36 -35l17 -42v-37l-17 -46l-33 -34l-58 -25h-58l-55 21l-36 36l50 49l28 -28l26 -12h30l31 13l15 16l8 19v17l-6 15l-19 19l-37 13h-42z" />
    <glyph glyph-name="fourinferior" unicode="&#x2084;" horiz-adv-x="324" 
d="M294 2v-65h-51v-87h-69v87h-154v47l164 226h59v-208h51zM174 86l-59 -84h59v84z" />
    <glyph glyph-name="fiveinferior" unicode="&#x2085;" horiz-adv-x="341" 
d="M102 12l-45 31l24 167h186v-66h-126l-9 -55h57l50 -20l36 -34l16 -44v-41l-16 -46l-34 -36l-56 -23h-57l-51 20l-37 35l48 49l28 -27l25 -11h29l31 15l14 12l8 21v20l-7 18l-18 17l-21 7h-40z" />
    <glyph glyph-name="sixinferior" unicode="&#x2086;" horiz-adv-x="355" 
d="M119 -4v-32l6 -25l14 -15l23 -13h32l28 15l6 7l8 26v27l-5 14l-12 16l-24 12h-23l-30 -12l-19 -15zM119 79l38 15h52l57 -26l28 -41l11 -37v-43l-10 -33l-30 -43l-55 -26h-63l-58 27l-29 42l-10 36v145l13 48l37 46l56 26h55l55 -25l33 -31l-50 -46l-26 22l-28 14h-23
l-27 -13l-20 -25l-6 -24v-8z" />
    <glyph glyph-name="seveninferior" unicode="&#x2087;" horiz-adv-x="263" 
d="M30 -150l139 294h-149v66h233v-45l-146 -315h-77z" />
    <glyph glyph-name="eightinferior" unicode="&#x2088;" horiz-adv-x="354" 
d="M211 81l13 12l3 13v16l-5 12l-9 9l-23 6h-26l-24 -7l-10 -8l-3 -11v-19l3 -12l13 -11l13 -3h43zM156 12l-18 -8l-14 -13l-5 -15v-30l4 -16l13 -11l25 -7h32l23 6l15 14l4 14v30l-5 15l-13 13l-18 8h-43zM304 -66l-11 -36l-41 -39l-49 -14h-53l-48 14l-42 39l-10 36v51
l13 40l23 20l-13 11l-16 38v38l14 41l36 28l50 14h40l49 -14l37 -28l13 -41v-38l-15 -38l-12 -11l22 -21l13 -39v-51z" />
    <glyph glyph-name="nineinferior" unicode="&#x2089;" horiz-adv-x="356" 
d="M236 68v28l-7 24l-13 17l-22 12h-32l-27 -13l-8 -10l-7 -25v-24l4 -14l11 -17l27 -12h24l30 10l16 15zM236 -28v10l-36 -15h-56l-55 26l-29 43l-10 32v45l10 33l30 43l54 26h66l55 -26l28 -41l13 -41v-145l-14 -47l-36 -45l-55 -25h-57l-55 25l-33 31l53 50l24 -27
l27 -13h23l28 12l18 24z" />
    <glyph glyph-name="parenleftinferior" unicode="&#x208d;" horiz-adv-x="189" 
d="M114 2l13 -64l17 -44l30 -44l-51 -34l-36 52l-22 53l-15 75v70l15 75l22 52l36 52l51 -34l-30 -44l-17 -45l-13 -64v-56z" />
    <glyph glyph-name="parenrightinferior" unicode="&#x208e;" horiz-adv-x="189" 
d="M75 57l-13 64l-17 45l-30 44l51 34l36 -52l22 -52l15 -75v-70l-15 -75l-22 -53l-36 -52l-51 34l30 44l17 44l13 64v56z" />
    <glyph glyph-name="Won" unicode="&#x20a9;" 
d="M567 295l-34 -295h-89l-59 295h-130l-59 -295h-89l-34 295h-48v59h41l-11 97h-30v59h23l-23 201h83l22 -201h103l39 201h96l38 -201h104l22 201h83l-23 -201h27v-59h-34l-11 -97h45v-59h-52zM267 354h106l-19 97h-68zM435 354h58l10 97h-86zM147 354h57l18 97h-86z
M472 162l14 133h-40zM168 162l25 133h-40zM298 510h44l-22 111z" />
    <glyph glyph-name="Euro" unicode="&#x20ac;" 
d="M581 66l-60 -46l-77 -28h-96l-86 43l-67 71l-36 86l-12 62h-77v68h71v68h-71v68h77l12 61l36 86l68 71l87 43h97l87 -42l58 -70l-62 -50l-46 54l-55 26h-62l-57 -29l-45 -48l-28 -69l-6 -33h209v-68h-216v-68h216v-68h-209l6 -34l28 -69l44 -48l56 -29h67l51 18l49 37z
" />
    <glyph glyph-name="Indianrupeesign" unicode="&#x20b9;" 
d="M501 469l-15 -55l-49 -72l-59 -31l138 -311h-92l-129 296h-230v78h256l59 31l30 45l5 19h-350v69h354l-9 31l-45 45l-57 19h-243v78h519v-68h-134l32 -30l23 -75h79v-69h-83z" />
    <glyph glyph-name="TRY" unicode="&#x20ba;" 
d="M584 202l-44 -88l-69 -70l-112 -44h-182v197l-74 -40l-33 62l107 58v72l-74 -40l-33 62l107 58v282h83v-237l187 101l32 -62l-219 -119v-72l187 101l32 -62l-219 -119v-160h83l82 34l46 47l38 75z" />
    <glyph glyph-name="RUB" unicode="&#x20bd;" 
d="M224 160v-160h-83v160h-71v68h71v68h-71v78h71v337h273l93 -24l74 -74l29 -101l-27 -98l-49 -72l-92 -46h-218v-68h274v-68h-274zM224 374h194l60 31l29 45l17 59l-17 60l-43 43l-59 17h-181v-255z" />
    <glyph glyph-name="afii61289" unicode="&#x2113;" horiz-adv-x="487" 
d="M85 187l-50 66l107 79v322l55 82l74 26h32l65 -16l50 -54l24 -55v-103l-18 -57l-40 -67l-159 -119v-167l25 -36l36 -14h38l93 24l21 -78l-115 -28h-56l-70 26l-55 79v132zM321 464l26 45l12 39v71l-11 30l-24 25l-26 6h-22l-26 -13l-25 -37v-237z" />
    <glyph glyph-name="afii61352" unicode="&#x2116;" horiz-adv-x="1147" 
d="M95 711h71l394 -576v576h83v-711h-89l-376 552v-552h-83v711zM925 320l30 14l22 22l14 30l9 34v71l-9 34l-14 30l-22 22l-30 14h-36l-30 -14l-22 -22l-14 -30l-9 -34v-71l9 -34l14 -30l22 -22l30 -14h36zM939 663l59 -26l39 -39l25 -51l11 -50v-83l-11 -49l-25 -51
l-38 -40l-60 -26h-64l-60 26l-38 40l-25 51l-11 49v83l11 50l25 51l39 39l59 26h64zM737 178h340v-78h-340v78z" />
    <glyph glyph-name="trademark" unicode="&#x2122;" horiz-adv-x="842" 
d="M128 282v356h-101v73h275v-73h-101v-356h-73zM539 293l-93 239v-250h-71v429h73l117 -304l117 304h73v-429h-71v250l-93 -239h-52z" />
    <glyph glyph-name="uni2126" unicode="&#x2126;" horiz-adv-x="816" 
d="M368 638l-79 -32l-53 -50l-37 -59l-20 -62v-106l22 -71l44 -67l81 -89v-102h-256v82h174l-68 64l-50 76l-30 94v131l26 84l54 82l72 64l105 42h110l105 -42l72 -64l54 -82l26 -84v-131l-30 -94l-50 -76l-68 -64h174v-82h-256v102l81 89l44 67l22 71v106l-20 62l-37 59
l-53 50l-79 32h-80z" />
    <glyph glyph-name="estimated" unicode="&#x212e;" horiz-adv-x="585" 
d="M157 148l13 -44l33 -65l61 -30h60l88 23l63 52l13 -16l-65 -53l-92 -23h-83l-100 48l-68 92l-21 71v119l21 73l68 92l100 48h89l101 -48l67 -72l23 -67v-85h-371v-115zM420 293v78l-3 28l-33 90l-61 32h-62l-60 -31l-32 -83l-12 -37v-77h263z" />
    <glyph glyph-name="arrowleft" unicode="&#x2190;" horiz-adv-x="850" 
d="M305 464l-122 -119h597v-72h-597l122 -119l-46 -49l-189 183v42l189 183z" />
    <glyph glyph-name="arrowup" unicode="&#x2191;" horiz-adv-x="548" 
d="M70 522l183 189h42l183 -189l-49 -46l-119 122v-597h-72v597l-119 -122z" />
    <glyph glyph-name="arrowright" unicode="&#x2192;" horiz-adv-x="850" 
d="M591 513l189 -183v-42l-189 -183l-46 49l122 119h-597v72h597l-122 119z" />
    <glyph glyph-name="arrowdown" unicode="&#x2193;" horiz-adv-x="548" 
d="M119 236l119 -122v597h72v-597l119 122l49 -46l-183 -189h-42l-183 189z" />
    <glyph glyph-name="uni2196" unicode="&#x2196;" horiz-adv-x="850" 
d="M157 234l-4 263l30 30l263 -4l-2 -67l-171 2l423 -422l-51 -51l-423 422l3 -170z" />
    <glyph glyph-name="uni2197" unicode="&#x2197;" horiz-adv-x="850" 
d="M624 237l3 170l-423 -422l-51 51l423 422l-171 -2l-2 67l263 4l30 -30l-4 -263z" />
    <glyph glyph-name="uni2198" unicode="&#x2198;" horiz-adv-x="833" 
d="M692 293l4 -263l-30 -30l-263 4l2 67l171 -2l-423 422l51 51l423 -422l-3 170z" />
    <glyph glyph-name="uni2199" unicode="&#x2199;" horiz-adv-x="833" 
d="M225 290l-3 -170l423 422l51 -51l-423 -422l171 2l2 -67l-263 -4l-30 30l4 263z" />
    <glyph glyph-name="partialdiff" unicode="&#x2202;" horiz-adv-x="571" 
d="M316 575l-98 74l-91 25l21 80l106 -28l127 -97l101 -204l30 -139v-113l-26 -64l-48 -69l-96 -48h-115l-94 48l-48 69l-26 64v109l26 64l48 69l94 50h112l43 -25zM323 383h-76l-58 -33l-28 -39l-19 -46v-75l20 -47l27 -38l59 -31h74l60 30l28 41l19 44v86l-20 53l-34 36z
" />
    <glyph glyph-name="uni2206" unicode="&#x2206;" horiz-adv-x="682" 
d="M27 0l273 711h82l273 -711h-628zM536 82l-195 515l-195 -515h390z" />
    <glyph glyph-name="product" unicode="&#x220f;" horiz-adv-x="842" 
d="M500 401l9 14l7 28l-7 22l-15 17l-22 7h-91v-102h96zM724 398l-31 92l-60 82l-81 56l-90 31h-82l-90 -31l-81 -56l-60 -82l-31 -92v-85l31 -92l60 -82l81 -56l90 -31h82l90 31l81 56l60 82l31 92v85zM792 300l-37 -109l-75 -103l-98 -67l-107 -37h-108l-107 37l-98 67
l-75 103l-37 109v111l37 109l75 103l98 67l107 37h108l107 -37l98 -67l75 -103l37 -109v-111zM381 150h-73v411h171l54 -13l43 -44l16 -60l-15 -59l-28 -41l-54 -29h-114v-165z" />
    <glyph glyph-name="summation" unicode="&#x2211;" horiz-adv-x="583" 
d="M543 0v-82h-498v64l232 332l-232 333v64h498v-82h-387l222 -315l-222 -314h387z" />
    <glyph glyph-name="minus" unicode="&#x2212;" horiz-adv-x="580" 
d="M70 378h440v-78h-440v78z" />
    <glyph glyph-name="radical" unicode="&#x221a;" horiz-adv-x="732" 
d="M127 527l138 -411l233 739h214v-82h-154l-253 -793h-76l-189 547h87z" />
    <glyph glyph-name="infinity" unicode="&#x221e;" horiz-adv-x="778" 
d="M329 213l-40 -31l-33 -13l-36 -7h-28l-36 7l-33 13l-40 31l-27 31l-19 39l-7 38v37l7 38l19 39l27 31l40 31l33 13l36 7h28l36 -7l33 -13l40 -31l60 -69l60 69l40 31l33 13l36 7h28l36 -7l33 -13l40 -31l27 -31l19 -39l7 -38v-37l-7 -38l-19 -39l-27 -31l-40 -31l-33 -13
l-36 -7h-28l-36 7l-33 13l-40 31l-60 69zM338 339l-62 72l-24 18l-21 8l-16 3h-18l-16 -3l-21 -8l-24 -18l-15 -20l-9 -19l-4 -21v-23l4 -21l9 -19l15 -20l24 -18l21 -8l16 -3h18l16 3l21 8l24 18zM502 268l24 -18l21 -8l16 -3h18l16 3l21 8l24 18l15 20l9 19l4 21v23l-4 21
l-9 19l-15 20l-24 18l-21 8l-16 3h-18l-16 -3l-21 -8l-24 -18l-62 -72z" />
    <glyph glyph-name="integral" unicode="&#x222b;" horiz-adv-x="596" 
d="M484 680h-33l-37 -23l-24 -40l-105 -619l-52 -78l-74 -39h-69l-65 23l28 77l51 -18h36l36 20l29 42l106 622l41 69l76 46h65l78 -17l-19 -80z" />
    <glyph glyph-name="approxequal" unicode="&#x2248;" horiz-adv-x="660" 
d="M593 248l-62 -33l-69 -17h-52l-62 14l-63 21l-50 8h-26l-52 -13l-51 -27l-38 72l63 33l67 17h43l65 -10l67 -23l42 -10h40l43 11l55 29zM593 426l-62 -33l-69 -17h-52l-62 14l-63 21l-50 8h-26l-52 -13l-51 -27l-38 72l63 33l67 17h43l65 -10l67 -23l42 -10h40l43 11
l55 29z" />
    <glyph glyph-name="notequal" unicode="&#x2260;" horiz-adv-x="580" 
d="M70 296h154l60 86h-214v78h268l74 106l49 -34l-50 -72h99v-78h-153l-60 -86h213v-78h-267l-76 -109l-49 34l52 75h-100v78z" />
    <glyph glyph-name="lessequal" unicode="&#x2264;" horiz-adv-x="520" 
d="M131 380l301 -178l-37 -63l-347 206v71l347 206l37 -63zM450 78v-78h-404v78h404z" />
    <glyph glyph-name="greaterequal" unicode="&#x2265;" horiz-adv-x="520" 
d="M389 381l-301 178l37 63l347 -206v-71l-347 -206l-37 63zM474 78v-78h-404v78h404z" />
    <glyph glyph-name="uni2460" unicode="&#x2460;" horiz-adv-x="842" 
d="M724 398l-31 92l-60 82l-81 56l-90 31h-82l-90 -31l-81 -56l-60 -82l-31 -92v-85l31 -92l60 -82l81 -56l90 -31h82l90 31l81 56l60 82l31 92v85zM792 300l-37 -109l-75 -103l-98 -67l-107 -37h-108l-107 37l-98 67l-75 103l-37 109v111l37 109l75 103l98 67l107 37h108
l107 -37l98 -67l75 -103l37 -109v-111zM296 466l145 69h36v-360h-71v271l-80 -37z" />
    <glyph glyph-name="uni2461" unicode="&#x2461;" horiz-adv-x="842" 
d="M724 398l-31 92l-60 82l-81 56l-90 31h-82l-90 -31l-81 -56l-60 -82l-31 -92v-85l31 -92l60 -82l81 -56l90 -31h82l90 31l81 56l60 82l31 92v85zM792 300l-37 -109l-75 -103l-98 -67l-107 -37h-108l-107 37l-98 67l-75 103l-37 109v111l37 109l75 103l98 67l107 37h108
l107 -37l98 -67l75 -103l37 -109v-111zM291 478l35 36l57 24h61l59 -28l38 -57v-55l-24 -47l-111 -110h140v-68h-248v56l159 156l14 28v19l-17 26l-26 12h-31l-28 -12l-28 -29z" />
    <glyph glyph-name="uni2462" unicode="&#x2462;" horiz-adv-x="842" 
d="M724 398l-31 92l-60 82l-81 56l-90 31h-82l-90 -31l-81 -56l-60 -82l-31 -92v-85l31 -92l60 -82l81 -56l90 -31h82l90 31l81 56l60 82l31 92v85zM792 300l-37 -109l-75 -103l-98 -67l-107 -37h-108l-107 37l-98 67l-75 103l-37 109v111l37 109l75 103l98 67l107 37h108
l107 -37l98 -67l75 -103l37 -109v-111zM377 350v49l55 72h-110v66h205v-47l-64 -86l34 -13l36 -35l17 -42v-37l-17 -46l-33 -34l-58 -25h-58l-55 21l-36 36l50 49l28 -28l26 -12h30l31 13l15 16l8 19v17l-6 15l-19 19l-37 13h-42z" />
    <glyph glyph-name="uni2463" unicode="&#x2463;" horiz-adv-x="842" 
d="M724 398l-31 92l-60 82l-81 56l-90 31h-82l-90 -31l-81 -56l-60 -82l-31 -92v-85l31 -92l60 -82l81 -56l90 -31h82l90 31l81 56l60 82l31 92v85zM792 300l-37 -109l-75 -103l-98 -67l-107 -37h-108l-107 37l-98 67l-75 103l-37 109v111l37 109l75 103l98 67l107 37h108
l107 -37l98 -67l75 -103l37 -109v-111zM533 327v-65h-51v-87h-69v87h-154v47l164 226h59v-208h51zM413 411l-59 -84h59v84z" />
    <glyph glyph-name="uni2464" unicode="&#x2464;" horiz-adv-x="842" 
d="M724 398l-31 92l-60 82l-81 56l-90 31h-82l-90 -31l-81 -56l-60 -82l-31 -92v-85l31 -92l60 -82l81 -56l90 -31h82l90 31l81 56l60 82l31 92v85zM792 300l-37 -109l-75 -103l-98 -67l-107 -37h-108l-107 37l-98 67l-75 103l-37 109v111l37 109l75 103l98 67l107 37h108
l107 -37l98 -67l75 -103l37 -109v-111zM353 339l-45 31l24 167h186v-66h-126l-9 -55h57l50 -20l36 -34l16 -44v-41l-16 -46l-34 -36l-56 -23h-57l-51 20l-37 35l48 49l28 -27l25 -11h29l31 15l14 12l8 21v20l-7 18l-18 17l-21 7h-40z" />
    <glyph glyph-name="uni2465" unicode="&#x2465;" horiz-adv-x="842" 
d="M724 398l-31 92l-60 82l-81 56l-90 31h-82l-90 -31l-81 -56l-60 -82l-31 -92v-85l31 -92l60 -82l81 -56l90 -31h82l90 31l81 56l60 82l31 92v85zM792 300l-37 -109l-75 -103l-98 -67l-107 -37h-108l-107 37l-98 67l-75 103l-37 109v111l37 109l75 103l98 67l107 37h108
l107 -37l98 -67l75 -103l37 -109v-111zM363 321v-32l6 -25l14 -15l23 -13h32l28 15l6 7l8 26v27l-5 14l-12 16l-24 12h-23l-30 -12l-19 -15zM363 404l38 15h52l57 -26l28 -41l11 -37v-43l-10 -33l-30 -43l-55 -26h-63l-58 27l-29 42l-10 36v145l13 48l37 46l56 26h55l55 -25
l33 -31l-50 -46l-26 22l-28 14h-23l-27 -13l-20 -25l-6 -24v-8z" />
    <glyph glyph-name="uni2466" unicode="&#x2466;" horiz-adv-x="842" 
d="M724 398l-31 92l-60 82l-81 56l-90 31h-82l-90 -31l-81 -56l-60 -82l-31 -92v-85l31 -92l60 -82l81 -56l90 -31h82l90 31l81 56l60 82l31 92v85zM792 300l-37 -109l-75 -103l-98 -67l-107 -37h-108l-107 37l-98 67l-75 103l-37 109v111l37 109l75 103l98 67l107 37h108
l107 -37l98 -67l75 -103l37 -109v-111zM322 175l139 294h-149v66h233v-45l-146 -315h-77z" />
    <glyph glyph-name="uni2467" unicode="&#x2467;" horiz-adv-x="842" 
d="M724 398l-31 92l-60 82l-81 56l-90 31h-82l-90 -31l-81 -56l-60 -82l-31 -92v-85l31 -92l60 -82l81 -56l90 -31h82l90 31l81 56l60 82l31 92v85zM792 300l-37 -109l-75 -103l-98 -67l-107 -37h-108l-107 37l-98 67l-75 103l-37 109v111l37 109l75 103l98 67l107 37h108
l107 -37l98 -67l75 -103l37 -109v-111zM455 406l13 12l3 13v16l-5 12l-9 9l-23 6h-26l-24 -7l-10 -8l-3 -11v-19l3 -12l13 -11l13 -3h43zM400 337l-18 -8l-14 -13l-5 -15v-30l4 -16l13 -11l25 -7h32l23 6l15 14l4 14v30l-5 15l-13 13l-18 8h-43zM548 259l-11 -36l-41 -39
l-49 -14h-53l-48 14l-42 39l-10 36v51l13 40l23 20l-13 11l-16 38v38l14 41l36 28l50 14h40l49 -14l37 -28l13 -41v-38l-15 -38l-12 -11l22 -21l13 -39v-51z" />
    <glyph glyph-name="uni2468" unicode="&#x2468;" horiz-adv-x="842" 
d="M724 398l-31 92l-60 82l-81 56l-90 31h-82l-90 -31l-81 -56l-60 -82l-31 -92v-85l31 -92l60 -82l81 -56l90 -31h82l90 31l81 56l60 82l31 92v85zM792 300l-37 -109l-75 -103l-98 -67l-107 -37h-108l-107 37l-98 67l-75 103l-37 109v111l37 109l75 103l98 67l107 37h108
l107 -37l98 -67l75 -103l37 -109v-111zM479 393v28l-7 24l-13 17l-22 12h-32l-27 -13l-8 -10l-7 -25v-24l4 -14l11 -17l27 -12h24l30 10l16 15zM479 297v10l-36 -15h-56l-55 26l-29 43l-10 32v45l10 33l30 43l54 26h66l55 -26l28 -41l13 -41v-145l-14 -47l-36 -45l-55 -25
h-57l-55 25l-33 31l53 50l24 -27l27 -13h23l28 12l18 24z" />
    <glyph glyph-name="lozenge" unicode="&#x25ca;" horiz-adv-x="562" 
d="M40 355l198 356h86l198 -356l-198 -355h-86zM281 83l148 272l-148 273l-148 -274z" />
    <glyph glyph-name="circle" unicode="&#x25cb;" horiz-adv-x="842" 
d="M724 398l-31 92l-60 82l-81 56l-90 31h-82l-90 -31l-81 -56l-60 -82l-31 -92v-85l31 -92l60 -82l81 -56l90 -31h82l90 31l81 56l60 82l31 92v85zM792 300l-37 -109l-75 -103l-98 -67l-107 -37h-108l-107 37l-98 67l-75 103l-37 109v111l37 109l75 103l98 67l107 37h108
l107 -37l98 -67l75 -103l37 -109v-111z" />
    <glyph glyph-name="uni2776" unicode="&#x2776;" horiz-adv-x="842" 
d="M792 300l-37 -109l-75 -103l-98 -67l-107 -37h-108l-107 37l-98 67l-75 103l-37 109v111l37 109l75 103l98 67l107 37h108l107 -37l98 -67l75 -103l37 -109v-111zM326 409l80 37v-271h71v360h-36l-145 -69z" />
    <glyph glyph-name="uni2777" unicode="&#x2777;" horiz-adv-x="842" 
d="M792 300l-37 -109l-75 -103l-98 -67l-107 -37h-108l-107 37l-98 67l-75 103l-37 109v111l37 109l75 103l98 67l107 37h108l107 -37l98 -67l75 -103l37 -109v-111zM341 429l28 29l28 12h31l26 -12l17 -26v-19l-14 -28l-159 -156v-56h248v68h-140l111 110l24 47v55l-38 57
l-59 28h-61l-57 -24l-35 -36z" />
    <glyph glyph-name="uni2778" unicode="&#x2778;" horiz-adv-x="842" 
d="M792 300l-37 -109l-75 -103l-98 -67l-107 -37h-108l-107 37l-98 67l-75 103l-37 109v111l37 109l75 103l98 67l107 37h108l107 -37l98 -67l75 -103l37 -109v-111zM419 350l37 -13l19 -19l6 -15v-17l-8 -19l-15 -16l-31 -13h-30l-26 12l-28 28l-50 -49l36 -36l55 -21h58
l58 25l33 34l17 46v37l-17 42l-36 35l-34 13l64 86v47h-205v-66h110l-55 -72v-49h42z" />
    <glyph glyph-name="uni2779" unicode="&#x2779;" horiz-adv-x="842" 
d="M792 300l-37 -109l-75 -103l-98 -67l-107 -37h-108l-107 37l-98 67l-75 103l-37 109v111l37 109l75 103l98 67l107 37h108l107 -37l98 -67l75 -103l37 -109v-111zM482 327v208h-59l-164 -226v-47h154v-87h69v87h51v65h-51zM413 327h-59l59 84v-84z" />
    <glyph glyph-name="uni277A" unicode="&#x277a;" horiz-adv-x="842" 
d="M792 300l-37 -109l-75 -103l-98 -67l-107 -37h-108l-107 37l-98 67l-75 103l-37 109v111l37 109l75 103l98 67l107 37h108l107 -37l98 -67l75 -103l37 -109v-111zM388 348h40l21 -7l18 -17l7 -18v-20l-8 -21l-14 -12l-31 -15h-29l-25 11l-28 27l-48 -49l37 -35l51 -20h57
l56 23l34 36l16 46v41l-16 44l-36 34l-50 20h-57l9 55h126v66h-186l-24 -167l45 -31z" />
    <glyph glyph-name="uni277B" unicode="&#x277b;" horiz-adv-x="842" 
d="M792 300l-37 -109l-75 -103l-98 -67l-107 -37h-108l-107 37l-98 67l-75 103l-37 109v111l37 109l75 103l98 67l107 37h108l107 -37l98 -67l75 -103l37 -109v-111zM367 326l19 15l30 12h23l24 -12l12 -16l5 -14v-27l-8 -26l-6 -7l-28 -15h-32l-23 13l-14 15l-6 25v32z
M363 412l6 24l20 25l27 13h23l28 -14l26 -22l50 46l-33 31l-55 25h-55l-56 -26l-37 -46l-13 -48v-145l10 -36l29 -42l58 -27h63l55 26l30 43l10 33v43l-11 37l-28 41l-57 26h-52l-38 -15v8z" />
    <glyph glyph-name="uni277C" unicode="&#x277c;" horiz-adv-x="842" 
d="M792 300l-37 -109l-75 -103l-98 -67l-107 -37h-108l-107 37l-98 67l-75 103l-37 109v111l37 109l75 103l98 67l107 37h108l107 -37l98 -67l75 -103l37 -109v-111zM399 175l146 315v45h-233v-66h149l-139 -294h77z" />
    <glyph glyph-name="uni277D" unicode="&#x277d;" horiz-adv-x="842" 
d="M792 300l-37 -109l-75 -103l-98 -67l-107 -37h-108l-107 37l-98 67l-75 103l-37 109v111l37 109l75 103l98 67l107 37h108l107 -37l98 -67l75 -103l37 -109v-111zM443 403h-43l-13 3l-13 11l-3 12v19l3 11l10 8l24 7h26l23 -6l9 -9l5 -12v-16l-3 -13l-13 -12zM443 337
l18 -8l13 -13l5 -15v-30l-4 -14l-15 -14l-23 -6h-32l-25 7l-13 11l-4 16v30l5 15l14 13l18 8h43zM548 310l-13 39l-22 21l12 11l15 38v38l-13 41l-37 28l-49 14h-40l-50 -14l-36 -28l-14 -41v-38l16 -38l13 -11l-23 -20l-13 -40v-51l10 -36l42 -39l48 -14h53l49 14l41 39
l11 36v51z" />
    <glyph glyph-name="uni277E" unicode="&#x277e;" horiz-adv-x="842" 
d="M792 300l-37 -109l-75 -103l-98 -67l-107 -37h-108l-107 37l-98 67l-75 103l-37 109v111l37 109l75 103l98 67l107 37h108l107 -37l98 -67l75 -103l37 -109v-111zM475 384l-16 -15l-30 -10h-24l-27 12l-11 17l-4 14v24l7 25l8 10l27 13h32l22 -12l13 -17l7 -24v-28z
M472 272l-18 -24l-28 -12h-23l-27 13l-24 27l-53 -50l33 -31l55 -25h57l55 25l36 45l14 47v145l-13 41l-28 41l-55 26h-66l-54 -26l-30 -43l-10 -33v-45l10 -32l29 -43l55 -26h56l36 15v-10z" />
    <glyph glyph-name="commaaccent" unicode="&#xf6c3;" horiz-adv-x="268" 
d="M79 -102v77h109v-55l-72 -128l-36 17l35 74z" />
    <glyph glyph-name="asuperior" unicode="&#xf6e9;" horiz-adv-x="342" 
d="M212 480l3 12v13l-6 7l-11 6l-24 7h-18l-30 -8l-15 -15l-4 -12v-11l13 -18l8 -5l21 -6h12l33 12zM53 630l19 18l31 21l29 8h50l38 -8l40 -29l16 -40v-145l23 -34l-50 -35l-22 33l-3 -4l-50 -25h-35l-32 10l-30 17l-30 44v33l7 35l41 42l52 14h33l35 -13v19l-3 8l-17 12
l-22 6h-31l-19 -7l-15 -9l-14 -14z" />
    <glyph glyph-name="bsuperior" unicode="&#xf6ea;" horiz-adv-x="345" 
d="M120 659l28 18h49l56 -26l36 -49l11 -37v-62l-11 -38l-36 -49l-54 -26h-49l-30 11v-7h-60v391h60v-126zM128 465l14 -9l20 -6h26l25 13l21 28l6 22v42l-6 21l-21 29l-26 12h-30l-25 -19l-12 -18v-106z" />
    <glyph glyph-name="dsuperior" unicode="&#xf6eb;" horiz-adv-x="345" 
d="M221 394v14l-28 -18h-50l-56 26l-36 49l-11 37v62l11 38l36 49l54 26h49l31 -11v119h60v-391h-60zM213 601l-14 10l-21 7h-26l-24 -13l-23 -29l-5 -21v-43l6 -21l22 -29l26 -12h27l28 20l12 17v106z" />
    <glyph glyph-name="esuperior" unicode="&#xf6ec;" horiz-adv-x="340" 
d="M105 504l4 -13l22 -29l25 -12h24l31 7l34 21l32 -49l-44 -28l-44 -11h-46l-53 26l-37 49l-10 37v62l10 38l37 49l53 26h49l54 -26l36 -50l11 -33v-64h-188zM105 563h127l-4 11l-22 30l-26 13h-26l-24 -12l-21 -28z" />
    <glyph glyph-name="isuperior" unicode="&#xf6ed;" horiz-adv-x="198" 
d="M60 785h78v-81h-78v81zM68 673h61v-279h-61v279z" />
    <glyph glyph-name="lsuperior" unicode="&#xf6ee;" horiz-adv-x="179" 
d="M59 394v391h60v-391h-60z" />
    <glyph glyph-name="msuperior" unicode="&#xf6ef;" horiz-adv-x="495" 
d="M215 595l-10 16l-20 6h-26l-31 -20l-13 -17v-186h-60v279h60v-15l33 19h51l43 -12l14 -20l14 11l38 21h51l43 -12l33 -47v-224h-60v204l-8 12l-21 7h-26l-33 -21l-11 -16v-186h-61v201z" />
    <glyph glyph-name="osuperior" unicode="&#xf6f0;" horiz-adv-x="333" 
d="M136 390l-54 26l-28 41l-10 45v62l10 45l28 42l54 26h57l54 -26l28 -42l9 -45v-62l-9 -45l-28 -41l-54 -26h-57zM181 450l25 12l11 17l7 30v50l-7 29l-11 16l-25 13h-34l-24 -13l-12 -17l-7 -28v-50l7 -30l12 -17l24 -12h34z" />
    <glyph glyph-name="rsuperior" unicode="&#xf6f1;" horiz-adv-x="248" 
d="M184 617h-20l-21 -10l-19 -22l-10 -20v-171h-61v279h61v-17l4 4l37 17h36l34 -9l-14 -58z" />
    <glyph glyph-name="ssuperior" unicode="&#xf6f2;" horiz-adv-x="300" 
d="M125 571l75 -14l33 -22l22 -35v-47l-21 -33l-31 -21l-31 -9h-48l-44 11l-25 20l-20 21l43 41l14 -18l11 -8l27 -7h31l19 5l9 6l6 8v15l-5 8l-12 8l-69 15l-37 18l-23 34v50l18 31l24 20l34 9h46l42 -10l39 -28l-32 -48l-28 19l-27 8h-33l-18 -8l-6 -9v-16z" />
    <glyph glyph-name="tsuperior" unicode="&#xf6f3;" horiz-adv-x="273" 
d="M146 667h68v-60h-68v-140l10 -12l10 -5h14l43 11l14 -58l-55 -13h-24l-42 15l-30 44v158h-47v60h47v90h60v-90z" />
    <glyph glyph-name="apple" unicode="&#xf8ff;" horiz-adv-x="1480" 
d="M156 192l189 78h-305v78h305l-189 78l29 72l188 -78l-215 215l56 56l215 -215l-78 188l72 29l78 -189v305h78v-305l78 189l72 -29l-78 -188l215 215l56 -56l-215 -215l188 78l29 -72l-189 -78h705v-78h-705l189 -78l-29 -72l-188 78l215 -215l-56 -56l-215 215l78 -188
l-72 -29l-78 188v-304h-78v304l-78 -188l-72 29l78 188l-215 -215l-56 56l215 215l-188 -78z" />
    <glyph glyph-name="ff" unicode="&#xfb00;" horiz-adv-x="770" 
d="M375 755l-7 -82l-75 7h-27l-38 -13l-25 -37v-116h284v140l55 82l84 26h40l89 -20l-21 -81l-74 19h-27l-38 -13l-25 -37v-116h134v-82h-134v-432h-83v432h-284v-432h-83v432h-95v82h95v140l55 82l84 26h40z" />
    <glyph glyph-name="ffi" unicode="&#xfb03;" horiz-adv-x="1027" 
d="M203 432v-432h-83v432h-95v82h95v140l55 82l84 26h40l76 -7l-7 -82l-75 7h-27l-38 -13l-25 -37v-116h284v140l55 82l84 26h40l89 -20l-21 -81l-74 19h-27l-38 -13l-25 -37v-116h367v-514h-83v432h-284v-432h-83v432h-284zM955 754v-123h-119v123h119z" />
    <glyph glyph-name="ffl" unicode="&#xfb04;" horiz-adv-x="1027" 
d="M487 654l55 82l84 26h40l89 -20l-21 -81l-74 19h-27l-38 -13l-25 -37v-116h284v240h83v-754h-83v432h-284v-432h-83v432h-284v-432h-83v432h-95v82h95v140l55 82l84 26h40l76 -7l-7 -82l-75 7h-27l-38 -13l-25 -37v-116h284v140z" />
    <glyph glyph-name="nonbreakingspace" horiz-adv-x="0" 
 />
    <glyph glyph-name="zero.tlfslash" 
d="M272 -8l-91 43l-70 71l-36 86l-17 91v145l17 91l36 86l70 71l91 43h95l91 -43l70 -71l36 -86l17 -91v-145l-17 -91l-36 -86l-70 -71l-91 -43h-95zM156 213l6 -14l276 381l-28 28l-60 29h-61l-60 -29l-50 -51l-24 -62l-14 -73v-132zM409 102l50 53l24 58l15 77v132l-14 73
l-7 17l-275 -380l28 -30l58 -28h63z" />
    <glyph glyph-name="zero.tlf" 
d="M273 -8l-91 43l-70 71l-36 86l-17 91v145l17 91l36 86l70 71l91 43h95l91 -43l70 -71l36 -86l17 -91v-145l-17 -91l-36 -86l-70 -71l-91 -43h-95zM410 102l50 53l24 58l15 77v132l-14 73l-24 62l-50 51l-60 29h-61l-60 -29l-50 -51l-24 -62l-14 -73v-132l15 -77l24 -58
l50 -53l58 -28h63z" />
    <glyph glyph-name="one.tlf" 
d="M307 601l-170 -88l-37 74l245 124h45v-629h171v-82h-440v82h186v519z" />
    <glyph glyph-name="zero.slash" 
d="M272 -8l-91 43l-70 71l-36 86l-17 91v145l17 91l36 86l70 71l91 43h95l91 -43l70 -71l36 -86l17 -91v-145l-17 -91l-36 -86l-70 -71l-91 -43h-95zM156 213l6 -14l276 381l-28 28l-60 29h-61l-60 -29l-50 -51l-24 -62l-14 -73v-132zM409 102l50 53l24 58l15 77v132l-14 73
l-7 17l-275 -380l28 -30l58 -28h63z" />
    <glyph glyph-name="two.tlf" 
d="M103 626l44 46l105 47h108l104 -51l66 -104v-96l-44 -90l-268 -296h320v-82h-433v74l311 349l31 62v55l-40 65l-67 32h-72l-71 -34l-35 -36z" />
    <glyph glyph-name="three.tlf" 
d="M252 372v66l139 191h-251v82h361v-65l-148 -204l96 -36l70 -70l29 -77v-73l-29 -78l-65 -69l-106 -47h-106l-101 42l-49 47l59 59l38 -38l68 -28h74l75 34l40 42l19 47v50l-18 44l-44 46l-87 35h-64z" />
    <glyph glyph-name="four.tlf" 
d="M576 266v-82h-107v-184h-83v184h-321v63l326 464h78v-445h107zM386 563l-215 -297h215v297z" />
    <glyph glyph-name="five.tlf" 
d="M187 349l-68 49l43 313h336v-82h-264l-30 -191l32 14h121l92 -36l70 -70l29 -77v-83l-29 -78l-65 -69l-106 -47h-106l-101 42l-49 47l59 59l38 -38l68 -28h74l75 34l40 43l19 47v58l-18 44l-46 47l-61 23h-91z" />
    <glyph glyph-name="six.tlf" 
d="M171 287v-82l14 -51l34 -48l64 -32h80l64 32l27 39l16 53v63l-13 44l-29 42l-65 34h-62l-67 -28l-47 -38zM203 428l84 35h94l104 -52l49 -72l19 -69v-83l-20 -73l-50 -71l-102 -51h-117l-103 51l-52 75l-21 75v300l24 86l68 91l104 49h99l100 -47l44 -42l-59 -59l-33 32
l-70 34h-63l-67 -32l-47 -62l-17 -64v-79z" />
    <glyph glyph-name="seven.tlf" 
d="M159 0l285 629h-325v82h422v-60l-289 -651h-93z" />
    <glyph glyph-name="eight.tlf" 
d="M409 440l31 31l13 39v44l-14 40l-31 27l-58 16h-59l-58 -16l-31 -27l-14 -40v-44l13 -39l31 -31l43 -15h91zM272 345l-46 -17l-41 -42l-13 -43v-67l11 -43l42 -40l60 -19h71l60 19l42 40l11 43v67l-13 43l-41 42l-46 17h-97zM552 162l-21 -73l-71 -69l-93 -28h-93l-93 28
l-71 69l-21 73v93l24 74l63 59l-44 38l-27 69v72l25 74l61 51l91 27h77l91 -27l61 -51l25 -74v-72l-27 -69l-44 -38l63 -59l24 -74v-93z" />
    <glyph glyph-name="nine.tlf" 
d="M470 427v79l-14 51l-34 48l-64 32h-80l-64 -32l-27 -39l-16 -53v-60l13 -44l29 -42l65 -34h65l67 28l46 38zM438 286l-83 -35h-95l-104 52l-49 72l-19 69v80l20 73l50 71l102 51h117l103 -51l52 -75l21 -75v-305l-24 -85l-68 -89l-104 -47h-99l-100 47l-44 42l59 59
l33 -32l70 -34h63l67 30l47 60l17 63v87z" />
    <glyph glyph-name="zero.otlf" 
d="M459 504l61 -56l39 -66l17 -69v-99l-17 -69l-39 -66l-61 -56l-80 -31h-118l-80 31l-61 56l-39 66l-17 69v99l17 69l39 66l61 56l80 31h118zM414 94l43 40l23 39l13 49v82l-13 51l-23 39l-43 40l-49 19h-90l-49 -19l-43 -40l-23 -39l-13 -51v-82l13 -49l23 -39l43 -40
l49 -20h90z" />
    <glyph glyph-name="one.otlf" 
d="M307 417l-170 -88l-37 74l245 124h45v-445h171v-82h-440v82h186v335z" />
    <glyph glyph-name="two.otlf" 
d="M405 291l30 48v33l-37 48l-61 33h-51l-71 -34l-33 -34l-61 57l44 46l105 47h88l94 -51l66 -83v-82l-51 -87l-235 -150h299v-82h-408v100z" />
    <glyph glyph-name="three.otlf" 
d="M252 213v66l139 166h-251v82h361v-65l-148 -179l96 -36l70 -70l29 -77v-73l-29 -78l-65 -69l-106 -47h-106l-101 42l-49 47l59 59l38 -38l68 -28h74l75 34l40 42l19 47v50l-18 44l-44 46l-87 35h-64z" />
    <glyph glyph-name="four.otlf" 
d="M576 104v-82h-107v-184h-83v184h-321v63l326 442h78v-423h107zM386 386l-213 -282h213v282z" />
    <glyph glyph-name="five.otlf" 
d="M187 190l-68 49l43 288h336v-82h-264l-29 -166l31 14h121l92 -36l70 -70l29 -77v-83l-29 -78l-65 -69l-106 -47h-106l-101 42l-49 47l59 59l38 -38l68 -28h74l75 34l40 43l19 47v58l-18 44l-46 47l-61 23h-91z" />
    <glyph glyph-name="six.otlf" 
d="M171 287v-82l14 -51l34 -48l64 -32h80l64 32l27 39l16 53v63l-13 44l-29 42l-65 34h-62l-67 -28l-47 -38zM203 428l84 35h94l104 -52l49 -72l19 -69v-83l-20 -73l-50 -71l-102 -51h-117l-103 51l-52 75l-21 75v300l24 86l68 91l104 49h99l100 -47l44 -42l-59 -59l-33 32
l-70 34h-63l-67 -32l-47 -62l-17 -64v-79z" />
    <glyph glyph-name="seven.otlf" 
d="M161 -162l283 607h-325v82h422v-60l-288 -629h-92z" />
    <glyph glyph-name="eight.otlf" 
d="M409 440l31 31l13 39v44l-14 40l-31 27l-58 16h-59l-58 -16l-31 -27l-14 -40v-44l13 -39l31 -31l43 -15h91zM272 345l-46 -17l-41 -42l-13 -43v-67l11 -43l42 -40l60 -19h71l60 19l42 40l11 43v67l-13 43l-41 42l-46 17h-97zM552 162l-21 -73l-71 -69l-93 -28h-93l-93 28
l-71 69l-21 73v93l24 74l63 59l-44 38l-27 69v72l25 74l61 51l91 27h77l91 -27l61 -51l25 -74v-72l-27 -69l-44 -38l63 -59l24 -74v-93z" />
    <glyph glyph-name="nine.otlf" 
d="M470 245v77l-14 51l-34 48l-64 32h-80l-64 -32l-27 -39l-16 -53v-58l13 -44l29 -42l65 -34h65l67 28l46 38zM438 104l-83 -35h-95l-104 52l-49 72l-19 69v78l20 73l50 71l102 51h117l103 -51l52 -75l21 -75v-280l-24 -85l-68 -89l-104 -47h-99l-100 47l-44 42l59 59
l33 -32l70 -34h63l67 30l47 60l17 63v64z" />
    <glyph glyph-name="zero.oplf" horiz-adv-x="632" 
d="M455 504l61 -56l39 -66l17 -69v-99l-17 -69l-39 -66l-61 -56l-80 -31h-118l-80 31l-61 56l-39 66l-17 69v99l17 69l39 66l61 56l80 31h118zM410 94l43 40l23 39l13 49v82l-13 51l-23 39l-43 40l-49 19h-90l-49 -19l-43 -40l-23 -39l-13 -51v-82l13 -49l23 -39l43 -40
l49 -20h90z" />
    <glyph glyph-name="one.oplf" horiz-adv-x="395" 
d="M217 417l-170 -88l-37 74l245 124h45v-527h-83v417z" />
    <glyph glyph-name="two.oplf" horiz-adv-x="505" 
d="M329 291l30 48v33l-37 48l-61 33h-51l-71 -34l-33 -34l-61 57l44 46l105 47h88l94 -51l66 -83v-82l-51 -87l-235 -150h299v-82h-408v100z" />
    <glyph glyph-name="three.oplf" horiz-adv-x="541" 
d="M190 213v66l139 166h-251v82h361v-65l-148 -179l96 -36l70 -70l29 -77v-73l-29 -78l-65 -69l-106 -47h-106l-101 42l-49 47l59 59l38 -38l68 -28h74l75 34l40 42l19 47v50l-18 44l-44 46l-87 35h-64z" />
    <glyph glyph-name="four.oplf" horiz-adv-x="551" 
d="M526 104v-82h-107v-184h-83v184h-321v63l326 442h78v-423h107zM336 386l-213 -282h213v282z" />
    <glyph glyph-name="five.oplf" horiz-adv-x="566" 
d="M145 190l-68 49l43 288h336v-82h-264l-29 -166l31 14h121l92 -36l70 -70l29 -77v-83l-29 -78l-65 -69l-106 -47h-106l-101 42l-49 47l59 59l38 -38l68 -28h74l75 34l40 43l19 47v58l-18 44l-46 47l-61 23h-91z" />
    <glyph glyph-name="six.oplf" horiz-adv-x="580" 
d="M143 287v-82l14 -51l34 -48l64 -32h80l64 32l27 39l16 53v63l-13 44l-29 42l-65 34h-62l-67 -28l-47 -38zM175 428l84 35h94l104 -52l49 -72l19 -69v-83l-20 -73l-50 -71l-102 -51h-117l-103 51l-52 75l-21 75v300l24 86l68 91l104 49h99l100 -47l44 -42l-59 -59l-33 32
l-70 34h-63l-67 -32l-47 -62l-17 -64v-79z" />
    <glyph glyph-name="seven.oplf" horiz-adv-x="467" 
d="M72 -162l283 607h-325v82h422v-60l-288 -629h-92z" />
    <glyph glyph-name="eight.oplf" horiz-adv-x="583" 
d="M380 440l31 31l13 39v44l-14 40l-31 27l-58 16h-59l-58 -16l-31 -27l-14 -40v-44l13 -39l31 -31l43 -15h91zM243 345l-46 -17l-41 -42l-13 -43v-67l11 -43l42 -40l60 -19h71l60 19l42 40l11 43v67l-13 43l-41 42l-46 17h-97zM523 162l-21 -73l-71 -69l-93 -28h-93l-93 28
l-71 69l-21 73v93l24 74l63 59l-44 38l-27 69v72l25 74l61 51l91 27h77l91 -27l61 -51l25 -74v-72l-27 -69l-44 -38l63 -59l24 -74v-93z" />
    <glyph glyph-name="nine.oplf" horiz-adv-x="580" 
d="M437 245v77l-14 51l-34 48l-64 32h-80l-64 -32l-27 -39l-16 -53v-58l13 -44l29 -42l65 -34h65l67 28l46 38zM405 104l-83 -35h-95l-104 52l-49 72l-19 69v78l20 73l50 71l102 51h117l103 -51l52 -75l21 -75v-280l-24 -85l-68 -89l-104 -47h-99l-100 47l-44 42l59 59
l33 -32l70 -34h63l67 30l47 60l17 63v64z" />
    <glyph glyph-name="commaturn" horiz-adv-x="268" 
d="M174 728v-97h-109v91l74 145l49 -27l-44 -99z" />
    <glyph glyph-name="grave.uc" horiz-adv-x="310" 
d="M40 863l36 65l194 -107l-36 -65z" />
    <glyph glyph-name="circumflex.uc" horiz-adv-x="430" 
d="M241 931l149 -120l-47 -57l-128 105l-128 -105l-47 57l149 120h52z" />
    <glyph glyph-name="caron.uc" horiz-adv-x="430" 
d="M189 754l-149 120l47 57l128 -105l128 105l47 -57l-149 -120h-52z" />
    <glyph glyph-name="acute.uc" horiz-adv-x="310" 
d="M76 756l-36 65l194 107l36 -65z" />
    <glyph glyph-name="tilde.uc" horiz-adv-x="447" 
d="M170 811h-17l-25 -9l-17 -18l-6 -20l-65 22l10 32l15 26l25 18l50 23h42l44 -18l39 -23l12 -5h17l24 11l18 15l6 20l65 -22l-10 -32l-15 -26l-25 -19l-51 -22h-37l-39 15l-44 27z" />
    <glyph glyph-name="breve.uc" horiz-adv-x="349" 
d="M207 825l27 23l7 19v18h68v-31l-14 -39l-49 -44l-51 -17h-41l-51 17l-49 44l-14 39v31h68v-18l7 -19l27 -23l25 -8h15z" />
    <glyph glyph-name="dieresis.uc" horiz-adv-x="411" 
d="M40 915h106v-109h-106v109zM265 915h106v-109h-106v109z" />
    <glyph glyph-name="dotaccent.uc" horiz-adv-x="199" 
d="M40 929h119v-123h-119v123z" />
    <glyph glyph-name="hungarumlaut.uc" horiz-adv-x="454" 
d="M219 896l-126 -140l-53 48l126 140zM414 896l-126 -140l-53 48l126 140z" />
    <glyph glyph-name="ring.uc" horiz-adv-x="295" 
d="M204 864l-7 21l-17 18l-22 8h-21l-22 -8l-17 -18l-7 -21v-22l7 -21l17 -18l22 -8h21l22 8l17 18l7 21v22zM255 834l-13 -35l-35 -40l-41 -15h-37l-41 15l-36 40l-12 35v38l12 35l36 40l41 15h37l41 -15l35 -40l13 -35v-38z" />
    <glyph glyph-name="at.case" horiz-adv-x="840" 
d="M650 201l38 33l36 79v100l-25 99l-54 76l-73 50l-90 21h-102l-90 -31l-81 -56l-60 -82l-31 -92v-85l31 -92l60 -82l81 -56l90 -31h82l87 32l30 -62l-104 -38h-108l-107 37l-98 67l-75 103l-37 109v111l37 109l75 103l98 67l107 37h128l107 -27l90 -61l69 -97l31 -116
v-126l-51 -109l-75 -58h-58l-53 31l-26 39l-17 -21l-70 -34h-49l-52 16l-36 21l-43 62v48l11 48l57 56l74 21h49l51 -18l15 -11v54l-8 21l-29 21l-34 9h-56l-28 -9l-28 -17l-13 -13l-47 48l21 20l38 24l47 14h70l58 -14l56 -38l21 -52v-218l28 -40h35zM519 317l-12 11
l-27 15l-36 10h-31l-48 -13l-31 -33l-4 -19v-19l22 -33l17 -9l32 -11h31l42 19l37 33l8 14v35z" />
    <glyph glyph-name="bar.case" horiz-adv-x="313" 
d="M193 -137h-73v956h73v-956z" />
    <glyph glyph-name="brokenbar.case" horiz-adv-x="313" 
d="M193 -137h-73v390h73v-390zM193 429h-73v390h73v-390z" />
    <glyph glyph-name="plus.case" horiz-adv-x="580" 
d="M251 125v191h-181v78h181v191h78v-191h181v-78h-181v-191h-78z" />
    <glyph glyph-name="bracketleft.case" horiz-adv-x="346" 
d="M276 -77v-80h-216v983h216v-80h-134v-823h134z" />
    <glyph glyph-name="bracketright.case" horiz-adv-x="346" 
d="M204 -77v823h-134v80h216v-983h-216v80h134z" />
    <glyph glyph-name="minus.case" horiz-adv-x="580" 
d="M70 394h440v-78h-440v78z" />
    <glyph glyph-name="multiply.case" horiz-adv-x="580" 
d="M75 195l160 160l-160 160l55 55l160 -160l160 160l55 -55l-160 -160l160 -160l-55 -55l-160 160l-160 -160z" />
    <glyph glyph-name="divide.case" horiz-adv-x="580" 
d="M70 394h440v-78h-440v78zM230 244h119v-117h-119v117zM230 583h119v-117h-119v117z" />
    <glyph glyph-name="equal.case" horiz-adv-x="580" 
d="M70 476h440v-78h-440v78zM70 312h440v-78h-440v78z" />
    <glyph glyph-name="notequal.case" horiz-adv-x="580" 
d="M70 312h158l60 86h-218v78h272l70 100l49 -34l-46 -66h95v-78h-149l-60 -86h209v-78h-263l-80 -115l-49 34l56 81h-104v78z" />
    <glyph glyph-name="approxequal.case" horiz-adv-x="660" 
d="M593 254l-62 -33l-69 -17h-52l-62 14l-63 21l-50 8h-26l-52 -13l-51 -27l-38 72l63 33l67 17h43l65 -10l67 -23l42 -10h40l43 11l55 29zM593 432l-62 -33l-69 -17h-52l-62 14l-63 21l-50 8h-26l-52 -13l-51 -27l-38 72l63 33l67 17h43l65 -10l67 -23l42 -10h40l43 11
l55 29z" />
    <glyph glyph-name="logicalnot.case" horiz-adv-x="600" 
d="M510 392v-300h-78v222h-362v78h440z" />
    <glyph glyph-name="parenleft.case" horiz-adv-x="348" 
d="M143 277l32 -160l44 -111l59 -86l-67 -46l-65 93l-51 123l-35 179v155l35 179l51 123l65 93l67 -46l-59 -86l-44 -111l-32 -160v-139z" />
    <glyph glyph-name="parenright.case" horiz-adv-x="348" 
d="M205 416l-32 160l-44 111l-59 86l67 46l65 -93l51 -123l35 -179v-155l-35 -179l-51 -123l-65 -93l-67 46l59 86l44 111l32 160v139z" />
    <glyph glyph-name="hyphen.case" horiz-adv-x="480" 
d="M70 394h340v-78h-340v78z" />
    <glyph glyph-name="braceleft.case" horiz-adv-x="413" 
d="M353 746h-98l-24 -14l-12 -26v-267l-86 -86l86 -86v-304l12 -26l24 -14h98v-80h-125l-59 32l-32 61v298l-97 99v36l97 99v265l32 61l59 32h125v-80z" />
    <glyph glyph-name="braceright.case" horiz-adv-x="413" 
d="M60 826h125l59 -32l32 -61v-265l97 -99v-36l-97 -99v-298l-32 -61l-59 -32h-125v80h98l24 14l12 26v304l86 86l-86 86v267l-12 26l-24 14h-98v80z" />
    <glyph glyph-name="guillemotleft.case" horiz-adv-x="538" 
d="M128 355l127 -172l-64 -52l-146 198v52l146 198l64 -52zM341 355l127 -172l-64 -52l-146 198v52l146 198l64 -52z" />
    <glyph glyph-name="guillemotright.case" horiz-adv-x="538" 
d="M283 527l64 52l146 -198v-52l-146 -198l-64 52l127 172zM70 527l64 52l146 -198v-52l-146 -198l-64 52l127 172z" />
    <glyph glyph-name="endash.case" 
d="M570 391v-72h-500v72h500z" />
    <glyph glyph-name="emdash.case" horiz-adv-x="1280" 
d="M70 319v72h1140v-72h-1140z" />
    <glyph glyph-name="guilsinglleft.case" horiz-adv-x="325" 
d="M128 355l127 -172l-64 -52l-146 198v52l146 198l64 -52z" />
    <glyph glyph-name="guilsinglright.case" horiz-adv-x="325" 
d="M70 527l64 52l146 -198v-52l-146 -198l-64 52l127 172z" />
    <glyph glyph-name="less.case" horiz-adv-x="500" 
d="M129 355l301 -178l-37 -63l-347 206v71l347 206l37 -63z" />
    <glyph glyph-name="greater.case" horiz-adv-x="500" 
d="M371 355l-301 178l37 63l347 -206v-71l-347 -206l-37 63z" />
    <glyph glyph-name="arrowup.case" horiz-adv-x="548" 
d="M70 522l183 189h42l183 -189l-49 -46l-119 122v-597h-72v597l-119 -122z" />
    <glyph glyph-name="arrowright.case" horiz-adv-x="850" 
d="M591 582l189 -183v-42l-189 -183l-46 49l122 119h-597v72h597l-122 119z" />
    <glyph glyph-name="arrowdown.case" horiz-adv-x="548" 
d="M119 236l119 -122v597h72v-597l119 122l49 -46l-183 -189h-42l-183 189z" />
    <glyph glyph-name="arrowleft.case" horiz-adv-x="850" 
d="M305 533l-122 -119h597v-72h-597l122 -119l-46 -49l-189 183v42l189 183z" />
    <glyph glyph-name="uni2196.case" horiz-adv-x="850" 
d="M157 294l-4 263l30 30l263 -4l-2 -67l-171 2l423 -422l-51 -51l-423 422l3 -170z" />
    <glyph glyph-name="uni2197.case" horiz-adv-x="850" 
d="M624 297l3 170l-423 -422l-51 51l423 422l-171 -2l-2 67l263 4l30 -30l-4 -263z" />
    <glyph glyph-name="uni2198.case" horiz-adv-x="833" 
d="M692 338l4 -263l-30 -30l-263 4l2 67l171 -2l-423 422l51 51l423 -422l-3 170z" />
    <glyph glyph-name="uni2199.case" horiz-adv-x="833" 
d="M225 335l-3 -170l423 422l51 -51l-423 -422l171 2l2 -67l-263 -4l-30 30l4 263z" />
    <glyph glyph-name="circleinvert" horiz-adv-x="842" 
d="M792 300l-37 -109l-75 -103l-98 -67l-107 -37h-108l-107 37l-98 67l-75 103l-37 109v111l37 109l75 103l98 67l107 37h108l107 -37l98 -67l75 -103l37 -109v-111z" />
    <glyph glyph-name="one.num" horiz-adv-x="241" 
d="M10 647l145 69h36v-360h-71v271l-80 -37z" />
    <glyph glyph-name="one.den" horiz-adv-x="241" 
d="M10 291l145 69h36v-360h-71v271l-80 -37z" />
    <glyph glyph-name="zero.num" horiz-adv-x="385" 
d="M165 346l-49 21l-38 40l-19 44l-9 43v75l9 43l19 43l38 39l49 22h56l48 -22l38 -39l19 -43l9 -43v-75l-9 -43l-19 -44l-38 -40l-48 -21h-56zM229 423l20 19l9 26l8 32v63l-7 30l-8 24l-23 21l-23 12h-23l-25 -12l-22 -21l-9 -24l-7 -30v-63l8 -32l9 -26l21 -19l25 -11h23
z" />
    <glyph glyph-name="two.num" horiz-adv-x="335" 
d="M50 656l35 36l57 24h61l59 -28l38 -57v-55l-24 -47l-111 -110h140v-68h-248v56l159 156l14 28v19l-17 26l-26 12h-31l-28 -12l-28 -29z" />
    <glyph glyph-name="three.num" horiz-adv-x="337" 
d="M114 524v49l55 72h-110v66h205v-47l-64 -86l34 -13l36 -35l17 -42v-37l-17 -46l-33 -34l-58 -25h-58l-55 21l-36 36l50 49l28 -28l26 -12h30l31 13l15 16l8 19v17l-6 15l-19 19l-37 13h-42z" />
    <glyph glyph-name="four.num" horiz-adv-x="324" 
d="M294 503v-65h-51v-87h-69v87h-154v47l164 226h59v-208h51zM174 587l-59 -84h59v84z" />
    <glyph glyph-name="five.num" horiz-adv-x="341" 
d="M102 513l-45 31l24 167h186v-66h-126l-9 -55h57l50 -20l36 -34l16 -44v-41l-16 -46l-34 -36l-56 -23h-57l-51 20l-37 35l48 49l28 -27l25 -11h29l31 15l14 12l8 21v20l-7 18l-18 17l-21 7h-40z" />
    <glyph glyph-name="six.num" horiz-adv-x="355" 
d="M119 497v-32l6 -25l14 -15l23 -13h32l28 15l6 7l8 26v27l-5 14l-12 16l-24 12h-23l-30 -12l-19 -15zM119 580l38 15h52l57 -26l28 -41l11 -37v-43l-10 -33l-30 -43l-55 -26h-63l-58 27l-29 42l-10 36v145l13 48l37 46l56 26h55l55 -25l33 -31l-50 -46l-26 22l-28 14h-23
l-27 -13l-20 -25l-6 -24v-8z" />
    <glyph glyph-name="seven.num" horiz-adv-x="263" 
d="M30 351l139 294h-149v66h233v-45l-146 -315h-77z" />
    <glyph glyph-name="eight.num" horiz-adv-x="354" 
d="M211 582l13 12l3 13v16l-5 12l-9 9l-23 6h-26l-24 -7l-10 -8l-3 -11v-19l3 -12l13 -11l13 -3h43zM156 513l-18 -8l-14 -13l-5 -15v-30l4 -16l13 -11l25 -7h32l23 6l15 14l4 14v30l-5 15l-13 13l-18 8h-43zM304 435l-11 -36l-41 -39l-49 -14h-53l-48 14l-42 39l-10 36v51
l13 40l23 20l-13 11l-16 38v38l14 41l36 28l50 14h40l49 -14l37 -28l13 -41v-38l-15 -38l-12 -11l22 -21l13 -39v-51z" />
    <glyph glyph-name="nine.num" horiz-adv-x="356" 
d="M236 569v28l-7 24l-13 17l-22 12h-32l-27 -13l-8 -10l-7 -25v-24l4 -14l11 -17l27 -12h24l30 10l16 15zM236 473v10l-36 -15h-56l-55 26l-29 43l-10 32v45l10 33l30 43l54 26h66l55 -26l28 -41l13 -41v-145l-14 -47l-36 -45l-55 -25h-57l-55 25l-33 31l53 50l24 -27
l27 -13h23l28 12l18 24z" />
    <glyph glyph-name="two.den" horiz-adv-x="335" 
d="M50 305l35 36l57 24h61l59 -28l38 -57v-55l-24 -47l-111 -110h140v-68h-248v56l159 156l14 28v19l-17 26l-26 12h-31l-28 -12l-28 -29z" />
    <glyph glyph-name="three.den" horiz-adv-x="337" 
d="M111 173v49l55 72h-110v66h205v-47l-64 -86l34 -13l36 -35l17 -42v-37l-17 -46l-33 -34l-58 -25h-58l-55 21l-36 36l50 49l28 -28l26 -12h30l31 13l15 16l8 19v17l-6 15l-19 19l-37 13h-42z" />
    <glyph glyph-name="four.den" horiz-adv-x="324" 
d="M294 152v-65h-51v-87h-69v87h-154v47l164 226h59v-208h51zM174 236l-59 -84h59v84z" />
    <glyph glyph-name="five.den" horiz-adv-x="341" 
d="M102 162l-45 31l24 167h186v-66h-126l-9 -55h57l50 -20l36 -34l16 -44v-41l-16 -46l-34 -36l-56 -23h-57l-51 20l-37 35l48 49l28 -27l25 -11h29l31 15l14 12l8 21v20l-7 18l-18 17l-21 7h-40z" />
    <glyph glyph-name="six.den" horiz-adv-x="355" 
d="M119 146v-32l6 -25l14 -15l23 -13h32l28 15l6 7l8 26v27l-5 14l-12 16l-24 12h-23l-30 -12l-19 -15zM119 229l38 15h52l57 -26l28 -41l11 -37v-43l-10 -33l-30 -43l-55 -26h-63l-58 27l-29 42l-10 36v145l13 48l37 46l56 26h55l55 -25l33 -31l-50 -46l-26 22l-28 14h-23
l-27 -13l-20 -25l-6 -24v-8z" />
    <glyph glyph-name="seven.den" horiz-adv-x="263" 
d="M30 0l139 294h-149v66h233v-45l-146 -315h-77z" />
    <glyph glyph-name="eight.den" horiz-adv-x="354" 
d="M211 231l13 12l3 13v16l-5 12l-9 9l-23 6h-26l-24 -7l-10 -8l-3 -11v-19l3 -12l13 -11l13 -3h43zM156 162l-18 -8l-14 -13l-5 -15v-30l4 -16l13 -11l25 -7h32l23 6l15 14l4 14v30l-5 15l-13 13l-18 8h-43zM304 84l-11 -36l-41 -39l-49 -14h-53l-48 14l-42 39l-10 36v51
l13 40l23 20l-13 11l-16 38v38l14 41l36 28l50 14h40l49 -14l37 -28l13 -41v-38l-15 -38l-12 -11l22 -21l13 -39v-51z" />
    <glyph glyph-name="nine.den" horiz-adv-x="356" 
d="M236 218v28l-7 24l-13 17l-22 12h-32l-27 -13l-8 -10l-7 -25v-24l4 -14l11 -17l27 -12h24l30 10l16 15zM236 122v10l-36 -15h-56l-55 26l-29 43l-10 32v45l10 33l30 43l54 26h66l55 -26l28 -41l13 -41v-145l-14 -47l-36 -45l-55 -25h-57l-55 25l-33 31l53 50l24 -27
l27 -13h23l28 12l18 24z" />
    <glyph glyph-name="plusinferior" horiz-adv-x="264" 
d="M105 -87v90h-85v54h85v90h54v-90h85v-54h-85v-90h-54z" />
    <glyph glyph-name="minusinferior" horiz-adv-x="264" 
d="M20 3v54h224v-54h-224z" />
    <glyph glyph-name="equalinferior" horiz-adv-x="264" 
d="M20 57v54h224v-54h-224zM20 -51v54h224v-54h-224z" />
    <glyph glyph-name="plus.num" horiz-adv-x="264" 
d="M105 414v90h-85v54h85v90h54v-90h85v-54h-85v-90h-54z" />
    <glyph glyph-name="minus.num" horiz-adv-x="264" 
d="M20 505v54h224v-54h-224z" />
    <glyph glyph-name="equal.num" horiz-adv-x="264" 
d="M20 558v54h224v-54h-224zM20 450v54h224v-54h-224z" />
    <glyph glyph-name="parenleft.num" horiz-adv-x="189" 
d="M114 502l13 -64l17 -44l30 -44l-51 -34l-36 52l-22 53l-15 75v70l15 75l22 52l36 52l51 -34l-30 -44l-17 -45l-13 -64v-56z" />
    <glyph glyph-name="parenright.num" horiz-adv-x="189" 
d="M75 559l-13 64l-17 45l-30 44l51 34l36 -52l22 -52l15 -75v-70l-15 -75l-22 -53l-36 -52l-51 34l30 44l17 44l13 64v56z" />
    <glyph glyph-name="zero.den" horiz-adv-x="385" 
d="M165 -5l-49 21l-38 40l-19 44l-9 43v75l9 43l19 43l38 39l49 22h56l48 -22l38 -39l19 -43l9 -43v-75l-9 -43l-19 -44l-38 -40l-48 -21h-56zM229 72l20 19l9 26l8 32v63l-7 30l-8 24l-23 21l-23 12h-23l-25 -12l-22 -21l-9 -24l-7 -30v-63l8 -32l9 -26l21 -19l25 -11h23z
" />
    <glyph glyph-name="plus.den" horiz-adv-x="264" 
d="M105 63v90h-85v54h85v90h54v-90h85v-54h-85v-90h-54z" />
    <glyph glyph-name="minus.den" horiz-adv-x="264" 
d="M20 153v54h224v-54h-224z" />
    <glyph glyph-name="equal.den" horiz-adv-x="264" 
d="M20 207v54h224v-54h-224zM20 99v54h224v-54h-224z" />
    <glyph glyph-name="parenleft.den" horiz-adv-x="189" 
d="M114 152l13 -64l17 -44l30 -44l-51 -34l-36 52l-22 53l-15 75v70l15 75l22 52l36 52l51 -34l-30 -44l-17 -45l-13 -64v-56z" />
    <glyph glyph-name="parenright.den" horiz-adv-x="189" 
d="M75 208l-13 64l-17 45l-30 44l51 34l36 -52l22 -52l15 -75v-70l-15 -75l-22 -53l-36 -52l-51 34l30 44l17 44l13 64v56z" />
    <glyph glyph-name="csuperior" horiz-adv-x="312" 
d="M199 604l-21 7h-25l-24 -11l-21 -29l-5 -21v-42l6 -22l21 -28l25 -12h23l21 7l29 28l42 -41l-42 -41l-39 -12h-46l-53 25l-37 49l-10 37v61l10 38l37 48l53 26h46l39 -13l42 -41l-42 -40z" />
    <glyph glyph-name="fsuperior" horiz-adv-x="265" 
d="M88 602h-46v58h46v62l31 45l44 15h24l54 -13l-15 -60l-46 13h-10l-12 -3l-10 -14v-45h66v-58h-66v-211h-60v211z" />
    <glyph glyph-name="gsuperior" horiz-adv-x="349" 
d="M142 309l-35 9l-30 20l-19 18l41 42l19 -17l10 -8l21 -6h31l38 21l4 9v22l-28 -17h-46l-57 21l-37 49l-11 37v50l10 38l37 48l53 26h49l30 -11v7h59v-276l-14 -43l-39 -25l-42 -14h-44zM214 596l-14 9l-21 7h-26l-24 -12l-21 -29l-5 -21v-31l6 -21l19 -26l25 -10h30
l27 19l12 17v89z" />
    <glyph glyph-name="ksuperior" horiz-adv-x="328" 
d="M214 667h84l-115 -114l115 -162h-72l-86 121l-20 -20v-101h-60v387h60v-206z" />
    <glyph glyph-name="psuperior" horiz-adv-x="345" 
d="M119 653l29 18h48l56 -26l36 -48l10 -37v-62l-10 -37l-36 -49l-54 -25h-48l-30 10v-85h-60v355h59v-14zM128 461l13 -9l20 -6h26l24 13l22 27l5 22v42l-5 21l-22 29l-25 11h-29l-26 -18l-11 -18v-104z" />
    <glyph glyph-name="qsuperior" horiz-adv-x="345" 
d="M220 312v92l-28 -17h-49l-56 25l-36 49l-10 37v61l10 38l36 48l54 26h48l31 -12v8h59v-355h-59zM212 596l-14 9l-21 7h-26l-24 -12l-22 -29l-5 -21v-43l6 -21l21 -28l26 -12h27l28 20l12 16v105z" />
    <glyph glyph-name="usuperior" horiz-adv-x="332" 
d="M169 446l31 20l12 16v185h60v-276h-60v14l-32 -18h-45l-46 12l-37 47v221h60v-200l10 -15l22 -6h25z" />
    <glyph glyph-name="vsuperior" horiz-adv-x="326" 
d="M25 667h65l70 -183l71 183h64l-110 -276h-50z" />
    <glyph glyph-name="zsuperior" horiz-adv-x="316" 
d="M47 391v44l130 173h-123v59h206v-45l-129 -173h132v-58h-216z" />
    <glyph glyph-name="colon.case" horiz-adv-x="309" 
d="M95 221h119v-123h-119v123zM95 612h119v-123h-119v123z" />
    <glyph glyph-name="exclamdown.case" horiz-adv-x="359" 
d="M221 500v-500h-83v500h83zM120 711h119v-123h-119v123z" />
    <glyph glyph-name="questiondown.case" horiz-adv-x="562" 
d="M188 251l-16 -34l-8 -44l11 -45l24 -27l52 -19h52l50 14l30 25l9 17l9 53l81 -14l-11 -62l-21 -46l-59 -47l-75 -22h-80l-82 32l-55 53l-19 86l13 72l28 56l81 66l43 68v75h83v-102l-58 -89zM346 596h-119v123h119v-123z" />
    <glyph glyph-name="lessequal.case" horiz-adv-x="520" 
d="M131 430l301 -178l-37 -63l-347 206v71l347 206l37 -63zM450 128v-78h-404v78h404z" />
    <glyph glyph-name="plusminus.case" horiz-adv-x="580" 
d="M251 189v161h-181v78h181v181h78v-181h181v-78h-181v-161h-78zM70 128h440v-78h-440v78z" />
    <glyph glyph-name="greaterequal.case" horiz-adv-x="520" 
d="M389 431l-301 178l37 63l347 -206v-71l-347 -206l-37 63zM474 128v-78h-404v78h404z" />
    <glyph glyph-name="zero.otlfslash" 
d="M459 504l61 -56l39 -66l17 -69v-99l-17 -69l-39 -66l-61 -56l-80 -31h-118l-80 31l-61 56l-39 66l-17 69v99l17 69l39 66l61 56l80 31h118zM414 94l43 40l23 39l13 49v82l-13 51l-12 20l-255 -269l13 -12l49 -20h90zM160 173l11 -20l255 269l-12 12l-49 19h-90l-49 -19
l-43 -40l-23 -39l-13 -51v-82z" />
    <glyph glyph-name="zero.oplfslash" horiz-adv-x="632" 
d="M455 504l61 -56l39 -66l17 -69v-99l-17 -69l-39 -66l-61 -56l-80 -31h-118l-80 31l-61 56l-39 66l-17 69v99l17 69l39 66l61 56l80 31h118zM410 94l43 40l23 39l13 49v82l-13 51l-12 20l-255 -269l13 -12l49 -20h90zM156 173l11 -20l255 269l-12 12l-49 19h-90l-49 -19
l-43 -40l-23 -39l-13 -51v-82z" />
    </font>
</defs>
</svg>
